<svg width="156" height="156" viewBox="0 0 156 156" fill="none" xmlns="http://www.w3.org/2000/svg">
<path d="M96.8276 18.8274V8.06893C96.8276 6.58358 95.6231 5.37915 94.1378 5.37915H13.4483C11.9629 5.37915 10.7585 6.58358 10.7585 8.06893V18.8274C10.7585 20.3128 11.9629 21.5172 13.4483 21.5172H2.68978C1.20443 21.5172 0 22.7214 0 24.2067V34.9652C0 36.4506 1.20443 37.655 2.68978 37.655H8.06904C6.58369 37.655 5.37926 38.8594 5.37926 40.3448V51.1033C5.37926 52.5887 6.58369 53.7931 8.06904 53.7931H2.68978C1.20443 53.7931 0 54.9975 0 56.4829V67.2414C0 68.7267 1.20443 69.9312 2.68978 69.9312H13.4483C11.9629 69.9312 10.7585 71.1356 10.7585 72.6209V83.3795C10.7585 84.8648 11.9629 86.0692 13.4483 86.0692H2.68978C1.20443 86.0692 0 87.2737 0 88.759V99.5175C0 101.003 1.20443 102.207 2.68978 102.207H8.06904C6.58369 102.207 5.37926 103.412 5.37926 104.897V115.656C5.37926 117.141 6.58369 118.345 8.06904 118.345H2.68978C1.20443 118.345 0 119.55 0 121.035V131.794C0 133.279 1.20443 134.483 2.68978 134.483H13.4483C11.9629 134.483 10.7585 135.688 10.7585 137.173V147.932C10.7585 149.417 11.9629 150.622 13.4483 150.622H94.1381C95.6234 150.622 96.8279 149.417 96.8279 147.932V72.6206C96.8279 71.1353 95.6234 69.9309 94.1381 69.9309H83.3796C84.8649 69.9309 86.0693 68.7264 86.0693 67.2411V56.4826C86.0693 54.9972 84.8649 53.7928 83.3796 53.7928H88.7588C90.2442 53.7928 91.4486 52.5883 91.4486 51.103V40.3445C91.4486 38.8591 90.2442 37.6547 88.7588 37.6547H83.3796C84.8649 37.6547 86.0693 36.4503 86.0693 34.9649V24.2064C86.0693 22.721 84.8649 21.5166 83.3796 21.5166H94.1381C95.6234 21.5172 96.8276 20.3128 96.8276 18.8274Z" fill="#E29704"/>
<path d="M94.1379 69.9309H83.3793C84.8647 69.9309 86.0691 68.7265 86.0691 67.2411V64.1921C71.5569 73.2072 61.8623 89.2451 61.8623 107.586C61.8623 125.68 71.2912 141.539 85.4774 150.62H94.1382C95.6235 150.62 96.8279 149.416 96.8279 147.931V72.6207C96.8273 71.1354 95.6232 69.9309 94.1379 69.9309Z" fill="#F2DA00"/>
<path d="M80.6896 53.7934H75.3104C73.825 53.7934 72.6206 52.5889 72.6206 51.1036V40.3451C72.6206 38.8597 73.825 37.6553 75.3104 37.6553H80.6896C82.175 37.6553 83.3794 38.8597 83.3794 40.3451V51.1036C83.3791 52.5889 82.175 53.7934 80.6896 53.7934Z" fill="#F2DA00"/>
<path d="M75.3102 37.6552H69.931C68.4456 37.6552 67.2412 36.4507 67.2412 34.9654V24.2069C67.2412 22.7215 68.4456 21.5171 69.931 21.5171H75.3102C76.7956 21.5171 78 22.7215 78 24.2069V34.9654C78 36.451 76.7956 37.6552 75.3102 37.6552Z" fill="#F2DA00"/>
<path d="M75.3102 69.931H69.931C68.4456 69.931 67.2412 68.7266 67.2412 67.2413V56.4828C67.2412 54.9974 68.4456 53.793 69.931 53.793H75.3102C76.7956 53.793 78 54.9974 78 56.4828V67.2413C78 68.7269 76.7956 69.931 75.3102 69.931Z" fill="#F2DA00"/>
<path d="M112.966 150.62C136.733 150.62 156 131.353 156 107.586C156 83.8189 136.733 64.5518 112.966 64.5518C89.1983 64.5518 69.9312 83.8189 69.9312 107.586C69.9312 131.353 89.1983 150.62 112.966 150.62Z" fill="#E29704"/>
<path d="M112.966 145.241C133.762 145.241 150.621 128.382 150.621 107.586C150.621 86.7897 133.762 69.9309 112.966 69.9309C92.1693 69.9309 75.3105 86.7897 75.3105 107.586C75.3105 128.382 92.1693 145.241 112.966 145.241Z" fill="#F2DA00"/>
<path d="M112.966 139.862C130.791 139.862 145.242 125.412 145.242 107.586C145.242 89.7607 130.791 75.3103 112.966 75.3103C95.1403 75.3103 80.6899 89.7607 80.6899 107.586C80.6899 125.412 95.1403 139.862 112.966 139.862Z" fill="#F2DA00"/>
<path d="M115.655 105.623V94.4328C118.851 95.1053 121.034 96.8749 121.034 98.5086C121.034 99.9952 122.237 101.198 123.724 101.198C125.211 101.198 126.414 99.9955 126.414 98.5086C126.414 93.7125 121.865 89.8302 115.655 88.9497V88.7586C115.655 87.2721 114.453 86.0688 112.966 86.0688C111.479 86.0688 110.276 87.2718 110.276 88.7586V88.9497C104.067 89.8305 99.5174 93.7128 99.5174 98.5086C99.5174 105.288 105.425 107.938 110.276 109.549V120.739C107.08 120.067 104.897 118.297 104.897 116.664C104.897 115.177 103.694 113.974 102.207 113.974C100.72 113.974 99.5171 115.177 99.5171 116.664C99.5171 121.46 104.067 125.342 110.276 126.223V126.414C110.276 127.9 111.479 129.104 112.965 129.104C114.452 129.104 115.655 127.901 115.655 126.414V126.223C121.865 125.342 126.414 121.46 126.414 116.664C126.414 109.884 120.507 107.234 115.655 105.623ZM104.897 98.5086C104.897 96.8752 107.08 95.1056 110.276 94.4331V103.803C106.269 102.234 104.897 100.8 104.897 98.5086ZM115.655 120.74V111.37C119.662 112.939 121.034 114.372 121.034 116.664C121.034 118.297 118.851 120.067 115.655 120.74Z" fill="#E29704"/>
<path d="M37.6551 21.5172H48.4136C46.9283 21.5172 45.7238 20.3128 45.7238 18.8274V8.06893C45.7238 6.58358 46.9283 5.37915 48.4136 5.37915H13.4483C11.9629 5.37915 10.7585 6.58358 10.7585 8.06893V18.8274C10.7585 20.3128 11.9629 21.5172 13.4483 21.5172H2.68978C1.20443 21.5172 0 22.7214 0 24.2067V34.9652C0 36.4506 1.20443 37.655 2.68978 37.655H8.06904C6.58369 37.655 5.37926 38.8594 5.37926 40.3448V51.1033C5.37926 52.5887 6.58369 53.7931 8.06904 53.7931H2.68978C1.20443 53.7931 0 54.9975 0 56.4829V67.2414C0 68.7267 1.20443 69.9312 2.68978 69.9312H13.4483C11.9629 69.9312 10.7585 71.1356 10.7585 72.6209V83.3795C10.7585 84.8648 11.9629 86.0692 13.4483 86.0692H2.68978C1.20443 86.0692 0 87.2737 0 88.759V99.5175C0 101.003 1.20443 102.207 2.68978 102.207H8.06904C6.58369 102.207 5.37926 103.412 5.37926 104.897V115.656C5.37926 117.141 6.58369 118.345 8.06904 118.345H2.68978C1.20443 118.345 0 119.55 0 121.035V131.794C0 133.279 1.20443 134.483 2.68978 134.483H13.4483C11.9629 134.483 10.7585 135.688 10.7585 137.173V147.932C10.7585 149.417 11.9629 150.622 13.4483 150.622H48.4139C46.9286 150.622 45.7241 149.417 45.7241 147.932V137.173C45.7241 135.688 46.9286 134.483 48.4139 134.483H37.6554C36.1701 134.483 34.9656 133.279 34.9656 131.794V121.035C34.9656 119.55 36.1701 118.345 37.6554 118.345H43.0347C41.5493 118.345 40.3449 117.141 40.3449 115.656V104.897C40.3449 103.412 41.5493 102.207 43.0347 102.207H37.6554C36.1701 102.207 34.9656 101.003 34.9656 99.5175V88.759C34.9656 87.2737 36.1701 86.0692 37.6554 86.0692H48.4139C46.9286 86.0692 45.7241 84.8648 45.7241 83.3795V72.6209C45.7241 71.1356 46.9286 69.9312 48.4139 69.9312H37.6554C36.1701 69.9312 34.9656 68.7267 34.9656 67.2414V56.4829C34.9656 54.9975 36.1701 53.7931 37.6554 53.7931H43.0347C41.5493 53.7931 40.3449 52.5887 40.3449 51.1033V40.3448C40.3449 38.8594 41.5493 37.655 43.0347 37.655H37.6554C36.1701 37.655 34.9656 36.4506 34.9656 34.9652V24.2067C34.9656 22.7214 36.1698 21.5172 37.6551 21.5172Z" fill="#F2DA00"/>
<path d="M86.069 21.5172H80.6898C79.2044 21.5172 78 20.3128 78 18.8274V8.06893C78 6.58358 79.2044 5.37915 80.6898 5.37915H86.069C87.5544 5.37915 88.7588 6.58358 88.7588 8.06893V18.8274C88.7585 20.3128 87.5544 21.5172 86.069 21.5172Z" fill="#F2DA00"/>
</svg>
