<svg width="845" height="596" viewBox="0 0 845 596" fill="none" xmlns="http://www.w3.org/2000/svg">
<g clip-path="url(#clip0_585_6096)">
<path d="M431.393 594C456.798 594 477.393 573.405 477.393 548C477.393 522.595 456.798 502 431.393 502C405.987 502 385.393 522.595 385.393 548C385.393 573.405 405.987 594 431.393 594Z" fill="#00B3EC"/>
<path d="M426.465 68.0035C354.574 68.5113 295.709 126.933 294.688 198.82C294.679 199.484 294.674 204.15 294.675 210.254C294.675 219.204 298.231 227.786 304.559 234.115C310.887 240.443 319.469 243.999 328.419 244H328.419C332.855 243.999 337.248 243.124 341.346 241.425C345.444 239.725 349.167 237.235 352.302 234.097C355.438 230.958 357.924 227.232 359.619 223.132C361.313 219.032 362.184 214.639 362.18 210.202C362.176 206.05 362.174 203.176 362.174 203C362.172 191.89 365.062 180.971 370.56 171.316C376.057 161.662 383.974 153.605 393.53 147.938C403.086 142.271 413.952 139.189 425.06 138.996C436.169 138.803 447.136 141.504 456.883 146.835C466.631 152.166 474.823 159.942 480.653 169.399C486.484 178.856 489.752 189.668 490.137 200.771C490.521 211.875 488.009 222.887 482.847 232.725C477.684 242.563 470.05 250.887 460.695 256.879L460.706 256.894C460.706 256.894 412.678 287.813 398.036 330.229L398.048 330.232C395.473 338.921 394.169 347.937 394.174 357C394.174 360.725 394.394 393.321 394.817 419.778C394.965 428.906 398.696 437.611 405.204 444.013C411.713 450.415 420.477 454.002 429.607 454H429.607C434.195 454 438.737 453.093 442.972 451.33C447.208 449.568 451.053 446.986 454.286 443.732C457.52 440.478 460.079 436.617 461.814 432.371C463.55 428.124 464.429 423.577 464.401 418.989C464.254 394.76 464.174 366.548 464.174 364.5C464.174 338.455 489.3 312.505 509.938 295.583C533.704 276.096 550.806 249.54 557.675 219.584C559.195 213.416 560.033 207.1 560.174 200.75C560.174 183.236 556.709 165.896 549.977 149.727C543.246 133.559 533.382 118.882 520.953 106.543C508.524 94.2039 493.777 84.446 477.56 77.8316C461.344 71.2171 443.979 67.8769 426.465 68.0035V68.0035Z" fill="#00B3EC"/>
<path d="M843.485 595.262H1.19066C0.875467 595.261 0.573504 595.135 0.350952 594.912C0.1284 594.689 0.00341797 594.386 0.00341797 594.071C0.00341797 593.756 0.1284 593.454 0.350952 593.23C0.573504 593.007 0.875467 592.881 1.19066 592.88H843.485C843.8 592.88 844.103 593.006 844.327 593.229C844.55 593.452 844.675 593.755 844.675 594.071C844.675 594.387 844.55 594.69 844.327 594.913C844.103 595.136 843.8 595.262 843.485 595.262V595.262Z" fill="#161518"/>
<path d="M628.449 272.996C645.017 272.996 658.449 259.565 658.449 242.996C658.449 226.428 645.017 212.996 628.449 212.996C611.88 212.996 598.449 226.428 598.449 242.996C598.449 259.565 611.88 272.996 628.449 272.996Z" fill="#161518"/>
<path d="M573.012 582.129H560.753L554.92 534.841H573.015L573.012 582.129Z" fill="#FFB8B8"/>
<path d="M551.996 578.625H575.64V593.512H537.109C537.109 591.557 537.494 589.622 538.242 587.815C538.99 586.009 540.087 584.368 541.469 582.986C542.851 581.603 544.493 580.507 546.299 579.759C548.105 579.011 550.041 578.625 551.996 578.625Z" fill="#161518"/>
<path d="M668.012 582.129H655.753L649.92 534.841H668.015L668.012 582.129Z" fill="#FFB8B8"/>
<path d="M646.996 578.625H670.64V593.512H632.109C632.109 591.557 632.494 589.622 633.242 587.815C633.99 586.009 635.087 584.368 636.469 582.986C637.851 581.603 639.493 580.507 641.299 579.759C643.105 579.011 645.041 578.625 646.996 578.625V578.625Z" fill="#161518"/>
<path d="M623.89 273.171C637.454 273.171 648.451 262.175 648.451 248.61C648.451 235.045 637.454 224.049 623.89 224.049C610.325 224.049 599.329 235.045 599.329 248.61C599.329 262.175 610.325 273.171 623.89 273.171Z" fill="#FFB8B8"/>
<path d="M638.529 352.406L649.519 327.156C652.188 321.233 652.953 314.627 651.708 308.25C650.463 301.874 647.27 296.041 642.569 291.556C641.604 290.601 640.578 289.71 639.499 288.886C634.076 284.644 627.394 282.332 620.509 282.316C615.88 282.334 611.31 283.35 607.109 285.296C606.749 285.456 606.399 285.626 606.039 285.796C605.349 286.126 604.669 286.486 604.009 286.856C599.704 289.328 596.04 292.777 593.313 296.925C590.586 301.073 588.872 305.804 588.309 310.736L583.459 351.376C582.239 354.566 538.719 469.766 553.939 557.716C554.101 558.655 554.559 559.518 555.246 560.178C555.934 560.839 556.814 561.262 557.759 561.386L573.189 563.486C574.316 563.64 575.459 563.362 576.389 562.707C577.318 562.052 577.965 561.069 578.199 559.956L604.089 436.546C604.251 435.779 604.664 435.089 605.264 434.585C605.864 434.081 606.616 433.792 607.399 433.766C608.182 433.739 608.951 433.976 609.584 434.439C610.217 434.901 610.676 435.562 610.889 436.316L647.469 566.096C647.73 567.039 648.292 567.87 649.071 568.463C649.849 569.055 650.801 569.376 651.779 569.376C652.071 569.374 652.362 569.347 652.649 569.296L671.499 565.666C672.595 565.461 673.575 564.854 674.246 563.964C674.918 563.075 675.233 561.966 675.129 560.856C672.359 529.966 657.639 375.236 638.529 352.406Z" fill="#161518"/>
<path d="M528.439 269.05C528.269 270.51 528.421 271.99 528.884 273.385C529.347 274.78 530.111 276.057 531.121 277.125C532.131 278.193 533.363 279.027 534.73 279.567C536.097 280.108 537.566 280.342 539.034 280.253L552.763 313.246L563.148 297.851L548.518 268.881C548.206 266.426 547.004 264.171 545.14 262.542C543.276 260.914 540.879 260.026 538.404 260.047C535.929 260.068 533.548 260.996 531.711 262.655C529.875 264.314 528.71 266.59 528.439 269.05L528.439 269.05Z" fill="#FFB8B8"/>
<path d="M622.528 385.626C623.988 385.452 625.391 384.96 626.64 384.184C627.889 383.408 628.953 382.368 629.756 381.137C630.559 379.906 631.083 378.514 631.29 377.058C631.497 375.603 631.383 374.12 630.954 372.713L659.84 351.675L642.449 345.163L617.686 366.139C615.371 367.015 613.457 368.71 612.308 370.902C611.159 373.094 610.854 375.632 611.451 378.034C612.048 380.436 613.505 382.535 615.547 383.935C617.588 385.334 620.072 385.936 622.528 385.626V385.626Z" fill="#FFB8B8"/>
<path d="M575.44 335.241C574.332 335.24 573.228 335.131 572.141 334.916C569.514 334.416 567.05 333.277 564.966 331.6C562.883 329.923 561.244 327.759 560.194 325.3L540.959 301.846C540.553 301.351 540.257 300.773 540.091 300.154C539.926 299.534 539.895 298.887 540 298.254C540.105 297.622 540.344 297.019 540.701 296.486C541.059 295.953 541.525 295.503 542.071 295.166L555.755 286.695C556.26 286.382 556.822 286.173 557.409 286.078C557.996 285.984 558.595 286.006 559.173 286.145C559.751 286.284 560.296 286.535 560.776 286.885C561.256 287.236 561.662 287.677 561.97 288.185L575.527 310.519L601.488 291.333C603.555 290.249 605.943 289.945 608.216 290.476C610.488 291.008 612.494 292.339 613.866 294.227C615.238 296.115 615.886 298.434 615.689 300.76C615.493 303.085 614.467 305.263 612.798 306.894L586.886 330.531C583.841 333.549 579.727 335.242 575.44 335.241Z" fill="#161518"/>
<path d="M645.59 370.514C645.554 370.514 645.519 370.514 645.484 370.513C644.853 370.497 644.232 370.349 643.662 370.079C643.091 369.808 642.584 369.421 642.173 368.942L630.007 354.749C629.592 354.265 629.285 353.7 629.106 353.089C628.926 352.478 628.879 351.836 628.966 351.205C629.053 350.575 629.272 349.97 629.611 349.43C629.949 348.891 630.398 348.429 630.927 348.076L653.709 332.888L633.07 308.076C631.87 306.075 631.429 303.708 631.83 301.408C632.23 299.109 633.444 297.03 635.25 295.552C637.056 294.074 639.334 293.295 641.667 293.358C644 293.421 646.233 294.321 647.958 295.893L673.041 320.406C675.015 322.21 676.522 324.465 677.433 326.979C678.343 329.493 678.63 332.191 678.269 334.84C677.907 337.49 676.908 340.012 675.358 342.19C673.807 344.368 671.751 346.138 669.366 347.346L648.865 369.1C648.444 369.546 647.936 369.902 647.373 370.145C646.81 370.388 646.203 370.513 645.59 370.514Z" fill="#161518"/>
<path d="M617.645 318.214C617.45 318.214 617.255 318.202 617.061 318.177C616.214 318.074 615.414 317.73 614.756 317.186C614.098 316.643 613.61 315.921 613.35 315.108L604.208 287.079C603.979 286.371 604.014 285.603 604.307 284.918C604.6 284.234 605.131 283.678 605.802 283.355L606.099 283.214C606.368 283.086 606.634 282.96 606.906 282.839C611.169 280.862 615.81 279.831 620.509 279.816C626.61 279.827 632.574 281.619 637.67 284.973C638.354 285.427 638.831 286.132 639 286.935C639.168 287.739 639.015 288.576 638.572 289.267L621.422 316.135C621.02 316.773 620.462 317.298 619.802 317.662C619.141 318.026 618.399 318.216 617.645 318.214V318.214Z" fill="#E6E6E6"/>
<path d="M652.101 229.603C657.522 229.603 661.918 225.208 661.918 219.786C661.918 214.365 657.522 209.97 652.101 209.97C646.679 209.97 642.284 214.365 642.284 219.786C642.284 225.208 646.679 229.603 652.101 229.603Z" fill="#161518"/>
<path d="M618.449 208.996C611.553 208.996 604.94 211.735 600.064 216.611C595.188 221.487 592.449 228.1 592.449 234.996V245.996H605.978L612.449 234.996L614.39 245.996H655.449L644.449 234.996C644.449 228.1 641.709 221.487 636.833 216.611C631.958 211.735 625.344 208.996 618.449 208.996V208.996Z" fill="#161518"/>
<path d="M657.146 213.062C658.232 209.667 660.48 206.764 663.494 204.863C666.508 202.962 670.096 202.184 673.627 202.666C679.883 203.712 684.83 208.741 687.777 214.357C690.724 219.974 692.085 226.26 694.066 232.285C696.047 238.311 698.857 244.369 703.859 248.269C708.861 252.17 716.536 253.228 721.449 249.215C720.888 253.397 719.026 257.296 716.127 260.362C713.228 263.427 709.439 265.504 705.296 266.298C701.152 267.092 696.863 266.563 693.037 264.786C689.21 263.009 686.039 260.075 683.972 256.397C681.38 251.785 680.711 246.38 679.942 241.146C679.173 235.911 678.174 230.496 675.08 226.205C671.985 221.915 666.192 219.112 661.276 221.067L657.146 213.062Z" fill="#161518"/>
<path d="M338.251 228.012C329.198 228.011 320.516 224.458 314.115 218.134C307.713 211.81 304.117 203.233 304.116 194.291C304.116 188.191 304.12 183.528 304.129 182.865C304.417 161.973 309.743 141.451 319.666 123C303.363 145.047 294.399 171.553 294.013 198.853C294.004 199.516 294 204.18 294 210.279C294.001 219.222 297.597 227.798 303.999 234.122C310.4 240.446 319.082 243.999 328.135 244V244C335.575 243.997 342.81 241.596 348.742 237.161C354.673 232.726 358.977 226.499 361 219.427C354.75 224.964 346.647 228.022 338.251 228.012V228.012Z" fill="#161518"/>
<path d="M428.895 139.304C439.266 139.805 449.363 142.846 458.318 148.165C467.272 153.485 474.817 160.923 480.304 169.843C485.792 178.763 489.058 188.897 489.822 199.375C490.586 209.853 488.134 220.862 484 230.5C489.98 223.394 495.066 214.567 497.577 205.587C500.088 196.606 500.656 187.184 499.241 177.961C497.827 168.739 494.464 159.933 489.382 152.145C484.299 144.357 475.827 137.938 468 133C460.173 128.062 453.648 126.191 444.5 125C435.352 123.81 426.807 124.226 418 127C409.193 129.774 403.365 133.071 396.5 139.304C389.635 145.538 380.675 153.493 377 162.054C383.351 154.494 391.333 148.511 400.33 144.567C409.328 140.623 419.101 138.822 428.895 139.304Z" fill="#161518"/>
<path d="M440.202 438.945C430.918 438.947 422.005 435.347 415.386 428.923C408.767 422.498 404.973 413.764 404.823 404.604C404.392 378.056 404.169 345.347 404.169 341.609C404.163 332.514 405.49 323.467 408.108 314.748L408.096 314.745C409.642 310.368 411.51 306.109 413.683 302C407.01 310.775 401.7 320.481 397.927 330.8L397.939 330.803C395.321 339.523 393.994 348.57 394 357.664C394 361.402 394.223 394.111 394.653 420.659C394.804 429.819 398.598 438.554 405.217 444.978C411.835 451.403 420.748 455.002 430.033 455C437.688 454.999 445.136 452.548 451.26 448.016C457.384 443.485 460.354 438.251 462.5 431C455.995 436.853 449.005 438.957 440.202 438.945Z" fill="#161518"/>
<path d="M126.541 582.585L138.8 582.584L144.633 535.296L126.538 535.297L126.541 582.585Z" fill="#FFB8B8"/>
<path d="M162.445 593.967L123.914 593.969L123.913 579.082L147.557 579.081C151.506 579.081 155.292 580.649 158.084 583.441C160.876 586.233 162.445 590.019 162.445 593.967V593.967L162.445 593.967Z" fill="#161518"/>
<path d="M82.5411 582.585L94.8001 582.584L100.633 535.296L82.5381 535.297L82.5411 582.585Z" fill="#FFB8B8"/>
<path d="M118.445 593.967L79.9141 593.969L79.9134 579.082L103.557 579.081C107.506 579.081 111.292 580.649 114.084 583.441C116.876 586.233 118.445 590.019 118.445 593.967V593.967L118.445 593.967Z" fill="#161518"/>
<path d="M93.2542 568.041L81.2792 567.411C80.6617 567.379 80.0568 567.224 79.4995 566.956C78.9423 566.688 78.4437 566.313 78.0327 565.851C77.6218 565.389 77.3066 564.85 77.1054 564.265C76.9042 563.68 76.821 563.062 76.8607 562.444L91.1734 403.979L157.084 421.764L163.435 420.032L143.576 560.317C143.407 561.372 142.883 562.338 142.091 563.055C141.298 563.772 140.285 564.198 139.218 564.261L126.309 564.863C125.664 564.898 125.018 564.8 124.412 564.573C123.807 564.347 123.255 563.997 122.792 563.547C122.328 563.096 121.963 562.554 121.72 561.955C121.476 561.356 121.36 560.713 121.378 560.067L123.717 475.871C123.728 475.481 123.592 475.102 123.338 474.807C123.083 474.513 122.727 474.324 122.34 474.279C121.953 474.234 121.563 474.335 121.248 474.563C120.932 474.791 120.713 475.129 120.634 475.51L98.0766 564.323C97.8637 565.377 97.2919 566.324 96.4587 567.003C95.6255 567.683 94.5825 568.052 93.5075 568.048C93.4236 568.048 93.3392 568.046 93.2542 568.041Z" fill="#161518"/>
<path d="M128.742 274.32C142.307 274.32 153.303 263.323 153.303 249.759C153.303 236.194 142.307 225.198 128.742 225.198C115.177 225.198 104.181 236.194 104.181 249.759C104.181 263.323 115.177 274.32 128.742 274.32Z" fill="#FFB8B8"/>
<path d="M87.8497 321.918L90.5503 380.185L91.5265 401.384C91.5654 402.307 91.8787 403.197 92.4264 403.941C92.974 404.684 93.7311 405.248 94.6008 405.559L157.937 428.503C158.448 428.693 158.991 428.788 159.536 428.783C160.16 428.786 160.778 428.663 161.354 428.422C161.929 428.181 162.45 427.826 162.885 427.379C163.32 426.933 163.661 426.402 163.887 425.821C164.113 425.239 164.219 424.618 164.2 423.995L161.603 319.228C161.433 310.632 158.269 302.365 152.657 295.853C147.044 289.34 139.336 284.989 130.86 283.551C130.247 283.457 129.624 283.364 129.001 283.28C123.745 282.628 118.41 283.135 113.371 284.766C108.332 286.398 103.712 289.113 99.8356 292.722C95.8216 296.414 92.6675 300.942 90.5964 305.987C88.5253 311.032 87.5876 316.47 87.8497 321.918L87.8497 321.918Z" fill="#333333"/>
<path d="M188.192 416.876C186.694 416.411 185.325 415.603 184.195 414.515C183.065 413.427 182.205 412.09 181.684 410.611C181.162 409.132 180.994 407.551 181.191 405.995C181.389 404.439 181.948 402.951 182.823 401.649L161.345 373.089L179.879 371.942L197.434 399.239C199.313 400.692 200.621 402.761 201.128 405.081C201.634 407.402 201.308 409.827 200.205 411.931C199.103 414.035 197.295 415.684 195.098 416.588C192.901 417.492 190.456 417.594 188.192 416.876H188.192Z" fill="#FFB8B8"/>
<path d="M173.091 396.481C172.522 396.25 172.004 395.908 171.568 395.476C171.132 395.044 170.786 394.529 170.55 393.962L138.192 316.868C137.557 315.359 137.226 313.739 137.217 312.101C137.208 310.464 137.522 308.841 138.141 307.325C138.76 305.809 139.672 304.429 140.824 303.266C141.977 302.102 143.347 301.177 144.857 300.543C146.367 299.91 147.987 299.58 149.624 299.572C151.262 299.565 152.885 299.88 154.4 300.501C155.916 301.121 157.294 302.033 158.457 303.187C159.62 304.34 160.544 305.711 161.176 307.221L193.534 384.316C194.013 385.46 194.018 386.746 193.549 387.893C193.08 389.04 192.176 389.954 191.034 390.435L176.668 396.464C176.103 396.703 175.496 396.828 174.881 396.831C174.267 396.834 173.659 396.715 173.091 396.481L173.091 396.481Z" fill="#333333"/>
<path d="M120.846 393.762L151.925 334.253C152.524 333.108 153.553 332.248 154.786 331.862C156.018 331.475 157.354 331.593 158.5 332.189L203.611 355.749C204.756 356.349 205.616 357.378 206.003 358.61C206.389 359.843 206.272 361.179 205.675 362.324L174.595 421.833C173.996 422.978 172.967 423.838 171.735 424.225C170.502 424.611 169.166 424.493 168.021 423.897L122.909 400.337C121.765 399.737 120.905 398.708 120.518 397.476C120.131 396.243 120.249 394.907 120.846 393.762Z" fill="#161518"/>
<path d="M141.688 366.574C141.136 365.106 140.248 363.787 139.095 362.724C137.943 361.66 136.557 360.88 135.05 360.447C133.543 360.013 131.955 359.939 130.413 360.228C128.872 360.517 127.419 361.163 126.171 362.113L96.3929 342.359L96.3423 360.929L124.628 376.841C126.19 378.631 128.331 379.814 130.678 380.183C133.025 380.552 135.426 380.083 137.462 378.858C139.497 377.633 141.036 375.731 141.809 373.485C142.582 371.238 142.539 368.792 141.688 366.574V366.574Z" fill="#FFB8B8"/>
<path d="M104.038 370.749L79.7014 351.472C77.0687 350.588 74.6898 349.078 72.7689 347.072C70.848 345.066 69.4426 342.624 68.6732 339.956C67.9038 337.287 67.7935 334.472 68.3517 331.751C68.9099 329.031 70.12 326.486 71.878 324.336L93.9752 295.377C95.5107 293.501 97.6703 292.239 100.059 291.824C102.448 291.409 104.906 291.867 106.985 293.115C109.064 294.363 110.624 296.318 111.381 298.621C112.137 300.925 112.039 303.424 111.105 305.661L93.6209 334.261L119.315 346.448C119.912 346.732 120.443 347.138 120.872 347.642C121.3 348.146 121.617 348.734 121.801 349.37C121.985 350.005 122.032 350.672 121.94 351.326C121.847 351.981 121.616 352.609 121.263 353.168L110.891 369.582C110.541 370.136 110.078 370.61 109.532 370.974C108.987 371.337 108.371 371.582 107.725 371.693C107.699 371.697 107.673 371.701 107.647 371.705C107.012 371.801 106.364 371.766 105.744 371.601C105.123 371.437 104.542 371.147 104.038 370.749V370.749Z" fill="#333333"/>
<path d="M110.183 266.205C110.078 265.897 110.044 265.569 110.085 265.246C110.126 264.922 110.241 264.613 110.42 264.341C110.599 264.069 110.838 263.841 111.119 263.676C111.4 263.51 111.715 263.411 112.039 263.386C112.705 263.423 113.356 263.593 113.953 263.888C114.551 264.183 115.082 264.595 115.516 265.101C116.404 266.126 117.439 267.015 118.587 267.738C119.775 268.337 121.386 268.252 122.064 267.11C122.7 266.038 122.264 264.602 121.879 263.357C120.899 260.188 120.351 256.902 120.249 253.587C120.138 249.886 120.66 246.025 122.709 243.139C125.352 239.414 130.08 238 134.554 238.102C139.028 238.205 143.429 239.586 147.861 240.459C149.391 240.76 151.189 240.914 152.213 239.729C153.301 238.468 152.901 236.427 152.438 234.725C151.237 230.308 149.963 225.74 147.173 222.173C144.156 218.466 139.846 216.039 135.112 215.383C130.567 214.82 125.953 215.343 121.65 216.911C114.639 219.121 108.469 223.419 103.967 229.23C99.3257 235.409 97.3202 243.175 98.3889 250.83C99.433 257.496 102.966 263.519 108.275 267.684L110.183 266.205Z" fill="#161518"/>
<path d="M421.258 582.78C414.724 579.934 408.94 575.608 404.364 570.144C399.787 564.68 396.543 558.227 394.888 551.294C393.232 544.362 393.211 537.139 394.825 530.197C396.439 523.255 399.644 516.782 404.188 511.291C398.92 515.137 394.53 520.06 391.31 525.733C388.09 531.406 386.113 537.698 385.511 544.193C384.909 550.688 385.695 557.237 387.817 563.405C389.939 569.573 393.349 575.219 397.82 579.969C402.291 584.718 407.721 588.462 413.75 590.953C419.779 593.443 426.268 594.623 432.788 594.413C439.307 594.204 445.708 592.611 451.564 589.738C457.421 586.866 462.6 582.782 466.757 577.755C460.273 582.494 452.66 585.452 444.677 586.333C436.695 587.215 428.62 585.99 421.258 582.78V582.78Z" fill="#161518"/>
<path d="M304.382 601.261C297.648 594.609 291.912 587.017 287.353 578.721C282.807 570.468 279.449 561.615 277.379 552.423C275.281 543.094 274.586 533.505 275.317 523.971C276.834 504.554 284.009 486.008 295.954 470.626C296.684 469.69 297.43 468.769 298.195 467.861C299.047 466.847 300.495 468.308 299.649 469.315C287.459 483.932 279.822 501.801 277.683 520.713C276.136 535.165 277.863 549.779 282.737 563.472C287.611 577.164 295.506 589.584 305.836 599.808C306.78 600.738 305.326 602.192 304.382 601.261V601.261Z" fill="#565656"/>
<path d="M311 454.234C310.663 456.119 310.056 457.944 309.196 459.654C306.823 464.421 303.042 468.343 298.365 470.891C298.107 471.029 297.839 471.175 297.571 471.305C297.252 470.804 296.924 470.304 296.614 469.803C294.516 466.446 292.652 462.916 291.798 459.067C290.797 454.571 291.341 449.522 294.223 445.924C297.097 442.325 302.586 440.711 306.564 443.041C307.713 443.727 308.687 444.669 309.412 445.794C309.015 446.286 308.618 446.769 308.221 447.261C308.186 447.307 308.149 447.35 308.109 447.391C307.764 447.822 307.41 448.245 307.065 448.677C305.623 450.446 304.191 452.224 302.75 453.984C304.781 454.358 306.848 454.5 308.912 454.407C309.075 454.399 309.248 454.39 309.412 454.381C309.939 454.347 310.474 454.304 311 454.234Z" fill="#565656"/>
<path d="M281.891 489.627L281.338 496.824L281.192 498.775C281.036 498.697 280.872 498.619 280.717 498.542C275.349 495.877 270.611 492.098 266.821 487.456C263.03 482.814 260.274 477.416 258.736 471.624C258.222 469.615 257.861 467.569 257.657 465.505C260.453 465.074 263.258 464.634 266.054 464.202C263.791 461.257 260.955 458.8 257.718 456.979C258.456 449.776 261.059 442.89 265.269 437C265.994 449.065 278.629 456.737 283.254 467.896C284.673 471.388 285.288 475.155 285.052 478.917C284.816 482.679 283.735 486.339 281.891 489.627V489.627Z" fill="#565656"/>
<path d="M279.491 552.843C278.818 552.877 278.145 552.894 277.48 552.886C271.737 552.849 266.062 551.64 260.803 549.333C255.543 547.025 250.811 543.667 246.895 539.466C243.725 535.995 241.177 532.004 239.361 527.668C239.421 527.66 239.473 527.651 239.534 527.643C242.33 527.211 245.135 526.771 247.931 526.339C244.961 522.47 241.014 519.461 236.496 517.623C235.885 513.723 235.838 509.756 236.358 505.843C242.675 516.139 257.441 516.967 266.77 524.631C271.22 528.339 274.253 533.469 275.357 539.155C275.633 540.56 275.78 541.987 275.798 543.419C275.806 543.764 275.806 544.1 275.798 544.437L276.005 544.903L279.491 552.843Z" fill="#565656"/>
<path d="M307.246 564.761C305.459 566.953 303.673 569.162 301.887 571.354C304.083 571.758 306.32 571.891 308.549 571.751C306.57 578.84 302.771 585.287 297.528 590.453C297.036 590.936 296.527 591.411 296.009 591.86C295.906 591.955 295.794 592.049 295.69 592.144L295.224 590.824L295.215 590.815L292.575 583.506C289.224 580.137 286.904 575.883 285.886 571.242V571.225C285.267 568.508 285.124 565.705 285.463 562.94C286.939 550.953 297.071 540.174 294.551 528.359C300.103 532.856 304.412 538.7 307.065 545.334C305.623 547.104 304.191 548.881 302.75 550.642C304.781 551.016 306.848 551.157 308.911 551.065C309.634 553.986 310.028 556.979 310.085 559.988C310.094 560.42 310.094 560.843 310.085 561.274C309.179 562.396 308.264 563.51 307.358 564.631C307.323 564.677 307.286 564.72 307.246 564.761Z" fill="#565656"/>
<path d="M733.578 594.451C732.775 587.456 732.989 580.381 734.213 573.447C735.425 566.544 737.606 559.846 740.691 553.553C743.823 547.168 747.89 541.285 752.758 536.099C762.688 525.551 775.493 518.145 789.588 514.796C790.447 514.594 791.309 514.408 792.175 514.238C793.142 514.047 793.301 515.569 792.34 515.759C778.461 518.549 765.704 525.348 755.648 535.314C748.015 542.97 742.204 552.247 738.646 562.456C735.088 572.665 733.876 583.544 735.098 594.286C735.211 595.265 733.691 595.43 733.578 594.451V594.451Z" fill="#565656"/>
<path d="M805.951 512.308C804.877 513.243 803.674 514.018 802.379 514.609C798.781 516.266 794.76 516.777 790.862 516.074C790.648 516.033 790.424 515.993 790.209 515.944C790.257 515.505 790.3 515.062 790.354 514.627C790.703 511.703 791.268 508.788 792.567 506.158C794.082 503.085 796.751 500.412 800.099 499.67C803.443 498.923 807.377 500.546 808.597 503.752C808.943 504.685 809.069 505.685 808.964 506.675C808.505 506.775 808.05 506.87 807.59 506.97C807.549 506.98 807.507 506.988 807.465 506.993C807.064 507.082 806.661 507.163 806.26 507.252C804.6 507.606 802.941 507.968 801.285 508.317C802.288 509.48 803.42 510.526 804.659 511.434C804.759 511.506 804.863 511.581 804.962 511.653C805.283 511.878 805.613 512.103 805.951 512.308Z" fill="#565656"/>
<path d="M772.579 519.255L768.903 523.169L767.909 524.232C767.855 524.114 767.796 523.993 767.742 523.875C765.873 519.828 764.888 515.429 764.855 510.971C764.821 506.514 765.74 502.1 767.548 498.025C768.187 496.621 768.931 495.267 769.775 493.976C771.597 495.029 773.428 496.081 775.25 497.135C775.311 494.372 774.812 491.626 773.785 489.061C777.57 485.23 782.289 482.452 787.475 481C782.271 488.332 786.019 498.669 783.499 507.293C782.694 509.979 781.294 512.449 779.403 514.52C777.513 516.591 775.18 518.209 772.579 519.255V519.255Z" fill="#565656"/>
<path d="M741.72 554.781C741.313 554.487 740.915 554.183 740.534 553.869C737.222 551.17 734.495 547.824 732.522 544.035C730.549 540.245 729.371 536.093 729.06 531.832C728.841 528.343 729.224 524.841 730.192 521.481C730.231 521.505 730.265 521.524 730.304 521.547C732.126 522.6 733.957 523.653 735.779 524.706C735.862 521.078 734.976 517.494 733.214 514.323C734.678 511.777 736.5 509.456 738.625 507.43C737.488 516.343 745.661 523.706 747.497 532.497C748.347 536.721 747.714 541.109 745.704 544.92C745.208 545.862 744.629 546.758 743.972 547.596C743.816 547.8 743.659 547.996 743.497 548.187L743.4 548.553L741.72 554.781Z" fill="#565656"/>
<path d="M752.252 574.627C750.195 575.065 748.13 575.513 746.072 575.951C747.157 577.209 748.392 578.329 749.749 579.287C745.298 582.474 740.09 584.44 734.643 584.991C734.133 585.042 733.616 585.079 733.107 585.098C733.003 585.105 732.893 585.108 732.789 585.114L733.134 584.132L733.133 584.123L735.01 578.654C734.638 575.14 735.276 571.592 736.85 568.428L736.858 568.418C737.765 566.555 738.989 564.863 740.475 563.418C746.918 557.157 757.816 555.632 761.862 547.608C762.985 552.803 762.758 558.199 761.203 563.282C759.543 563.636 757.884 563.998 756.228 564.347C757.231 565.511 758.363 566.557 759.602 567.465C758.66 569.495 757.492 571.414 756.123 573.185C755.927 573.439 755.73 573.684 755.524 573.93C754.475 574.158 753.426 574.377 752.378 574.605C752.337 574.615 752.295 574.622 752.252 574.627V574.627Z" fill="#565656"/>
</g>
<defs>
<clipPath id="clip0_585_6096">
<rect width="844.675" height="595.262" fill="white"/>
</clipPath>
</defs>
</svg>
