<svg width="100" height="100" viewBox="0 0 100 100" fill="none" xmlns="http://www.w3.org/2000/svg">
<path d="M33.3333 12.5C21.8292 12.5 12.5 21.8292 12.5 33.3333V66.6667C12.5 78.1708 21.8292 87.5 33.3333 87.5H66.6667C78.1708 87.5 87.5 78.1708 87.5 66.6667V33.3333C87.5 21.8292 78.1708 12.5 66.6667 12.5H33.3333ZM75 20.8333C77.3 20.8333 79.1667 22.7 79.1667 25C79.1667 27.3 77.3 29.1667 75 29.1667C72.7 29.1667 70.8333 27.3 70.8333 25C70.8333 22.7 72.7 20.8333 75 20.8333ZM50 29.1667C61.5042 29.1667 70.8333 38.4958 70.8333 50C70.8333 61.5042 61.5042 70.8333 50 70.8333C38.4958 70.8333 29.1667 61.5042 29.1667 50C29.1667 38.4958 38.4958 29.1667 50 29.1667ZM50 37.5C46.6848 37.5 43.5054 38.817 41.1612 41.1612C38.817 43.5054 37.5 46.6848 37.5 50C37.5 53.3152 38.817 56.4946 41.1612 58.8388C43.5054 61.183 46.6848 62.5 50 62.5C53.3152 62.5 56.4946 61.183 58.8388 58.8388C61.183 56.4946 62.5 53.3152 62.5 50C62.5 46.6848 61.183 43.5054 58.8388 41.1612C56.4946 38.817 53.3152 37.5 50 37.5Z" fill="url(#paint0_linear_499_5671)"/>
<defs>
<linearGradient id="paint0_linear_499_5671" x1="12" y1="50" x2="87" y2="50" gradientUnits="userSpaceOnUse">
<stop stop-color="#00B3EC"/>
<stop offset="1" stop-color="#007FC7"/>
</linearGradient>
</defs>
</svg>
