<svg width="274" height="156" viewBox="0 0 274 156" fill="none" xmlns="http://www.w3.org/2000/svg">
<path d="M70.0007 28.8373C69.1467 29.4067 68.8905 29.9191 67.6664 33.449C66.1292 37.8899 66.1007 38.7154 67.4102 40.1673C68.8051 41.733 71.9934 41.5337 72.9044 39.7972C73.0752 39.484 73.5022 38.3454 73.8722 37.3205L74.4985 35.4417L131.319 35.3563C162.604 35.3278 188.168 35.4132 188.168 35.5271C188.168 36.8081 180.254 64.7059 174.874 82.4694L168.099 104.759H105.186L104.417 102.681C102.966 98.8381 99.2934 94.9096 95.5073 93.0877C88.6752 89.8424 80.5336 91.0381 75.1533 96.1337C72.8474 98.2972 71.3956 100.375 70.4847 102.823L69.8014 104.617L63.0832 104.702C59.3825 104.731 56.3649 104.702 56.3649 104.617C56.3649 104.531 57.7029 100.062 59.354 94.7388C62.5708 84.3198 62.5992 84.0921 61.3182 82.5548C59.8664 80.8468 57.4182 80.8468 56.0233 82.5264C55.5679 83.0388 54.1445 87.3089 51.554 95.7636C47.7394 108.147 47.7109 108.232 48.1379 109.399C48.3657 110.026 48.9065 110.823 49.3336 111.136C50.1022 111.705 50.5576 111.734 59.6956 111.876L69.2321 112.018L69.773 114.096C70.5701 117.285 72.1073 119.961 74.5839 122.409C82.2416 130.066 94.6533 129.469 101.628 121.099C103.08 119.363 104.873 115.691 105.357 113.499L105.699 111.876H203.54V112.474C203.54 112.787 203.882 114.039 204.28 115.235C206.131 120.786 210.201 124.885 215.838 126.907C217.66 127.561 218.343 127.647 221.617 127.647C224.89 127.647 225.574 127.561 227.396 126.907C231.495 125.426 235.082 122.58 237.188 119.135C238.242 117.399 239.693 113.527 239.693 112.474C239.693 111.876 239.807 111.876 246.981 111.876C254.809 111.876 255.663 111.734 256.574 110.367C256.774 110.026 258.596 104.133 260.588 97.2724C263.89 85.8855 264.175 84.7183 263.89 83.8359C263.72 83.295 263.207 82.5548 262.809 82.2132C262.382 81.8432 258.311 79.4235 253.785 76.8045L245.529 72.0505L236.875 57.0198C232.121 48.7643 227.908 41.5621 227.509 41.0213C226.2 39.2563 226.428 39.2848 209.803 39.2848C201.519 39.2848 194.715 39.1994 194.715 39.057C194.715 38.9432 195.114 37.4344 195.569 35.7264C196.708 31.5702 196.68 30.7446 195.455 29.3782L194.488 28.3249L70.9686 28.1826L70.0007 28.8373ZM222.841 47.1986C223.154 47.6257 227.054 54.3724 231.58 62.2008C236.078 70.0293 240.092 76.7475 240.519 77.1461C240.917 77.5446 244.59 79.7651 248.661 82.0994C252.731 84.4337 256.119 86.3979 256.176 86.4264C256.233 86.4833 255.066 90.611 253.614 95.6213L250.966 104.759H245.159C239.38 104.759 239.352 104.759 239.181 104.133C239.096 103.763 238.498 102.453 237.871 101.201C235.651 96.7315 230.982 93.0308 226.029 91.7782C223.638 91.1519 219.596 91.1519 217.204 91.7782C212.251 93.0308 207.554 96.76 205.334 101.201C204.707 102.453 204.138 103.763 204.053 104.133L203.882 104.759H190.445C177.749 104.759 177.037 104.731 177.18 104.247C177.265 103.991 179.799 94.6534 182.759 83.5512C187.912 64.3643 192.751 47.5403 193.349 46.7716C193.577 46.487 196.964 46.4016 207.981 46.4016H222.3L222.841 47.1986ZM92.0912 99.4359C100.631 103.393 100.745 115.32 92.2905 119.477C90.2693 120.501 89.9562 120.558 87.5649 120.558C83.9496 120.53 82.1846 119.79 79.6795 117.313C77.2029 114.808 76.4628 113.043 76.4343 109.456C76.4343 107.179 76.5482 106.695 77.3168 105.044C78.3985 102.766 79.5372 101.4 81.416 100.204C83.5226 98.8381 84.9175 98.4964 87.8211 98.5818C89.9277 98.6388 90.6679 98.7811 92.0912 99.4359ZM225.317 99.0373C227.453 99.7775 229.445 101.315 230.669 103.108C232.178 105.328 232.662 106.809 232.662 109.599C232.69 111.734 232.605 112.246 231.808 113.926C229.559 118.736 224.805 121.327 219.852 120.501C216.066 119.847 213.134 117.569 211.426 113.926C210.628 112.246 210.543 111.734 210.571 109.599C210.571 106.809 211.055 105.328 212.564 103.108C213.76 101.343 215.781 99.8059 217.831 99.0658C219.88 98.3256 223.268 98.3256 225.317 99.0373Z" fill="url(#paint0_linear_428_5252)"/>
<path d="M10.9313 44.9498C9.73566 45.4907 8.82471 46.8571 8.82471 48.1097C8.82471 49.163 9.70719 50.6717 10.6466 51.1841C11.4722 51.6396 14.6035 51.6681 55.6532 51.6681C96.7028 51.6681 99.8342 51.6396 100.66 51.1841C101.599 50.6717 102.482 49.163 102.482 48.1097C102.482 46.8571 101.571 45.4907 100.375 44.9498C99.2649 44.4374 97.443 44.4089 55.6532 44.4089C13.8634 44.4089 12.0415 44.4374 10.9313 44.9498Z" fill="url(#paint1_linear_428_5252)"/>
<path d="M46.2875 57.8168C45.405 58.5285 44.6934 59.781 44.6934 60.692C44.6934 61.7453 45.6612 63.254 46.7145 63.8234C47.6255 64.3073 49.2766 64.3358 80.989 64.3358C112.701 64.3358 114.352 64.3073 115.263 63.8234C116.317 63.254 117.285 61.7453 117.285 60.692C117.285 59.781 116.573 58.5285 115.69 57.8168L114.922 57.219H47.0561L46.2875 57.8168Z" fill="url(#paint2_linear_428_5252)"/>
<path d="M28.0402 71.1681C26.1899 71.9082 25.3928 74.4987 26.4461 76.2068C27.6417 78.1141 25.6205 78.0287 58.3862 77.9433L88.0205 77.8579L88.9884 76.8046C89.7854 75.9221 89.9562 75.5236 89.9562 74.5272C89.9278 73.0469 89.4723 72.1644 88.3621 71.4243C87.565 70.9119 86.7395 70.8834 58.0731 70.9119C41.8752 70.9119 28.3534 71.0257 28.0402 71.1681Z" fill="url(#paint3_linear_428_5252)"/>
<defs>
<linearGradient id="paint0_linear_428_5252" x1="9" y1="78" x2="264" y2="78" gradientUnits="userSpaceOnUse">
<stop stop-color="#00B3EC"/>
<stop offset="1" stop-color="#007FC7"/>
</linearGradient>
<linearGradient id="paint1_linear_428_5252" x1="9" y1="78" x2="264" y2="78" gradientUnits="userSpaceOnUse">
<stop stop-color="#00B3EC"/>
<stop offset="1" stop-color="#007FC7"/>
</linearGradient>
<linearGradient id="paint2_linear_428_5252" x1="9" y1="78" x2="264" y2="78" gradientUnits="userSpaceOnUse">
<stop stop-color="#00B3EC"/>
<stop offset="1" stop-color="#007FC7"/>
</linearGradient>
<linearGradient id="paint3_linear_428_5252" x1="9" y1="78" x2="264" y2="78" gradientUnits="userSpaceOnUse">
<stop stop-color="#00B3EC"/>
<stop offset="1" stop-color="#007FC7"/>
</linearGradient>
</defs>
</svg>
