<svg width="223" height="203" viewBox="0 0 223 203" fill="none" xmlns="http://www.w3.org/2000/svg">
<g clip-path="url(#clip0_607_5819)">
<path d="M64.6212 154.078L70.1459 168.665L97.1356 170.905C100.218 162.384 95.7004 151.852 87.4014 148.213C79.1024 144.574 68.2947 148.387 64.6212 154.078Z" fill="#41FFC2"/>
<path d="M192.678 62.0651C190.745 57.894 188.686 53.7799 186.419 49.7799C184.656 46.8892 183.15 43.2296 179.728 42.0144C175.517 40.5869 170.959 40.6895 166.586 41.125C162.658 41.5259 158.76 42.1684 154.893 42.959C147.787 44.4568 140.721 46.2519 133.902 48.7673C129.094 50.5363 124.455 52.7058 119.783 54.7997C119.567 54.1883 119.345 53.5792 119.117 52.9724C116.209 45.6861 112.683 37.9041 106.244 33.0877C100.772 29.3293 93.5759 28.057 87.3202 30.5322C79.9575 33.3131 73.3868 42.6873 72.1954 50.3445C70.5482 59.3092 73.086 65.7784 76.6052 73.6269C72.745 75.6087 68.8886 77.6052 64.8752 79.2588C54.5739 83.2473 44.6635 85.7576 34.6453 87.6736C33.2775 87.9949 31.9123 88.3384 30.5805 88.7884C30.473 88.8248 30.3656 88.8614 30.2582 88.8979C30.3975 88.88 30.5368 88.8622 30.6762 88.8445C30.8812 88.8196 31.0871 88.8014 31.2924 88.7795C27.4247 89.7431 23.359 90.4008 20.4244 92.9841C15.3108 97.7972 17.7864 106.932 19.4562 112.854C22.5441 122.742 27.0609 132.105 30.6833 141.8C36.562 156.558 42.4347 171.368 50.0109 185.357C51.5463 188.231 52.884 191.807 56.4177 194.504C58.4876 195.877 61.0498 196.202 63.4763 196.367C67.5932 196.526 71.6626 195.633 75.5761 194.425C83.5138 191.569 91.2014 188.059 99.151 185.226C106.627 182.425 114.318 180.224 121.741 177.277C134.819 171.919 147.884 166.532 160.818 160.833C167.964 157.854 175.119 154.865 181.924 151.155C186.926 148.478 191.856 145.669 196.856 142.987C200.329 141.074 204.024 139.353 206.737 136.374C215.854 126.195 206.524 102.913 203.796 91.0406C201.295 80.961 196.841 71.5369 192.678 62.0651ZM75.6454 51.8162C76.8015 47.3502 78.6103 44.4441 82.2882 40.316C86.1431 36.2994 88.9206 34.5198 94.5242 34.0542C105.221 33.7228 111.604 42.0367 118.578 53.3909C118.885 53.9016 119.178 54.4216 119.476 54.9375C117.82 55.6785 116.158 56.4089 114.483 57.1068C102.923 62.1908 90.9412 66.3106 79.6801 72.0597C78.7171 72.5441 77.7571 73.0358 76.7974 73.5284C74.9979 65.9298 73.3948 59.4792 75.6454 51.8162ZM99.4167 68.9461C100.289 70.1031 101.063 71.3333 101.889 72.5235C103.263 74.7068 104.183 75.9839 104.927 77.9323C104.849 77.8769 104.775 77.8284 104.689 77.7623C101.713 75.5908 99.8177 72.8061 97.615 69.6496C98.2153 69.4146 98.8159 69.1801 99.4167 68.9461ZM203.128 102.024C205.076 109.171 206.583 114.029 207.077 121.337C207.219 125.281 207.395 127.089 206.313 130.806C205.084 134.58 201.903 136.64 198.169 138.696C194.224 140.897 192.001 142.031 187.937 144.283C182.199 147.379 178.482 149.528 172.727 152.154C164.62 155.732 156.363 158.959 148.235 162.489C140.263 165.823 132.226 168.995 124.269 172.366C117.707 175.161 110.906 177.314 104.132 179.525C97.2186 181.82 90.4012 184.406 83.6399 187.115C77.6684 189.54 71.7903 191.924 66.6337 192.297C64.0829 192.669 61.4799 192.419 59.0471 191.566C57.2015 191.165 54.8196 186.68 53.7898 184.681C49.7462 177.043 46.1084 169.197 42.8917 161.175C38.5029 150.238 34.4712 139.161 30.1641 128.192C27.3546 120.862 23.9232 113.753 21.6697 106.22C18.5985 94.4711 21.6046 93.7428 32.1148 88.6961C33.3952 88.5829 34.6802 88.5163 35.964 88.46C42.7914 88.444 49.5985 87.7156 56.2747 86.2866C60.5732 85.397 64.8755 84.4019 68.9563 82.7554C78.3469 78.8774 87.0352 73.4291 96.6409 70.0299C96.7891 69.9718 96.9374 69.9143 97.0857 69.8562C98.5899 74.2607 100.594 78.9042 104.896 81.0566C106.517 81.8936 108.286 80.7711 108.078 78.9275C107.763 77.0561 106.612 75.4586 105.497 73.9706C103.914 72.0105 102.121 70.2296 100.151 68.6596C106.249 66.282 112.355 63.9199 118.398 61.4042C124.762 58.6902 130.985 55.6373 137.496 53.2776C149.299 49.0865 162.532 46.185 172.543 45.7326C174.895 45.8215 176.906 45.8246 178.633 46.5847C179.279 46.994 178.943 46.6356 180.335 48.4681C186.428 57.4197 190.24 66.1306 194.419 75.9906C192.419 76.5926 190.429 77.2237 188.448 77.8837C181.557 80.1812 174.871 83.0297 168.205 85.9018C164.102 87.6365 159.959 89.2781 155.926 91.1743C144.914 96.4314 134.088 102.08 122.93 107.032C111.332 112.539 98.9364 116.073 87.3221 121.54C75.5636 126.7 62.8673 133.117 52.511 138.666C48.9384 140.562 42.0712 143.628 37.6964 146.372C42.354 144.416 47.2154 143.05 51.9585 141.331C60.5417 138.104 69.0118 134.568 77.4322 130.939C84.5772 127.836 91.612 124.475 98.8371 121.561C104.882 119.091 111.132 117.154 117.116 114.532C135.073 106.844 152.337 97.6648 169.782 88.9037C177.823 84.5644 184.495 80.7498 192.57 77.0887C193.215 76.79 193.86 76.491 194.504 76.1916C195.302 78.0735 196.111 79.9929 196.955 81.9689C199.692 88.4256 201.113 95.3283 203.128 102.024Z" fill="#EFEFEF"/>
<path d="M179.572 84.3442C179.103 83.4317 179.661 85.068 179.706 85.4536C180.116 87.8691 180.589 90.4771 180.041 92.6074C179.985 92.7941 179.907 92.9734 179.808 93.1413C179.726 93.1876 179.705 93.2175 179.743 93.231C179.821 93.2403 179.633 93.3158 179.674 93.2884C179.707 93.2988 179.682 93.3018 179.6 93.2973C179.578 93.2963 179.565 93.2949 179.55 93.2936C178.638 93.0691 177.955 92.4653 177.287 91.9509C175.922 90.8081 174.596 89.6182 173.201 88.5125C174.162 90.025 175.213 91.479 176.348 92.8668C177.121 93.7244 177.976 94.6248 179.125 94.9384C181.808 95.476 182.114 91.8454 181.677 89.9822C181.308 87.9948 180.596 86.0869 179.572 84.3442Z" fill="#EFEFEF"/>
<path d="M93.2751 162.197C91.6142 158 89.7379 153.809 87.1443 150.101C83.4955 145.114 74.1165 151.783 69.8212 153.519C69.5273 153.662 69.2353 153.809 68.9425 153.953C71.6928 153.224 74.4255 152.432 77.163 151.657C79.6763 151.033 81.9734 150.324 84.1073 151.106C84.1667 151.139 84.1939 151.153 84.1988 151.155C84.345 151.324 84.4799 151.502 84.6026 151.688C86.4103 154.935 88.7298 161.934 90.0295 166.918C90.1118 167.311 90.1393 167.385 90.1209 167.272C90.1747 167.518 90.2285 167.764 90.2825 168.009C90.2511 167.89 90.2278 167.792 90.2098 167.711C90.2202 167.771 90.2322 167.842 90.2463 167.931C90.3504 168.643 90.3996 169.362 90.3936 170.081C90.3836 170.206 90.367 170.33 90.3477 170.453C90.071 170.58 89.792 170.701 89.5116 170.819C81.9387 173.8 77.1377 175.722 70.0141 173.653C68.1252 172.86 68.0314 172.935 66.6952 171.669L66.6873 171.66C65.0382 169.538 63.432 166.462 62.6087 164.933C62.0493 163.829 61.5461 162.698 61.1008 161.543C60.7159 160.617 60.4237 159.523 60.9043 158.578C62.1957 157.421 63.8717 156.735 65.3131 155.773C63.9423 156.275 62.561 156.752 61.203 157.289C60.1099 157.615 59.521 158.615 59.3642 159.696C59.1702 161.527 59.8611 163.332 60.3176 165.082C61.1779 167.835 62.2821 170.506 63.6169 173.063C65.071 175.677 67.8673 177.221 70.6507 178.063C74.4428 179.389 78.5898 179.298 82.4761 178.436C85.4089 177.813 88.2672 176.881 91.0029 175.654C93.1082 174.878 95.1166 173.456 95.2249 171.013C95.4977 167.948 94.3528 165.009 93.2751 162.197Z" fill="#EFEFEF"/>
<path d="M90.2103 167.711C90.159 167.416 90.1559 167.467 90.2103 167.711V167.711Z" fill="#EFEFEF"/>
</g>
<defs>
<clipPath id="clip0_607_5819">
<rect width="181.307" height="150" fill="white" transform="translate(0.816406 62.0098) rotate(-20)"/>
</clipPath>
</defs>
</svg>
