<svg width="35" height="35" viewBox="0 0 35 35" fill="none" xmlns="http://www.w3.org/2000/svg">
<path d="M11.6667 4.375C7.64021 4.375 4.375 7.64021 4.375 11.6667V23.3333C4.375 27.3598 7.64021 30.625 11.6667 30.625H23.3333C27.3598 30.625 30.625 27.3598 30.625 23.3333V11.6667C30.625 7.64021 27.3598 4.375 23.3333 4.375H11.6667ZM26.25 7.29167C27.055 7.29167 27.7083 7.945 27.7083 8.75C27.7083 9.555 27.055 10.2083 26.25 10.2083C25.445 10.2083 24.7917 9.555 24.7917 8.75C24.7917 7.945 25.445 7.29167 26.25 7.29167ZM17.5 10.2083C21.5265 10.2083 24.7917 13.4735 24.7917 17.5C24.7917 21.5265 21.5265 24.7917 17.5 24.7917C13.4735 24.7917 10.2083 21.5265 10.2083 17.5C10.2083 13.4735 13.4735 10.2083 17.5 10.2083ZM17.5 13.125C16.3397 13.125 15.2269 13.5859 14.4064 14.4064C13.5859 15.2269 13.125 16.3397 13.125 17.5C13.125 18.6603 13.5859 19.7731 14.4064 20.5936C15.2269 21.4141 16.3397 21.875 17.5 21.875C18.6603 21.875 19.7731 21.4141 20.5936 20.5936C21.4141 19.7731 21.875 18.6603 21.875 17.5C21.875 16.3397 21.4141 15.2269 20.5936 14.4064C19.7731 13.5859 18.6603 13.125 17.5 13.125Z" fill="#EFEFEF"/>
</svg>
