<svg width="35" height="35" viewBox="0 0 35 35" fill="none" xmlns="http://www.w3.org/2000/svg">
<path d="M32.8125 7.21191C31.6675 7.70752 30.5139 8.07495 29.2407 8.19458C30.5139 7.45972 31.5393 6.2207 32.0435 4.87061C30.7703 5.60547 29.4971 6.10108 28.0957 6.34888C26.814 5.11841 25.1562 4.375 23.3704 4.375C19.9268 4.375 17.1155 7.09229 17.1155 10.4248C17.1155 10.9119 17.1155 11.4075 17.2437 11.7834C10.6641 11.7834 6.15234 8.07495 3.09326 4.375C2.45239 5.23804 2.19604 6.34888 2.19604 7.45972C2.19604 9.55322 3.34961 11.4075 5.00733 12.5183C3.98193 12.3987 2.96509 12.1509 2.19604 11.7834C2.19604 11.7834 2.19604 11.7834 2.19604 11.9031C2.19604 14.8682 4.36646 17.3291 7.17773 17.8247C6.66504 17.9443 6.15234 18.0725 5.51147 18.0725C5.1355 18.0725 4.75098 18.0725 4.36646 17.9529C5.1355 20.4224 8.69873 23.2593 11.5015 23.2593C9.33105 24.8572 7.31445 26.25 3.28125 26.25C2.76855 26.25 3.17871 26.25 2.1875 26.25C4.99023 27.9761 8.31421 28.4375 11.7578 28.4375C23.3704 28.4375 29.6252 19.1833 29.6252 11.1597C29.6252 10.9119 29.6252 10.6726 29.6252 10.4248C30.8984 9.55322 31.9238 8.45093 32.8125 7.21191Z" fill="#EFEFEF"/>
</svg>
