<svg width="29" height="29" viewBox="0 0 29 29" fill="none" xmlns="http://www.w3.org/2000/svg">
<path d="M23.6175 26.9848L1.1315 4.49881C0.83144 4.19875 0.721045 3.73361 0.824603 3.2057C0.928162 2.6778 1.23719 2.13038 1.6837 1.68386C2.13022 1.23735 2.67764 0.928328 3.20554 0.82477C3.73345 0.721211 4.19859 0.831606 4.49865 1.13166L26.9847 23.6177C27.2847 23.9177 27.3951 24.3829 27.2916 24.9108C27.188 25.4387 26.879 25.9861 26.4325 26.4326C25.986 26.8791 25.4385 27.1881 24.9106 27.2917C24.3827 27.3953 23.9176 27.2849 23.6175 26.9848Z" fill="#565656" fill-opacity="0.95"/>
<path d="M26.9845 4.49812L4.49849 26.9841C4.19843 27.2842 3.73329 27.3946 3.20538 27.291C2.67748 27.1874 2.13006 26.8784 1.68354 26.4319C1.23703 25.9854 0.928002 25.438 0.824444 24.9101C0.720886 24.3822 0.831281 23.917 1.13134 23.617L23.6174 1.13097C23.9174 0.830914 24.3826 0.72052 24.9105 0.824078C25.4384 0.927636 25.9858 1.23666 26.4323 1.68317C26.8788 2.12968 27.1879 2.6771 27.2914 3.20501C27.395 3.73291 27.2846 4.19806 26.9845 4.49812Z" fill="#565656" fill-opacity="0.95"/>
</svg>
