<svg width="86" height="86" viewBox="0 0 86 86" fill="none" xmlns="http://www.w3.org/2000/svg">
<path d="M67.5195 0H17.7683C7.95665 0 0 7.95665 0 17.7683V67.5195C0 77.3312 7.95665 85.2878 17.7683 85.2878H67.5195C77.3348 85.2878 85.2878 77.3312 85.2878 67.5195V17.7683C85.2878 7.95665 77.3348 0 67.5195 0ZM56.8586 24.8756H50.0213C47.8358 24.8756 46.1976 25.7711 46.1976 28.0348V31.9829H56.8586L56.0128 42.6439H46.1976V71.0732H35.5366V42.6439H28.4293V31.9829H35.5366V25.1493C35.5366 17.9638 39.3177 14.2146 47.8358 14.2146H56.8586V24.8756Z" fill="url(#paint0_linear_428_5260)"/>
<defs>
<linearGradient id="paint0_linear_428_5260" x1="3" y1="43" x2="85" y2="43" gradientUnits="userSpaceOnUse">
<stop stop-color="#00B3EC"/>
<stop offset="1" stop-color="#007FC7"/>
</linearGradient>
</defs>
</svg>
