<svg width="75" height="108" viewBox="0 0 75 108" fill="none" xmlns="http://www.w3.org/2000/svg">
<path d="M62.5084 33H14.633C13.2365 33 12.106 34.1331 12.106 35.5276V45.7151C12.106 46.0077 12.1653 46.2848 12.2578 46.546C12.2683 46.572 12.2727 46.6037 12.2837 46.6319C12.3831 46.8854 12.5262 47.1137 12.6951 47.3177C12.7121 47.3381 12.7165 47.3617 12.7319 47.382L24.0742 60.3188V105.472C24.0742 106.869 25.206 108 26.6012 108H50.5403C51.9338 108 53.0668 106.869 53.0668 105.472V60.3188L64.409 47.382C64.4246 47.3617 64.4299 47.3381 64.4455 47.3177C64.6136 47.1126 64.7589 46.8843 64.8567 46.6319C64.8688 46.6039 64.8732 46.572 64.8822 46.546C64.9745 46.2848 65.0338 46.0066 65.0338 45.7151V35.5276C65.036 34.1331 63.9053 33 62.5084 33ZM41.0973 82.0211C41.0973 83.4145 39.9668 84.5487 38.5708 84.5487C37.1741 84.5487 36.0434 83.4147 36.0434 82.0211V70.5005C36.0434 69.1063 37.1741 67.9729 38.5708 67.9729C39.9668 67.9729 41.0973 69.1063 41.0973 70.5005V82.0211ZM59.9808 43.1875H17.1607V38.0547H59.981L59.9808 43.1875Z" fill="url(#paint0_linear_434_5222)"/>
<path d="M36.0699 2.5C36.0699 1.11929 37.1892 0 38.5699 0C39.9506 0 41.0699 1.11929 41.0699 2.5V17.5C41.0699 18.8807 39.9506 20 38.5699 20C37.1892 20 36.0699 18.8807 36.0699 17.5V2.5Z" fill="url(#paint1_linear_434_5222)"/>
<path d="M9.35746 7.71811C8.64634 6.53461 9.02928 4.99872 10.2128 4.2876C11.3963 3.57648 12.9322 3.95942 13.6433 5.14292L21.3689 18.0004C22.08 19.1839 21.697 20.7198 20.5135 21.4309C19.33 22.1421 17.7941 21.7591 17.083 20.5756L9.35746 7.71811Z" fill="url(#paint2_linear_434_5222)"/>
<path d="M62.8199 5.16506C63.5102 3.96933 65.0392 3.55964 66.2349 4.25C67.4307 4.94036 67.8403 6.46933 67.15 7.66506L59.65 20.6554C58.9596 21.8512 57.4307 22.2609 56.2349 21.5705C55.0392 20.8802 54.6295 19.3512 55.3199 18.1554L62.8199 5.16506Z" fill="url(#paint3_linear_434_5222)"/>
<defs>
<linearGradient id="paint0_linear_434_5222" x1="9.06982" y1="54" x2="67.0698" y2="54" gradientUnits="userSpaceOnUse">
<stop stop-color="#00B3EC"/>
<stop offset="1" stop-color="#007FC7"/>
</linearGradient>
<linearGradient id="paint1_linear_434_5222" x1="9.06982" y1="54" x2="67.0698" y2="54" gradientUnits="userSpaceOnUse">
<stop stop-color="#00B3EC"/>
<stop offset="1" stop-color="#007FC7"/>
</linearGradient>
<linearGradient id="paint2_linear_434_5222" x1="9.06982" y1="54" x2="67.0698" y2="54" gradientUnits="userSpaceOnUse">
<stop stop-color="#00B3EC"/>
<stop offset="1" stop-color="#007FC7"/>
</linearGradient>
<linearGradient id="paint3_linear_434_5222" x1="9.06982" y1="54" x2="67.0698" y2="54" gradientUnits="userSpaceOnUse">
<stop stop-color="#00B3EC"/>
<stop offset="1" stop-color="#007FC7"/>
</linearGradient>
</defs>
</svg>
