<svg width="87" height="86" viewBox="0 0 87 86" fill="none" xmlns="http://www.w3.org/2000/svg">
<path d="M68.4236 0H18.6724C8.8607 0 0.904053 7.95665 0.904053 17.7683V67.5195C0.904053 77.3312 8.8607 85.2878 18.6724 85.2878H68.4236C78.2388 85.2878 86.1919 77.3312 86.1919 67.5195V17.7683C86.1919 7.95665 78.2388 0 68.4236 0ZM29.3333 67.5195H18.6724V28.4293H29.3333V67.5195ZM24.0028 23.9232C20.57 23.9232 17.7839 21.1158 17.7839 17.6546C17.7839 14.1933 20.57 11.3859 24.0028 11.3859C27.4357 11.3859 30.2218 14.1933 30.2218 17.6546C30.2218 21.1158 27.4392 23.9232 24.0028 23.9232ZM71.9773 67.5195H61.3163V47.6048C61.3163 35.6361 47.1016 36.5423 47.1016 47.6048V67.5195H36.4407V28.4293H47.1016V34.7015C52.0625 25.5117 71.9773 24.833 71.9773 43.5004V67.5195Z" fill="url(#paint0_linear_428_5254)"/>
<defs>
<linearGradient id="paint0_linear_428_5254" x1="0.999998" y1="43" x2="86" y2="43" gradientUnits="userSpaceOnUse">
<stop stop-color="#00B3EC"/>
<stop offset="1" stop-color="#007FC7"/>
</linearGradient>
</defs>
</svg>
