<svg width="86" height="86" viewBox="0 0 86 86" fill="none" xmlns="http://www.w3.org/2000/svg">
<path d="M67.5195 0H17.7683C7.95665 0 0 7.95665 0 17.7683V67.5195C0 77.3312 7.95665 85.2878 17.7683 85.2878H67.5195C77.3348 85.2878 85.2878 77.3312 85.2878 67.5195V17.7683C85.2878 7.95665 77.3348 0 67.5195 0ZM67.0256 32.8252C67.7683 49.2324 55.5331 67.5267 33.8699 67.5267C27.2815 67.5267 21.1514 65.597 15.9879 62.285C22.1784 63.0135 28.3547 61.2971 33.2587 57.4556C28.1521 57.3596 23.8451 53.9872 22.3632 49.3532C24.1933 49.7015 25.9915 49.5984 27.6297 49.1542C22.0185 48.0277 18.1485 42.9744 18.2729 37.5693C19.8436 38.4435 21.6453 38.9694 23.5537 39.0299C18.3618 35.5579 16.8905 28.6994 19.9431 23.4542C25.6965 30.5117 34.2928 35.1564 43.9872 35.6432C42.285 28.3475 47.8252 21.322 55.3554 21.322C58.7065 21.322 61.7413 22.7363 63.8664 25.0071C66.5245 24.4847 69.0227 23.5146 71.2793 22.1784C70.4051 24.9041 68.5572 27.1891 66.1514 28.6318C68.511 28.3475 70.7605 27.7221 72.85 26.7946C71.29 29.1258 69.3106 31.1798 67.0256 32.8252Z" fill="url(#paint0_linear_428_5256)"/>
<defs>
<linearGradient id="paint0_linear_428_5256" x1="1.92525e-06" y1="43" x2="85" y2="43" gradientUnits="userSpaceOnUse">
<stop stop-color="#00B3EC"/>
<stop offset="1" stop-color="#007FC7"/>
</linearGradient>
</defs>
</svg>
