<svg width="100" height="100" viewBox="0 0 100 100" fill="none" xmlns="http://www.w3.org/2000/svg">
<path d="M93.75 20.6055C90.4785 22.0215 87.1826 23.0713 83.5449 23.4131C87.1826 21.3135 90.1123 17.7734 91.5527 13.916C87.915 16.0156 84.2773 17.4316 80.2734 18.1396C76.6113 14.624 71.875 12.5 66.7725 12.5C56.9336 12.5 48.9014 20.2637 48.9014 29.7852C48.9014 31.1768 48.9014 32.5928 49.2676 33.667C30.4688 33.667 17.5781 23.0713 8.83789 12.5C7.00684 14.9658 6.27441 18.1396 6.27441 21.3135C6.27441 27.2949 9.57031 32.5928 14.3066 35.7666C11.377 35.4248 8.47168 34.7168 6.27441 33.667C6.27441 33.667 6.27441 33.667 6.27441 34.0088C6.27441 42.4805 12.4756 49.5117 20.5078 50.9277C19.043 51.2695 17.5781 51.6357 15.7471 51.6357C14.6728 51.6357 13.5742 51.6357 12.4756 51.2939C14.6728 58.3496 24.8535 66.4551 32.8613 66.4551C26.6602 71.0205 20.8984 75 9.375 75C7.91016 75 9.08203 75 6.25 75C14.2578 79.9316 23.7549 81.25 33.5938 81.25C66.7725 81.25 84.6436 54.8096 84.6436 31.8848C84.6436 31.1768 84.6436 30.4932 84.6436 29.7852C88.2812 27.2949 91.2109 24.1455 93.75 20.6055Z" fill="url(#paint0_linear_499_5673)"/>
<defs>
<linearGradient id="paint0_linear_499_5673" x1="6" y1="47" x2="94" y2="47" gradientUnits="userSpaceOnUse">
<stop stop-color="#00B3EC"/>
<stop offset="1" stop-color="#007FC7"/>
</linearGradient>
</defs>
</svg>
