<svg width="71" height="72" viewBox="0 0 71 72" fill="none" xmlns="http://www.w3.org/2000/svg">
<path d="M29.7351 30.0307L20.6145 51.0782L41.662 41.9576L50.7826 20.9101L29.7351 30.0307ZM35.6974 39.265C33.8897 39.265 32.4253 37.8007 32.4253 35.993C32.4253 34.1853 33.8897 32.7209 35.6974 32.7209C37.505 32.7209 38.9694 34.1853 38.9694 35.993C38.9694 37.8007 37.505 39.265 35.6974 39.265Z" fill="url(#paint0_linear_120_5313)"/>
<path d="M35.0777 5.38867C18.5195 5.38867 5.09302 18.8151 5.09302 35.3733C5.09302 51.9315 18.4862 65.358 35.0777 65.358C51.6359 65.358 65.0623 51.9315 65.0623 35.3733C65.0623 18.8151 51.6359 5.38867 35.0777 5.38867ZM35.0777 58.6947C22.1843 58.6947 11.7563 48.2667 11.7563 35.3733C11.7563 22.4799 22.1843 12.0519 35.0777 12.0519C47.9711 12.0519 58.3991 22.4799 58.3991 35.3733C58.3991 48.2667 47.9711 58.6947 35.0777 58.6947Z" fill="url(#paint1_linear_120_5313)"/>
<defs>
<linearGradient id="paint0_linear_120_5313" x1="20.6145" y1="36.3449" x2="50.7826" y2="36.3449" gradientUnits="userSpaceOnUse">
<stop stop-color="#F2DA00"/>
<stop offset="1" stop-color="#E29704"/>
</linearGradient>
<linearGradient id="paint1_linear_120_5313" x1="5.09302" y1="35.7261" x2="65.0623" y2="35.7261" gradientUnits="userSpaceOnUse">
<stop stop-color="#F2DA00"/>
<stop offset="1" stop-color="#E29704"/>
</linearGradient>
</defs>
</svg>
