<svg width="274" height="156" viewBox="0 0 274 156" fill="none" xmlns="http://www.w3.org/2000/svg">
<path d="M70.0007 28.8372C69.1467 29.4066 68.8905 29.919 67.6664 33.4489C66.1292 37.8898 66.1007 38.7153 67.4102 40.1672C68.8051 41.7329 71.9934 41.5336 72.9044 39.7971C73.0752 39.4839 73.5022 38.3453 73.8722 37.3204L74.4985 35.4416L131.319 35.3562C162.604 35.3277 188.168 35.4131 188.168 35.527C188.168 36.808 180.254 64.7058 174.874 82.4693L168.099 104.759H136.642H105.186L104.417 102.681C102.966 98.838 99.2934 94.9095 95.5073 93.0876C88.6752 89.8423 80.5336 91.038 75.1533 96.1336C72.8474 98.2971 71.3956 100.375 70.4847 102.823L69.8014 104.617L63.0832 104.702C59.3825 104.731 56.3649 104.702 56.3649 104.617C56.3649 104.531 57.7029 100.062 59.354 94.7387C62.5708 84.3197 62.5992 84.092 61.3182 82.5547C59.8664 80.8467 57.4182 80.8467 56.0233 82.5263C55.5679 83.0387 54.1445 87.3088 51.554 95.7635C47.7394 108.147 47.7109 108.232 48.1379 109.399C48.3657 110.026 48.9065 110.823 49.3336 111.136C50.1022 111.705 50.5576 111.734 59.6956 111.876L69.2321 112.018L69.773 114.096C70.5701 117.285 72.1073 119.961 74.5839 122.409C82.2416 130.066 94.6533 129.469 101.628 121.099C103.08 119.363 104.873 115.691 105.357 113.499L105.699 111.876H154.634H203.54V112.474C203.54 112.787 203.882 114.039 204.28 115.235C206.131 120.786 210.201 124.885 215.838 126.907C217.66 127.561 218.343 127.647 221.617 127.647C224.89 127.647 225.574 127.561 227.396 126.907C231.495 125.426 235.082 122.58 237.188 119.135C238.242 117.399 239.693 113.527 239.693 112.474C239.693 111.876 239.807 111.876 246.981 111.876C254.809 111.876 255.663 111.734 256.574 110.367C256.774 110.026 258.596 104.133 260.588 97.2723C263.89 85.8854 264.175 84.7182 263.89 83.8358C263.72 83.2949 263.207 82.5547 262.809 82.2131C262.382 81.8431 258.311 79.4234 253.785 76.8044L245.529 72.0504L236.875 57.0197C232.121 48.7642 227.908 41.562 227.509 41.0212C226.2 39.2562 226.428 39.2847 209.803 39.2847C201.519 39.2847 194.715 39.1993 194.715 39.0569C194.715 38.9431 195.114 37.4343 195.569 35.7263C196.708 31.5701 196.68 30.7445 195.455 29.3781L194.488 28.3248L132.714 28.2394L70.9686 28.1825L70.0007 28.8372ZM222.841 47.1985C223.154 47.6256 227.054 54.3723 231.58 62.2007C236.078 70.0292 240.092 76.7474 240.519 77.146C240.917 77.5445 244.59 79.765 248.661 82.0993C252.731 84.4336 256.119 86.3978 256.176 86.4263C256.233 86.4832 255.066 90.6109 253.614 95.6212L250.966 104.759H245.159C239.38 104.759 239.352 104.759 239.181 104.133C239.096 103.763 238.498 102.453 237.871 101.201C235.651 96.7314 230.982 93.0307 226.029 91.7781C223.638 91.1518 219.596 91.1518 217.204 91.7781C212.251 93.0307 207.554 96.7599 205.334 101.201C204.707 102.453 204.138 103.763 204.053 104.133L203.882 104.759H190.445C177.749 104.759 177.037 104.731 177.18 104.247C177.265 103.991 179.799 94.6533 182.759 83.5511C187.912 64.3642 192.751 47.5402 193.349 46.7715C193.577 46.4869 196.964 46.4015 207.981 46.4015H222.3L222.841 47.1985ZM92.0912 99.4358C100.631 103.393 100.745 115.32 92.2905 119.477C90.2693 120.501 89.9562 120.558 87.5649 120.558C83.9496 120.53 82.1846 119.79 79.6795 117.313C77.2029 114.808 76.4628 113.043 76.4343 109.456C76.4343 107.179 76.5482 106.695 77.3168 105.044C78.3985 102.766 79.5372 101.4 81.416 100.204C83.5226 98.838 84.9175 98.4963 87.8211 98.5817C89.9277 98.6387 90.6679 98.781 92.0912 99.4358ZM225.317 99.0372C227.453 99.7774 229.445 101.315 230.669 103.108C232.178 105.328 232.662 106.809 232.662 109.599C232.69 111.734 232.605 112.246 231.808 113.926C229.559 118.736 224.805 121.327 219.852 120.501C216.066 119.847 213.134 117.569 211.426 113.926C210.628 112.246 210.543 111.734 210.571 109.599C210.571 106.809 211.055 105.328 212.564 103.108C213.76 101.343 215.781 99.8058 217.831 99.0657C219.88 98.3255 223.268 98.3255 225.317 99.0372Z" fill="url(#paint0_linear_353_5204)"/>
<path d="M10.9313 44.9497C9.73566 45.4906 8.82471 46.857 8.82471 48.1096C8.82471 49.1629 9.70719 50.6716 10.6466 51.184C11.4722 51.6395 14.6035 51.668 55.6532 51.668C96.7028 51.668 99.8342 51.6395 100.66 51.184C101.599 50.6716 102.482 49.1629 102.482 48.1096C102.482 46.857 101.571 45.4906 100.375 44.9497C99.2649 44.4373 97.443 44.4088 55.6532 44.4088C13.8634 44.4088 12.0415 44.4373 10.9313 44.9497Z" fill="url(#paint1_linear_353_5204)"/>
<path d="M17.2545 138.298L17.2529 138.299C15.9699 139.457 15.0135 140.741 14.4838 141.893C13.9402 143.076 13.9007 143.99 14.2066 144.52C14.3171 144.711 14.5564 144.922 14.9598 145.113C15.356 145.3 15.8684 145.447 16.4587 145.537C17.6403 145.717 19.0672 145.659 20.359 145.299L20.3603 145.299C20.8963 145.151 21.7921 144.773 24.502 143.315C27.1965 141.865 31.6476 139.369 39.2692 135.02C54.5104 126.322 82.4122 110.224 134.255 80.293C186.097 50.3616 213.989 34.2469 229.142 25.3964C236.72 20.9706 241.107 18.364 243.71 16.7554C246.328 15.1376 247.103 14.5508 247.499 14.1604L247.5 14.1594C248.457 13.2205 249.221 12.0139 249.656 10.9004C249.873 10.3443 250.002 9.82689 250.038 9.39022C250.075 8.94566 250.012 8.63299 249.901 8.44165C249.595 7.91176 248.784 7.48904 247.488 7.36839C246.225 7.25086 244.635 7.43728 242.991 7.96957L242.989 7.9702C241.474 8.4537 239.589 9.32376 224.817 17.7392C210.074 26.1376 182.532 42.0277 129.755 72.4988C76.9774 102.97 49.4451 118.877 34.8006 127.445C20.1265 136.031 18.4306 137.228 17.2545 138.298Z" fill="#FF0000" stroke="black"/>
<path d="M46.2875 57.817C45.405 58.5286 44.6934 59.7812 44.6934 60.6921C44.6934 61.7454 45.6612 63.2542 46.7145 63.8235C47.6255 64.3075 49.2766 64.3359 80.989 64.3359C112.701 64.3359 114.352 64.3075 115.263 63.8235C116.317 63.2542 117.285 61.7454 117.285 60.6921C117.285 59.7812 116.573 58.5286 115.69 57.817L114.922 57.2191H80.989H47.0561L46.2875 57.817Z" fill="url(#paint2_linear_353_5204)"/>
<path d="M28.0402 71.168C26.1899 71.9081 25.3928 74.4986 26.4461 76.2067C27.6417 78.114 25.6205 78.0286 58.3862 77.9432L88.0205 77.8578L88.9884 76.8045C89.7854 75.922 89.9562 75.5235 89.9562 74.5271C89.9278 73.0468 89.4723 72.1643 88.3621 71.4242C87.565 70.9118 86.7395 70.8833 58.0731 70.9118C41.8752 70.9118 28.3534 71.0256 28.0402 71.168Z" fill="url(#paint3_linear_353_5204)"/>
<defs>
<linearGradient id="paint0_linear_353_5204" x1="37.0972" y1="64" x2="276.283" y2="66.5089" gradientUnits="userSpaceOnUse">
<stop stop-color="#F2DA00"/>
<stop offset="0.9999" stop-color="#E29804"/>
<stop offset="1" stop-color="#E29704"/>
</linearGradient>
<linearGradient id="paint1_linear_353_5204" x1="4.11719" y1="47.0192" x2="107.427" y2="53.4657" gradientUnits="userSpaceOnUse">
<stop stop-color="#F2DA00"/>
<stop offset="0.9999" stop-color="#E29804"/>
<stop offset="1" stop-color="#E29704"/>
</linearGradient>
<linearGradient id="paint2_linear_353_5204" x1="41.0447" y1="59.7784" x2="121.234" y2="63.7343" gradientUnits="userSpaceOnUse">
<stop stop-color="#F2DA00"/>
<stop offset="0.9999" stop-color="#E29804"/>
<stop offset="1" stop-color="#E29704"/>
</linearGradient>
<linearGradient id="paint3_linear_353_5204" x1="22.7602" y1="73.4482" x2="93.4742" y2="76.5413" gradientUnits="userSpaceOnUse">
<stop stop-color="#F2DA00"/>
<stop offset="0.9999" stop-color="#E29804"/>
<stop offset="1" stop-color="#E29704"/>
</linearGradient>
</defs>
</svg>
