<svg width="250" height="143" viewBox="0 0 250 143" fill="none" xmlns="http://www.w3.org/2000/svg">
<path d="M64.0366 26.3802C63.2553 26.901 63.0209 27.3698 61.9011 30.599C60.4949 34.6615 60.4688 35.4167 61.6668 36.7448C62.9428 38.1771 65.8595 37.9948 66.6928 36.4062C66.8491 36.1198 67.2397 35.0781 67.5782 34.1406L68.1511 32.4219L120.13 32.3437C148.75 32.3177 172.135 32.3958 172.135 32.5C172.135 33.6719 164.896 59.1927 159.974 75.4427L153.776 95.8333H96.224L95.5209 93.9323C94.1928 90.4167 90.8334 86.8229 87.3699 85.1562C81.1199 82.1875 73.672 83.2812 68.7501 87.9427C66.6407 89.9219 65.3126 91.8229 64.4793 94.0625L63.8543 95.7031L57.7084 95.7812C54.323 95.8073 51.5626 95.7812 51.5626 95.7031C51.5626 95.625 52.7866 91.5364 54.297 86.6667C57.2397 77.1354 57.2657 76.9271 56.0938 75.5208C54.7657 73.9583 52.5261 73.9583 51.2501 75.4948C50.8334 75.9635 49.5313 79.8698 47.1616 87.6042C43.672 98.9323 43.6459 99.0104 44.0366 100.078C44.2449 100.651 44.7397 101.38 45.1303 101.667C45.8334 102.187 46.2501 102.214 54.6095 102.344L63.3334 102.474L63.8282 104.375C64.5574 107.292 65.9636 109.74 68.2293 111.979C75.2345 118.984 86.5886 118.437 92.9688 110.781C94.297 109.193 95.9376 105.833 96.3803 103.828L96.6928 102.344H186.198V102.891C186.198 103.177 186.51 104.323 186.875 105.417C188.568 110.495 192.292 114.245 197.448 116.094C199.115 116.693 199.74 116.771 202.734 116.771C205.729 116.771 206.354 116.693 208.021 116.094C211.771 114.74 215.052 112.135 216.979 108.984C217.943 107.396 219.271 103.854 219.271 102.891C219.271 102.344 219.375 102.344 225.938 102.344C233.099 102.344 233.88 102.214 234.714 100.964C234.896 100.651 236.563 95.2604 238.385 88.9844C241.406 78.5677 241.667 77.5 241.406 76.6927C241.25 76.1979 240.781 75.5208 240.417 75.2083C240.026 74.8698 236.302 72.6562 232.162 70.2604L224.609 65.9115L216.693 52.1615C212.344 44.6094 208.49 38.0208 208.125 37.526C206.927 35.9115 207.135 35.9375 191.927 35.9375C184.349 35.9375 178.125 35.8594 178.125 35.7292C178.125 35.625 178.49 34.2448 178.906 32.6823C179.948 28.8802 179.922 28.125 178.802 26.875L177.917 25.9115L64.922 25.7812L64.0366 26.3802ZM203.854 43.1771C204.141 43.5677 207.708 49.7396 211.849 56.901C215.964 64.0625 219.635 70.2083 220.026 70.5729C220.391 70.9375 223.75 72.9687 227.474 75.1042C231.198 77.2396 234.297 79.0364 234.349 79.0625C234.401 79.1146 233.333 82.8906 232.005 87.4739L229.583 95.8333H224.271C218.984 95.8333 218.958 95.8333 218.802 95.2604C218.724 94.9219 218.177 93.7239 217.604 92.5781C215.573 88.4896 211.302 85.1042 206.771 83.9583C204.583 83.3854 200.885 83.3854 198.698 83.9583C194.167 85.1042 189.87 88.5156 187.839 92.5781C187.266 93.7239 186.745 94.9219 186.667 95.2604L186.51 95.8333H174.219C162.604 95.8333 161.953 95.8073 162.083 95.3646C162.162 95.1302 164.479 86.5885 167.188 76.4323C171.901 58.8802 176.328 43.4896 176.875 42.7865C177.083 42.526 180.182 42.4479 190.26 42.4479H203.359L203.854 43.1771ZM84.2449 90.9635C92.0574 94.5833 92.1615 105.495 84.4272 109.297C82.5782 110.234 82.2918 110.286 80.1043 110.286C76.797 110.26 75.1824 109.583 72.8907 107.318C70.6251 105.026 69.948 103.411 69.922 100.13C69.922 98.0469 70.0261 97.6042 70.7293 96.0937C71.7188 94.0104 72.7605 92.7604 74.4793 91.6667C76.4063 90.4167 77.6824 90.1042 80.3386 90.1823C82.2657 90.2344 82.9428 90.3646 84.2449 90.9635ZM206.12 90.599C208.073 91.276 209.896 92.6823 211.016 94.3229C212.396 96.3542 212.839 97.7083 212.839 100.26C212.865 102.214 212.787 102.682 212.057 104.219C210 108.62 205.651 110.99 201.12 110.234C197.656 109.635 194.974 107.552 193.412 104.219C192.682 102.682 192.604 102.214 192.63 100.26C192.63 97.7083 193.073 96.3542 194.453 94.3229C195.547 92.7083 197.396 91.3021 199.271 90.625C201.146 89.9479 204.245 89.9479 206.12 90.599Z" fill="url(#paint0_linear_534_5753)"/>
<path d="M42.3438 52.8906C41.5366 53.5417 40.8855 54.6875 40.8855 55.5208C40.8855 56.4844 41.7709 57.8646 42.7345 58.3854C43.5678 58.8281 45.0782 58.8542 74.0886 58.8542C103.099 58.8542 104.609 58.8281 105.443 58.3854C106.406 57.8646 107.292 56.4844 107.292 55.5208C107.292 54.6875 106.641 53.5417 105.833 52.8906L105.13 52.3438H43.047L42.3438 52.8906Z" fill="url(#paint1_linear_534_5753)"/>
<path d="M25.6511 65.1042C23.9584 65.7813 23.2293 68.1511 24.1928 69.7136C25.2866 71.4583 23.4376 71.3802 53.4116 71.3021L80.5209 71.224L81.4063 70.2604C82.1355 69.4531 82.2917 69.0886 82.2917 68.1771C82.2657 66.8229 81.849 66.0156 80.8334 65.3386C80.1042 64.8698 79.349 64.8438 53.1251 64.8698C38.3074 64.8698 25.9376 64.974 25.6511 65.1042Z" fill="url(#paint2_linear_534_5753)"/>
<path d="M10.0001 41.1198C8.90633 41.6146 8.073 42.8646 8.073 44.0104C8.073 44.974 8.88029 46.3542 9.73966 46.8229C10.4949 47.2396 13.3595 47.2656 50.9115 47.2656C88.4636 47.2656 91.3282 47.2396 92.0834 46.8229C92.9428 46.3542 93.7501 44.974 93.7501 44.0104C93.7501 42.8646 92.9167 41.6146 91.823 41.1198C90.8074 40.651 89.1407 40.625 50.9115 40.625C12.6824 40.625 11.0157 40.651 10.0001 41.1198Z" fill="url(#paint3_linear_534_5753)"/>
<path d="M15.4766 126.176C13.0548 128.362 11.8109 131.068 12.6001 132.435C13.2638 133.585 16.2536 134.054 18.7471 133.36C20.9416 132.756 28.1949 128.609 123.045 73.8479C217.894 19.0864 225.112 14.878 226.732 13.2796C228.58 11.4671 229.669 8.64325 229.005 7.49373C228.216 6.12673 225.25 5.8507 222.146 6.8554C219.258 7.77724 215.031 10.1766 118.471 65.9256C21.9108 121.674 17.719 124.136 15.4766 126.176Z" fill="#FF0000"/>
<defs>
<linearGradient id="paint0_linear_534_5753" x1="7.92813" y1="71.3543" x2="241.506" y2="71.3543" gradientUnits="userSpaceOnUse">
<stop stop-color="#FF9C9D"/>
<stop offset="1" stop-color="#FF0C0C"/>
</linearGradient>
<linearGradient id="paint1_linear_534_5753" x1="7.92813" y1="71.3543" x2="241.506" y2="71.3543" gradientUnits="userSpaceOnUse">
<stop stop-color="#FF9C9D"/>
<stop offset="1" stop-color="#FF0C0C"/>
</linearGradient>
<linearGradient id="paint2_linear_534_5753" x1="7.92813" y1="71.3543" x2="241.506" y2="71.3543" gradientUnits="userSpaceOnUse">
<stop stop-color="#FF9C9D"/>
<stop offset="1" stop-color="#FF0C0C"/>
</linearGradient>
<linearGradient id="paint3_linear_534_5753" x1="7.92813" y1="71.3543" x2="241.506" y2="71.3543" gradientUnits="userSpaceOnUse">
<stop stop-color="#FF9C9D"/>
<stop offset="1" stop-color="#FF0C0C"/>
</linearGradient>
</defs>
</svg>
