<svg width="160" height="157" viewBox="0 0 160 157" fill="none" xmlns="http://www.w3.org/2000/svg">
<g clip-path="url(#clip0_698_5813)">
<path d="M143.055 86.2004C146.137 84.7397 149.577 82.8459 150.29 79.5105C151.337 74.6091 145.958 70.9773 141.408 68.8755C121.925 59.8771 102.443 50.8786 82.9598 41.88L85.8239 46.8952C94.6356 57.3427 103.866 68.778 104.835 82.4111C105.597 93.1393 100.269 103.818 91.8815 110.455C108.939 102.37 125.997 94.2851 143.055 86.2004Z" fill="#41FFC2"/>
<path d="M91.8828 110.455C87.552 112.508 83.2213 114.56 78.8907 116.613C83.6434 115.605 88.0933 113.496 91.8828 110.455V110.455Z" fill="#41FFC2"/>
<path d="M33.1767 109.917C44.3902 107.28 55.0794 102.799 65.7644 98.5448C64.7519 100.183 63.7514 101.828 62.7906 103.498C62.5691 104.004 57.1776 112.756 58.0549 117.709C58.5848 121.042 62.1206 122.91 65.2789 122.111C69.382 120.79 68.5279 120.745 71.8148 119.152C76.9926 116.418 82.3408 114.029 87.6581 111.583C105.412 103.415 123.377 95.7249 140.974 87.2171C144.75 85.4402 148.546 83.6876 152.172 81.6162C153.928 80.4986 155.971 79.5991 157.187 77.8457C160.289 72.6068 154.35 69.8788 150.672 67.5235C139.948 60.7038 128.826 54.4913 117.119 49.5158C106.369 44.7564 95.2124 40.9722 83.7849 38.2088C76.0501 36.3511 68.8595 34.6837 63.3748 35.0214C60.6363 35.0779 57.8403 35.1937 55.2847 36.2791C52.7892 37.2525 51.0539 40.1999 52.9071 42.5629C56.093 45.3613 70.2872 59.2727 80.1142 68.2343C73.7761 59.6428 65.6718 49.7843 60.2813 42.2613C63.06 42.3115 66.222 42.9672 68.5079 43.3256C74.5508 44.8607 92.1151 49.3015 101.732 52.74C117.959 58.7389 129.151 64.0277 142.915 72.4073C144.392 73.3302 145.902 74.2103 147.394 75.116C138.254 80.0399 128.682 84.1503 119.356 88.7098C102.507 96.1781 85.6238 103.573 68.9342 111.396C69.0557 111.163 69.1771 110.932 69.296 110.707C71.6335 106.593 74.1665 102.595 76.7058 98.6032C77.7435 96.9102 78.7471 95.0891 78.863 93.0675C79.0666 90.3659 77.2015 87.6493 74.449 87.2624C72.8547 86.9413 71.2026 87.0692 69.6767 87.6317C67.8926 88.2085 68.6937 87.8133 65.3326 89.2122C60.7249 91.1684 56.1792 93.2779 51.5101 95.0904C46.231 97.1587 40.8643 99.0019 35.4648 100.73C34.5065 101.009 32.3195 101.627 31.6376 101.66C31.4662 101.68 31.294 101.692 31.1224 101.71C30.8638 101.701 30.6058 101.679 30.3496 101.642C30.1895 101.592 30.0539 101.546 29.9656 101.515C27.1955 99.8209 24.4548 95.6617 21.3692 91.1582C19.8392 89.0422 18.3318 86.2983 15.7308 81.9289C15.3899 81.2887 15.0785 80.6326 14.7905 79.9665C17.8997 77.8984 27.6182 74.8687 33.5515 72.9018C39.4903 71.0091 54.4219 66.5371 65.5815 64.4114C66.7168 64.1703 67.8524 63.9273 68.9883 63.6925C67.4512 63.6228 65.913 63.5776 64.3748 63.5323C48.0314 63.2298 31.7432 65.5182 16.1158 70.3123C11.0523 71.8299 5.11658 74.9287 6.25882 81.1679C7.0062 84.1754 8.81272 86.7437 10.4355 89.3353C10.5345 89.5246 10.647 89.7064 10.7723 89.8793C12.9537 93.3408 15.0937 96.8354 17.4842 100.158C21.2592 105.244 26.069 111.311 33.1767 109.917Z" fill="#565656"/>
</g>
<defs>
<clipPath id="clip0_698_5813">
<rect width="125" height="98.5423" fill="white" transform="translate(160 75.7812) rotate(140)"/>
</clipPath>
</defs>
</svg>
