<svg width="225" height="150" viewBox="0 0 225 150" fill="none" xmlns="http://www.w3.org/2000/svg">
<path d="M39.1238 20.7248C38.3187 21.3552 38.0771 21.9225 36.9231 25.8304C35.4738 30.747 35.4469 31.6609 36.6815 33.2683C37.9966 35.0017 41.0025 34.781 41.8614 32.8586C42.0224 32.5118 42.425 31.2513 42.7738 30.1166L43.3643 28.0366L96.934 27.942C126.429 27.9105 150.531 28.005 150.531 28.1311C150.531 29.5493 143.069 60.435 137.997 80.1011L131.61 104.778H72.2961L71.5711 102.478C70.2031 98.2229 66.7406 93.8737 63.1711 91.8566C56.7299 88.2638 49.0541 89.5875 43.9816 95.2289C41.8077 97.6241 40.4389 99.9245 39.5801 102.635L38.9359 104.621L32.6021 104.715C29.1131 104.747 26.2681 104.715 26.2681 104.621C26.2681 104.526 27.5296 99.578 29.0862 93.6846C32.119 82.1497 32.1458 81.8976 30.9381 80.1956C29.5693 78.3047 27.2612 78.3047 25.9461 80.1642C25.5167 80.7315 24.1748 85.4589 21.7325 94.8191C18.1361 108.529 18.1093 108.623 18.5118 109.915C18.7266 110.609 19.2365 111.492 19.6391 111.838C20.3637 112.468 20.7931 112.5 29.4083 112.657L38.3992 112.815L38.9092 115.115C39.6606 118.646 41.1099 121.608 43.4448 124.318C50.6644 132.796 62.366 132.135 68.9417 122.868C70.3106 120.946 72.001 116.881 72.4573 114.454L72.7798 112.657H165.023V113.319C165.023 113.666 165.346 115.052 165.721 116.376C167.466 122.522 171.303 127.06 176.618 129.298C178.335 130.022 178.979 130.117 182.066 130.117C185.152 130.117 185.797 130.022 187.514 129.298C191.379 127.659 194.761 124.508 196.746 120.694C197.74 118.772 199.108 114.485 199.108 113.319C199.108 112.657 199.215 112.657 205.979 112.657C213.359 112.657 214.164 112.5 215.023 110.987C215.212 110.609 216.929 104.085 218.808 96.4895C221.921 83.8831 222.189 82.5908 221.921 81.6139C221.76 81.0151 221.277 80.1956 220.901 79.8174C220.499 79.4078 216.661 76.729 212.394 73.8295L204.61 68.5663L196.451 51.9258C191.969 42.7861 187.997 34.8125 187.621 34.2138C186.387 32.2597 186.602 32.2913 170.928 32.2913C163.118 32.2913 156.703 32.1967 156.703 32.0391C156.703 31.9131 157.079 30.2427 157.508 28.3518C158.582 23.7504 158.556 22.8364 157.401 21.3237L156.489 20.1575L40.0364 20L39.1238 20.7248ZM183.22 41.0527C183.515 41.5255 187.192 48.9948 191.459 57.6616C195.7 66.3286 199.484 73.7663 199.887 74.2076C200.262 74.6488 203.725 77.1071 207.563 79.6914C211.4 82.2758 214.594 84.4503 214.648 84.4819C214.702 84.5449 213.601 89.1147 212.232 94.6616L209.736 104.778H204.261C198.813 104.778 198.786 104.778 198.625 104.085C198.545 103.675 197.981 102.225 197.39 100.839C195.297 95.8907 190.895 91.7936 186.226 90.4069C183.971 89.7135 180.161 89.7135 177.905 90.4069C173.236 91.7936 168.807 95.9222 166.714 100.839C166.123 102.225 165.587 103.675 165.507 104.085L165.346 104.778H152.677C140.708 104.778 140.036 104.747 140.171 104.211C140.251 103.928 142.64 93.59 145.431 81.2987C150.289 60.0569 154.851 41.431 155.415 40.5799C155.63 40.2649 158.823 40.1703 169.21 40.1703H182.71L183.22 41.0527ZM59.9505 98.8847C68.0017 103.266 68.1092 116.47 60.1384 121.072C58.2328 122.206 57.9376 122.269 55.6831 122.269C52.2747 122.238 50.6107 121.419 48.2489 118.677C45.914 115.903 45.2162 113.949 45.1894 109.978C45.1894 107.457 45.2967 106.921 46.0214 105.094C47.0412 102.572 48.1147 101.059 49.886 99.7352C51.8721 98.2229 53.1872 97.8446 55.9247 97.9392C57.9108 98.0023 58.6086 98.1598 59.9505 98.8847ZM185.554 98.4434C187.568 99.2629 189.446 100.965 190.6 102.95C192.023 105.408 192.479 107.048 192.479 110.136C192.506 112.5 192.425 113.067 191.674 114.927C189.554 120.252 185.072 123.121 180.402 122.206C176.833 121.482 174.068 118.96 172.458 114.927C171.706 113.067 171.625 112.5 171.652 110.136C171.652 107.048 172.108 105.408 173.531 102.95C174.658 100.996 176.564 99.2944 178.497 98.475C180.428 97.6555 183.623 97.6555 185.554 98.4434Z" fill="#F2DA00"/>
<path d="M3.98607 38.563C2.85883 39.1618 2 40.6746 2 42.0614C2 43.2275 2.83199 44.8977 3.71766 45.465C4.49602 45.9693 7.44818 46.0009 25.5972 46.0009C64.2983 46.0009 67.2505 45.9693 68.0291 45.465C68.9143 44.8977 69.7468 43.2275 69.7468 42.0614C69.7468 40.6746 68.8879 39.1618 67.7604 38.563C66.7138 37.9957 64.9961 37.9642 25.5972 37.9642C6.75042 37.9642 5.03275 37.9957 3.98607 38.563Z" fill="#F2DA00"/>
<path d="M27.1001 53.4699C26.2681 54.2579 25.5972 55.6445 25.5972 56.6531C25.5972 57.8192 26.5096 59.4895 27.5026 60.1199C28.3615 60.6556 29.9181 60.6871 43.1688 60.6871C73.0665 60.6871 74.623 60.6556 75.4819 60.1199C76.4756 59.4895 77.3882 57.8192 77.3882 56.6531C77.3882 55.6445 76.7169 54.2579 75.8844 53.4699L75.1604 52.8081H27.8247L27.1001 53.4699Z" fill="#F2DA00"/>
<path d="M14.148 67.5894C12.4035 68.4087 11.6521 71.2767 12.6451 73.1678C13.7723 75.2793 11.8667 75.1848 28.1738 75.0902L56.1127 74.9957L57.0252 73.8296C57.7766 72.8525 57.9376 72.4114 57.9376 71.3083C57.9109 69.6694 57.4814 68.6924 56.4347 67.873C55.6832 67.3057 54.905 67.2742 27.8786 67.3057C27.1915 67.3057 14.4433 67.4317 14.148 67.5894Z" fill="#F2DA00"/>
</svg>
