<svg width="35" height="35" viewBox="0 0 35 35" fill="none" xmlns="http://www.w3.org/2000/svg">
<path d="M21.6231 8.97826H24.6666C25.0026 8.97826 25.2753 8.70556 25.2753 8.36957V4.26878C25.2753 3.94983 25.03 3.68443 24.7123 3.66191C23.7438 3.59313 21.852 3.5 20.4916 3.5C16.7536 3.5 14.3188 5.74 14.3188 9.81096V13.8478H10.0579C9.72191 13.8478 9.44922 14.1205 9.44922 14.4565V18.7174C9.44922 19.0534 9.72191 19.3261 10.0579 19.3261H14.3188V30.8913C14.3188 31.2273 14.5915 31.5 14.9275 31.5H19.1883C19.5243 31.5 19.797 31.2273 19.797 30.8913V19.3261H24.193C24.5035 19.3261 24.764 19.093 24.7981 18.7843L25.2717 14.5235C25.3118 14.1631 25.0294 13.8478 24.6666 13.8478H19.797V10.8043C19.797 9.79574 20.6145 8.97826 21.6231 8.97826Z" fill="#41FFC2"/>
</svg>
