<svg width="196" height="202" viewBox="0 0 196 202" fill="none" xmlns="http://www.w3.org/2000/svg">
<g clip-path="url(#clip0_698_5807)">
<path d="M59.0918 37.2207C49.9822 70.6657 40.8726 104.111 32.1928 136.518C49.685 143.767 67.1771 151.016 86.5984 157.584C76.175 143.165 65.7515 128.746 53.9435 116.407C56.6088 90.913 59.2739 65.419 59.0918 37.2207Z" fill="#41FFC2"/>
<path d="M169.109 121.355C171.959 109.47 174.466 97.5064 177.364 85.6327C179.189 77.0994 181.753 68.5639 181.988 59.7971C180.984 40.7716 154.504 37.6316 143.778 34.945C113.659 29.0654 82.9304 27.4347 52.3392 26.0128C47.1215 25.6997 55.061 26.8049 56.9095 27.2849C73.864 31.0434 101.483 35.8143 114.798 38.8126C124.737 41.0195 139.172 43.9794 152.076 48.0155C162.296 51.7261 165.433 52.5083 169.667 57.9787C169.74 58.1338 169.801 58.2934 169.863 58.4534C169.97 58.8625 170.051 59.2776 170.108 59.6965C170.105 60.5219 170.069 61.3462 169.999 62.1694C167.816 77.6417 166.851 78.6015 163.786 93.2637C159.681 111.697 157.593 125.747 150.092 145.109C143.562 161.112 132.983 182.981 127.23 184.671C117.733 183.005 85.7127 169.775 67.4259 163.001C50.6694 156.331 26.3394 147.312 18.5982 140.988C17.8558 140.295 17.1854 139.528 16.5971 138.701C16.5553 138.619 16.5246 138.533 16.4863 138.45C16.0263 136.283 20.822 122.793 23.791 113.827C33.7227 83.7617 41.9811 53.1694 49.5793 22.4403C39.0552 49.1598 28.6148 75.9118 18.2582 102.696C15.2632 110.371 12.2085 118.022 9.24864 125.711C7.55394 130.198 5.81313 134.935 6.16581 139.803C7.84001 153.708 40.1041 162.194 51.7183 167.88C74.8749 177.058 98.0117 186.331 121.562 194.458C136.777 199.361 144.527 181.106 150.377 170.335C158.43 154.764 165.117 138.457 169.109 121.355Z" fill="#565656"/>
<path d="M134.936 85.1449C122.353 77.7758 108.848 72.1934 94.8944 68.0078C83.4122 64.0164 71.6876 60.7807 59.6015 59.2823C71.6305 63.4634 83.144 68.9073 95.0296 73.4407C103.009 76.2419 111.244 78.227 119.316 80.733C124.799 82.4083 130.294 84.0455 135.8 85.6446C135.512 85.4783 135.224 85.3118 134.936 85.1449Z" fill="#565656"/>
<path d="M87.7889 91.0117C79.1756 88.5451 70.9173 87.1609 62.5711 85.096C83.3002 95.5279 112.225 105.042 131.175 110.155C117.639 101.854 103.045 95.415 87.7889 91.0117V91.0117Z" fill="#565656"/>
<path d="M89.5137 125.06C77.8303 121.829 65.7714 120.313 53.9397 117.752C76.8564 128.737 101.929 133.944 126.073 141.482C114.776 134.212 102.452 128.676 89.5137 125.06V125.06Z" fill="#565656"/>
</g>
<defs>
<clipPath id="clip0_698_5807">
<rect width="150" height="159.562" fill="white" transform="translate(54.8105 0.482422) rotate(20)"/>
</clipPath>
</defs>
</svg>
