<svg width="836" height="945" viewBox="0 0 836 945" fill="none" xmlns="http://www.w3.org/2000/svg">
<g clip-path="url(#clip0_698_5861)">
<path d="M625.88 466.202C625.83 463.447 625.161 460.74 623.921 458.28C622.682 455.82 620.904 453.67 618.72 451.991C613.429 447.878 606.285 447.008 600.023 444.927C586.831 441.526 573.391 439.114 560.041 436.411C539.536 432.704 518.663 432.028 498.007 429.507C474.596 426.56 411.889 417.359 372.707 407.134C346.18 401.379 319.536 396.158 293.179 389.64C276.464 386.031 259.8 382.232 244.026 375.473C256.63 384.007 270.084 391.213 284.172 396.974C301.84 405.173 319.556 413.26 337.624 420.546C341.066 421.942 344.461 423.338 347.839 424.731C320.013 418.58 292.432 411.367 264.454 405.864C270.66 409.21 276.974 412.362 283.325 415.426C302.842 424.523 321.693 435.032 341.57 443.35C373.399 456.143 405.501 468.474 438.143 479.042C472.284 490.034 507.316 498.039 542.842 502.967C560.002 504.786 577.853 510.19 594.867 505.042C605.981 501.71 611.586 491.152 617.916 482.25C618.426 481.634 618.908 480.995 619.456 480.412C621.436 478.604 623.026 476.411 624.131 473.968C625.235 471.525 625.831 468.882 625.88 466.202V466.202Z" fill="#41FFC2"/>
<path d="M228.037 164.367L86.9423 671.512C77.6938 704.755 98.7721 743.434 131.721 753.68C241.148 787.712 350.576 821.744 460.004 855.776C467.793 858.198 476.206 857.634 483.601 854.193C490.997 850.752 496.847 844.68 500.011 837.161C503.175 829.643 503.426 821.215 500.716 813.522C498.005 805.828 492.528 799.419 485.35 795.543C424.832 762.867 363.153 729.306 316.299 678.959C269.444 628.612 239.211 557.576 254.835 490.598C280.275 381.539 268.873 264.226 228.037 164.367Z" fill="#41FFC2"/>
<path d="M796.61 306.814C802.84 282.635 809.986 258.707 816.551 234.619C819.872 220.779 825.73 206.675 823.964 192.265C820.508 177.728 803.893 173.04 791.95 167.212C772.526 159.285 765.153 155.573 749.152 149.909C670.519 120.645 588.437 102.975 507.255 82.5305C445.951 66.9105 384.849 48.2471 321.41 43.8562C262.756 40.5174 244.839 56.7013 220.7 108.438C217.596 115.09 214.75 121.864 212.118 128.715C214.841 124.249 217.621 119.816 220.517 115.459C222.758 112.02 225.312 108.331 227.87 104.757C214.402 129.002 200.795 153.207 189.49 178.554C167.555 226.713 149.973 276.699 133.433 326.924C109.059 400.492 82.9756 473.536 61.1752 547.927C48.7271 591.87 39.1074 636.542 28.5926 680.971C24.2861 701.092 19.162 721.059 15.5773 741.326C5.49709 781.554 53.1637 787.036 81.3835 794.409C112.231 801.262 143.478 806.224 174.203 813.656C198.528 819.367 222.322 827.072 246.483 833.412C278.697 842.211 311.539 848.433 343.903 856.615C381.657 867.194 420.05 875.46 457.559 886.884C482.329 894.997 506.454 904.934 530.726 914.398C543.591 918.951 555.903 925.692 569.401 928.111C584.908 931.311 597.389 919.115 605.728 907.51C619.103 890.846 625.186 869.792 632.004 849.87C642.174 818.4 649.745 786.135 660.757 754.929C674.69 714.016 691.618 674.207 706.027 633.466C721.333 589.7 733.918 545.044 746.457 500.423C764.777 436.308 779.208 371.176 796.61 306.814ZM690.378 617.41C675.002 662.147 656.087 705.574 640.751 750.324C626.621 790.524 614.552 846.411 601.031 876.791C591.076 899.92 576.481 911.024 572.834 908.547C559.271 905.332 546.731 898.681 533.679 893.873C503.575 881.996 473.586 869.479 442.267 861.115C408.103 852.305 373.957 843.425 339.831 834.473C315.639 828.756 291.308 823.623 267.188 817.607C233.517 809.26 200.584 798.13 166.653 790.821C125.449 780.852 45.5399 771.087 35.7675 754.903C35.6961 754.668 35.6195 754.435 35.5643 754.195C35.5348 751.491 35.727 748.788 36.1392 746.115C38.1235 736.821 46.483 698.608 51.2573 679.101C61.9263 635.779 71.4762 592.146 84.2483 549.374C107.266 471.68 133.735 395.078 158.59 317.967C172.362 274.135 184.553 229.813 199.027 186.2C208.324 157.304 219.842 129.208 230.683 100.872C234.111 96.1973 237.34 91.9883 239.601 89.1739C246.084 80.6573 253.916 73.258 262.787 67.2687C281.04 57.7924 304.165 62.0621 319.134 63.9208C363.226 71.9027 406.846 82.414 450.278 93.3868C537.838 116.549 627.249 132.657 713.403 160.974C733.075 167.192 752.502 174.168 771.704 181.708C786.554 188.056 789.897 188.07 803.727 196.679C803.779 196.731 803.839 196.774 803.891 196.826C804.019 198.338 803.998 199.86 803.828 201.368L803.873 201.019C802.76 208.271 801.023 215.409 799.3 222.535C782.629 283.722 766.428 345.034 751.213 406.605C733.328 477.516 713.413 547.993 690.378 617.41V617.41Z" fill="#565656"/>
<path d="M387.163 212.715C385.041 199.627 377.518 186.876 365.985 180.016C361.69 177.817 357.168 176.095 352.499 174.882C357.496 177.412 362.053 180.732 365.994 184.712C369.943 189.189 372.925 194.432 374.755 200.113C376.585 205.795 377.222 211.793 376.627 217.732C373.804 233.047 366.881 244.304 354.129 254.732C335.715 271.076 308.668 277.417 294.578 270.55C277.085 262.079 270.952 239.304 275.404 217.363C278.328 200.693 285.59 185.454 299.089 173.838C310.558 164.93 325.089 162.097 338.555 157.518C318.188 159.137 295.631 160.747 280.964 176.857C263.85 194.58 253.144 219.927 255.178 244.707C258.227 279.344 285.767 302.236 320.491 294.442C345.665 289.476 367.72 270.904 380.036 248.78C385.277 237.626 389.062 225.123 387.163 212.715Z" fill="#565656"/>
<path d="M613.953 247.252C571.565 234.651 528.173 225.717 484.254 220.548C519.461 235.148 555.287 249.058 592.557 257.399C620.391 263.353 648.893 264.571 677.089 267.888C663.423 260.509 633.596 253.001 613.953 247.252Z" fill="#565656"/>
<path d="M669.862 328.273C627.732 306.483 580.308 299.682 533.878 293.316C510.954 289.902 488.494 284.063 465.776 279.564C490.654 292.133 516.026 304.227 543.285 310.647C582.335 320.264 618.106 320.982 650.993 326.85C659.639 328.314 668.236 330.053 676.81 331.893C674.51 330.66 672.196 329.443 669.862 328.273Z" fill="#565656"/>
<path d="M592.511 363.458C543.055 345.234 489.99 341.568 438.682 330.943C463.502 342.668 489.326 352.135 515.843 359.23C554.446 369.164 594.064 374.273 633.177 381.7C634.785 382.012 636.394 382.334 638.001 382.649C623.299 375.209 608.099 368.797 592.511 363.458V363.458Z" fill="#565656"/>
<path d="M593.766 484.67C541.175 464.946 486.197 452.939 431.726 439.728C359.878 421.619 287.721 404.708 216.057 385.901C278.12 417.605 343.606 443.216 411.343 459.834C471.286 473.262 532.691 478.1 593.135 488.685C599.621 489.723 606.093 490.862 612.557 492.019C606.35 489.426 600.087 486.977 593.766 484.67Z" fill="#565656"/>
<path d="M548.543 571.402C503.171 552.504 455.963 538.234 408.712 524.861C341.961 507.008 273.038 499.449 205.658 484.397C312.695 532.158 429.731 548.727 543.856 571.264C547.14 571.734 556.569 574.564 548.543 571.402Z" fill="#565656"/>
<path d="M536.305 710.116C515.304 698.752 494.277 687.312 472.215 678.113C450.101 668.879 427.291 661.433 404.776 653.255C372.49 642.009 340.112 630.864 306.993 622.296C264.536 612.028 221.931 602.381 180.158 589.511C218.036 611.156 252.601 625.974 292.463 640.263C320.49 650.373 348.103 661.719 376.707 670.149C406.162 679.138 436.219 685.849 466.195 692.81C488.012 698.169 509.595 704.427 531.378 709.921C534.725 710.528 544.352 714.088 536.305 710.116Z" fill="#565656"/>
<path d="M347.379 221.762C347.279 219.079 347.027 216.403 346.716 213.737C345.512 217.921 344.09 222.039 342.454 226.074C337.139 237.012 330.78 244.945 318.67 246.67C311.699 247.146 310.465 247.395 304.135 243.539C302.418 241.866 301.159 236.848 300.752 234.32C299.937 221.26 302.439 210.006 306.608 197.339C309.026 191.681 310.864 183.013 318.125 182.342C313.529 181.097 309.756 184.095 306.818 187.313C301.582 193.049 297.205 199.514 293.824 206.506C280.428 230.784 280.858 266.267 317.104 262.61C336.651 260.268 348.866 240.487 347.379 221.762Z" fill="#41FFC2"/>
</g>
<defs>
<clipPath id="clip0_698_5861">
<rect width="650" height="803.157" fill="white" transform="translate(207.873) rotate(15)"/>
</clipPath>
</defs>
</svg>
