<svg width="65" height="65" viewBox="0 0 65 65" fill="none" xmlns="http://www.w3.org/2000/svg">
<path d="M32.4994 5.41699C22.0181 5.41699 13.541 13.8941 13.541 24.3753C13.541 29.0878 14.8952 33.5024 17.3598 37.4837C19.9327 41.6545 23.3181 45.2295 25.9181 49.4003C27.191 51.4316 28.1119 53.3274 29.0869 55.5212C29.791 57.0107 30.3598 59.5837 32.4994 59.5837C34.6389 59.5837 35.2077 57.0107 35.8848 55.5212C36.8869 53.3274 37.7806 51.4316 39.0535 49.4003C41.6535 45.2566 45.0389 41.6816 47.6119 37.4837C50.1035 33.5024 51.4577 29.0878 51.4577 24.3753C51.4577 13.8941 42.9806 5.41699 32.4994 5.41699ZM32.4994 31.8232C28.7619 31.8232 25.7285 28.7899 25.7285 25.0524C25.7285 21.3149 28.7619 18.2816 32.4994 18.2816C36.2369 18.2816 39.2702 21.3149 39.2702 25.0524C39.2702 28.7899 36.2369 31.8232 32.4994 31.8232Z" fill="#41FFC2"/>
</svg>
