<svg width="225" height="225" viewBox="0 0 225 225" fill="none" xmlns="http://www.w3.org/2000/svg">
<path d="M161.663 112.5C176.878 112.5 189.116 99.54 189.116 83.5714C189.116 67.6029 176.878 54.6429 161.663 54.6429C146.449 54.6429 134.101 67.6029 134.101 83.5714C134.101 99.54 146.449 112.5 161.663 112.5ZM78.9758 100.929C97.2773 100.929 111.941 85.4229 111.941 66.2143C111.941 47.0057 97.2773 31.5 78.9758 31.5C60.6743 31.5 45.9008 47.0057 45.9008 66.2143C45.9008 85.4229 60.6743 100.929 78.9758 100.929ZM161.663 135.643C141.488 135.643 101.026 146.289 101.026 167.464V193.5H222.301V167.464C222.301 146.289 181.839 135.643 161.663 135.643ZM78.9758 124.071C53.2875 124.071 1.80078 137.61 1.80078 164.571V193.5H78.9758V167.464C78.9758 157.629 82.614 140.387 105.105 127.311C95.5133 125.229 86.2523 124.071 78.9758 124.071Z" fill="#41FFC2"/>
</svg>
