<svg width="128" height="128" viewBox="0 0 128 128" fill="none" xmlns="http://www.w3.org/2000/svg">
<path d="M58.8749 12.3241L57.3749 16.6241L55.2499 16.7991C54.0749 16.8991 51.9999 17.0741 50.6249 17.1741L48.1249 17.3741L51.7749 20.1741L55.4499 22.9741L54.3499 27.2991C53.7499 29.6741 53.2499 31.6991 53.2499 31.8241C53.2499 31.9241 54.2249 31.3241 55.4499 30.4741C56.6499 29.6241 58.3749 28.4491 59.2749 27.8241L60.9249 26.7241L64.6999 29.0991C66.7749 30.4241 68.5249 31.4991 68.5999 31.4991C68.6499 31.4991 68.4249 30.5741 68.0749 29.4241C67.7249 28.2991 67.1249 26.3241 66.7499 25.0741L66.0499 22.7491L69.5749 19.8241L73.0999 16.8741L68.6999 16.7491C66.2499 16.6741 64.1749 16.5241 64.0499 16.3741C63.8999 16.2241 63.0999 14.3741 62.2499 12.2491C61.3749 10.1241 60.5999 8.29913 60.5249 8.19913C60.4499 8.09913 59.6999 9.97413 58.8749 12.3241Z" fill="url(#paint0_linear_447_5217)"/>
<path d="M35.1749 11.1491C24.8249 12.7491 15.6249 20.5991 12.2749 30.6241C7.62493 44.6491 13.8749 59.6991 27.1249 66.3241C30.4499 67.9741 36.2999 69.4241 38.8499 69.1991L39.8249 69.1241L38.3499 68.1241C37.5499 67.5741 35.6749 65.9491 34.2249 64.4991C29.1499 59.4741 26.0249 53.5491 24.5749 46.3491C23.9749 43.2991 23.9749 36.7241 24.5749 33.6741C26.3999 24.5241 31.7249 16.3491 39.2499 11.1991L39.8749 10.7741H38.6249C37.9499 10.7991 36.3999 10.9491 35.1749 11.1491Z" fill="url(#paint1_linear_447_5217)"/>
<path d="M60.1249 60.2491L18.6249 101.749L22.4499 105.549L26.2499 109.374L109.375 26.2491L105.625 22.4991C103.575 20.4491 101.825 18.7491 101.75 18.7491C101.675 18.7491 82.9499 37.4241 60.1249 60.2491Z" fill="url(#paint2_linear_447_5217)"/>
<path d="M43.4999 35.6991C42.9249 37.4491 42.3499 38.9491 42.2749 39.0491C42.1749 39.1491 40.5999 39.3491 38.7749 39.4991C36.9249 39.6241 35.3749 39.7741 35.3499 39.8241C35.2999 39.8741 36.4999 40.8491 37.9999 41.9991C39.5249 43.1241 40.7499 44.1991 40.7499 44.3491C40.7499 44.4991 40.3749 46.0491 39.8999 47.7991C39.4249 49.5741 39.0999 50.9991 39.1749 50.9991C39.2249 50.9991 40.5749 50.0991 42.1499 48.9991L44.9999 47.0241L47.9249 48.8741C49.5499 49.8991 50.8999 50.6741 50.9249 50.5491C50.9749 50.4491 50.5499 48.9241 49.9999 47.1241C49.4499 45.3491 49.0999 43.8241 49.1999 43.7491C49.3249 43.6741 50.5749 42.6741 51.9749 41.4991L54.5749 39.3741L47.4249 39.1241L46.0749 35.8991C45.3499 34.0991 44.6999 32.6241 44.6749 32.5741C44.6249 32.5491 44.0999 33.9491 43.4999 35.6991Z" fill="url(#paint3_linear_447_5217)"/>
<path d="M102.675 55.4241C103.55 57.5991 104.925 60.9241 105.7 62.8241C106.475 64.6991 107.175 66.1741 107.275 66.0741C108.1 65.2241 118.7 52.8741 118.65 52.8241C118.6 52.7491 101.875 51.4991 101.225 51.4991C101.125 51.4991 101.775 53.2741 102.675 55.4241Z" fill="url(#paint4_linear_447_5217)"/>
<path d="M54.6999 95.6741L55.8499 96.4991C57.7999 97.8241 62.0499 99.7241 64.6749 100.424C66.8999 101.024 67.5499 101.099 71.8749 101.099C76.0249 101.124 76.9249 101.049 78.8499 100.549C88.0749 98.2241 95.2999 92.0741 98.9999 83.4241C100.5 79.8741 101.025 77.4491 101.175 73.1241C101.325 68.8991 100.975 66.2741 99.8499 62.8741C99.1499 60.7491 97.0749 56.5241 96.1749 55.4241L95.6249 54.7241L54.6999 95.6741Z" fill="url(#paint5_linear_447_5217)"/>
<path d="M104.075 85.2991C102.4 89.3241 101.05 92.6491 101.075 92.6741C101.15 92.7241 118.325 91.5241 118.55 91.4241C118.675 91.3991 108.475 79.3991 107.275 78.1741C107.175 78.0741 105.725 81.2741 104.075 85.2991Z" fill="url(#paint6_linear_447_5217)"/>
<path d="M51.4999 101.574C51.4749 103.249 52.5999 118.149 52.7749 118.349C52.9249 118.524 65.4499 107.949 65.8499 107.274C65.9249 107.149 63.8749 106.174 61.2999 105.124C58.7249 104.049 55.4749 102.699 54.0749 102.099C51.5749 101.074 51.4999 101.049 51.4999 101.574Z" fill="url(#paint7_linear_447_5217)"/>
<path d="M85.7499 103.849C82.0999 105.374 78.8499 106.749 78.5249 106.899C77.9749 107.124 78.3249 107.499 84.5999 112.974C88.2749 116.174 91.3249 118.749 91.3499 118.699C91.4999 118.549 92.6249 100.999 92.4999 101.024C92.4249 101.049 89.3999 102.299 85.7499 103.849Z" fill="url(#paint8_linear_447_5217)"/>
<defs>
<linearGradient id="paint0_linear_447_5217" x1="11" y1="63" x2="119" y2="63" gradientUnits="userSpaceOnUse">
<stop stop-color="#00B3EC"/>
<stop offset="1" stop-color="#007FC7"/>
</linearGradient>
<linearGradient id="paint1_linear_447_5217" x1="11" y1="63" x2="119" y2="63" gradientUnits="userSpaceOnUse">
<stop stop-color="#00B3EC"/>
<stop offset="1" stop-color="#007FC7"/>
</linearGradient>
<linearGradient id="paint2_linear_447_5217" x1="11" y1="63" x2="119" y2="63" gradientUnits="userSpaceOnUse">
<stop stop-color="#00B3EC"/>
<stop offset="1" stop-color="#007FC7"/>
</linearGradient>
<linearGradient id="paint3_linear_447_5217" x1="11" y1="63" x2="119" y2="63" gradientUnits="userSpaceOnUse">
<stop stop-color="#00B3EC"/>
<stop offset="1" stop-color="#007FC7"/>
</linearGradient>
<linearGradient id="paint4_linear_447_5217" x1="11" y1="63" x2="119" y2="63" gradientUnits="userSpaceOnUse">
<stop stop-color="#00B3EC"/>
<stop offset="1" stop-color="#007FC7"/>
</linearGradient>
<linearGradient id="paint5_linear_447_5217" x1="11" y1="63" x2="119" y2="63" gradientUnits="userSpaceOnUse">
<stop stop-color="#00B3EC"/>
<stop offset="1" stop-color="#007FC7"/>
</linearGradient>
<linearGradient id="paint6_linear_447_5217" x1="11" y1="63" x2="119" y2="63" gradientUnits="userSpaceOnUse">
<stop stop-color="#00B3EC"/>
<stop offset="1" stop-color="#007FC7"/>
</linearGradient>
<linearGradient id="paint7_linear_447_5217" x1="11" y1="63" x2="119" y2="63" gradientUnits="userSpaceOnUse">
<stop stop-color="#00B3EC"/>
<stop offset="1" stop-color="#007FC7"/>
</linearGradient>
<linearGradient id="paint8_linear_447_5217" x1="11" y1="63" x2="119" y2="63" gradientUnits="userSpaceOnUse">
<stop stop-color="#00B3EC"/>
<stop offset="1" stop-color="#007FC7"/>
</linearGradient>
</defs>
</svg>
