<svg width="65" height="65" viewBox="0 0 65 65" fill="none" xmlns="http://www.w3.org/2000/svg">
<path d="M24.375 29.792H18.9583V35.2087H24.375V29.792ZM35.2083 29.792H29.7917V35.2087H35.2083V29.792ZM46.0417 29.792H40.625V35.2087H46.0417V29.792ZM51.4583 10.8337H48.75V5.41699H43.3333V10.8337H21.6667V5.41699H16.25V10.8337H13.5417C10.5354 10.8337 8.15208 13.2712 8.15208 16.2503L8.125 54.167C8.125 57.1462 10.5354 59.5837 13.5417 59.5837H51.4583C54.4375 59.5837 56.875 57.1462 56.875 54.167V16.2503C56.875 13.2712 54.4375 10.8337 51.4583 10.8337ZM51.4583 54.167H13.5417V24.3753H51.4583V54.167Z" fill="#EEEEEE"/>
</svg>
