<svg width="65" height="68" viewBox="0 0 65 68" fill="none" xmlns="http://www.w3.org/2000/svg">
<path d="M64.9998 18.5C64.9998 14.3579 61.6419 11 57.4998 11H42.6992V40.1845L43.5483 40.1892C44.6572 40.1954 45.5594 39.2982 45.5594 38.1892V15.5893H52.6732C56.8154 15.5893 60.1732 18.9472 60.1732 23.0893V43.7345C60.1732 47.8766 56.8154 51.2345 52.6732 51.2345H42.6992V55.5564H57.4998C61.642 55.5564 64.9998 52.1986 64.9998 48.0564V18.5Z" fill="url(#paint0_linear_708_5978)"/>
<path d="M20.4434 18.5C20.4434 14.3579 23.8012 11 27.9434 11H42.7439V40.1845L41.8949 40.1892C40.786 40.1954 39.8837 39.2982 39.8837 38.1892V15.5893H32.7699C28.6278 15.5893 25.2699 18.9472 25.2699 23.0893V43.7345C25.2699 47.8766 28.6278 51.2345 32.7699 51.2345H42.7439V55.5564H27.9434C23.8012 55.5564 20.4434 52.1986 20.4434 48.0564V18.5Z" fill="url(#paint1_linear_708_5978)"/>
<path d="M9.96094 23.5809C9.96094 22.1334 11.1344 20.96 12.5819 20.96H20.4448V26.2019H12.5819C11.1344 26.2019 9.96094 25.0284 9.96094 23.5809Z" fill="#EEEEEE"/>
<path d="M5.76562 44.5477C5.76562 43.1002 6.93907 41.9268 8.38659 41.9268H20.443V47.1687H8.38659C6.93907 47.1687 5.76562 45.9952 5.76562 44.5477Z" fill="#EEEEEE"/>
<rect y="30.9189" width="17.8226" height="5.24194" rx="2.62097" fill="#EEEEEE"/>
<defs>
<linearGradient id="paint0_linear_708_5978" x1="20.4434" y1="33.2782" x2="64.9551" y2="33.2782" gradientUnits="userSpaceOnUse">
<stop offset="0.4999" stop-color="#EEEEEE"/>
<stop offset="0.5" stop-color="#41FFC2"/>
</linearGradient>
<linearGradient id="paint1_linear_708_5978" x1="20.4434" y1="33.2782" x2="64.9551" y2="33.2782" gradientUnits="userSpaceOnUse">
<stop offset="0.4999" stop-color="#EEEEEE"/>
<stop offset="0.5" stop-color="#41FFC2"/>
</linearGradient>
</defs>
</svg>
