<svg width="1150" height="714" viewBox="0 0 1150 714" fill="none" xmlns="http://www.w3.org/2000/svg">
<g clip-path="url(#clip0_118_5204)">
<path opacity="0.5" d="M278.541 643.421L279.819 614.67C293.149 607.544 308.017 603.781 323.132 603.706C302.329 620.713 304.929 653.497 290.826 676.368C286.372 683.468 280.378 689.474 273.288 693.942C266.198 698.41 258.193 701.225 249.867 702.179L232.459 712.838C230.07 699.521 230.597 685.845 234.003 672.752C237.408 659.658 243.612 647.459 252.186 636.994C257.055 631.171 262.637 625.984 268.801 621.556C272.971 632.55 278.541 643.421 278.541 643.421Z" fill="#717171"/>
<path d="M841.641 148.847H285.416C282.675 148.847 280.046 149.935 278.107 151.871C276.168 153.808 275.077 156.435 275.073 159.176V421.737C275.076 424.479 276.167 427.108 278.106 429.047C280.045 430.986 282.674 432.076 285.416 432.079H841.641C844.381 432.074 847.007 430.982 848.944 429.043C850.88 427.104 851.969 424.477 851.971 421.737V159.176C851.968 156.437 850.879 153.812 848.942 151.875C847.006 149.939 844.38 148.849 841.641 148.847Z" fill="#3F3D56"/>
<path d="M694.719 275.34C691.98 275.343 689.355 276.432 687.418 278.369C685.481 280.305 684.392 282.931 684.389 285.67V359.836C684.392 362.576 685.48 365.203 687.417 367.142C689.353 369.081 691.979 370.173 694.719 370.178H851.971V275.34H694.719Z" fill="#F9A826"/>
<path opacity="0.75" d="M985.778 370H691.222C689.307 369.997 687.471 368.905 686.118 366.964C684.764 365.022 684.002 362.39 684 359.645V285.355C684.002 282.61 684.764 279.978 686.118 278.036C687.471 276.095 689.307 275.003 691.222 275H985.778C987.693 275.003 989.529 276.095 990.882 278.036C992.236 279.978 992.998 282.61 993 285.355V359.645C992.998 362.39 992.236 365.022 990.882 366.964C989.529 368.905 987.693 369.997 985.778 370Z" fill="#F2DA00"/>
<path d="M751.748 344.27C761.012 344.27 768.523 336.76 768.523 327.495C768.523 318.23 761.012 310.72 751.748 310.72C742.483 310.72 734.972 318.23 734.972 327.495C734.972 336.76 742.483 344.27 751.748 344.27Z" fill="white"/>
<path d="M970.16 323H797.84C797.087 323 796.364 322.473 795.832 321.536C795.299 320.598 795 319.326 795 318C795 316.674 795.299 315.402 795.832 314.464C796.364 313.527 797.087 313 797.84 313H970.16C970.913 313 971.636 313.527 972.168 314.464C972.701 315.402 973 316.674 973 318C973 319.326 972.701 320.598 972.168 321.536C971.636 322.473 970.913 323 970.16 323Z" fill="white"/>
<path d="M946.089 342H798.911C797.874 342 796.879 341.473 796.146 340.536C795.412 339.598 795 338.326 795 337C795 335.674 795.412 334.402 796.146 333.464C796.879 332.527 797.874 332 798.911 332H946.089C947.126 332 948.121 332.527 948.855 333.464C949.588 334.402 950 335.674 950 337C950 338.326 949.588 339.598 948.855 340.536C948.121 341.473 947.126 342 946.089 342Z" fill="white"/>
<path d="M194.041 699.158L208.559 699.157L215.466 643.16H194.039L194.041 699.158Z" fill="#FFB6B6"/>
<path d="M190.339 694.418L194.425 694.418L210.379 687.93L218.929 694.417H218.931C223.763 694.417 228.397 696.337 231.814 699.754C235.231 703.17 237.151 707.805 237.151 712.637V713.229L190.339 713.231L190.339 694.418Z" fill="#2F2E41"/>
<path d="M62.8635 680.283L75.8576 686.759L107.018 639.723L87.8418 630.165L62.8635 680.283Z" fill="#FFB6B6"/>
<path d="M61.6639 674.389L65.3212 676.211L82.4939 677.522L87.2528 687.142L87.2539 687.142C91.5785 689.298 94.8697 693.084 96.4035 697.666C97.9373 702.248 97.5882 707.252 95.4329 711.577L95.1687 712.107L53.2725 691.226L61.6639 674.389Z" fill="#2F2E41"/>
<path d="M200.474 444.837L108.166 447.245L109.771 492.196C109.771 492.196 108.166 504.236 111.376 507.446C114.587 510.657 116.193 510.657 114.587 516.276C112.982 521.895 108.832 575.58 108.832 575.58C108.832 575.58 70.9456 642.569 72.5509 644.174C74.1563 645.78 75.7617 644.174 74.1563 648.188C72.551 652.201 70.9456 650.596 72.5509 652.201C73.973 653.734 75.3127 655.342 76.5643 657.017H102.729C102.729 657.017 104.192 648.99 104.192 648.188C104.192 647.385 105.797 642.569 105.797 641.766C105.797 640.964 151.51 592.531 151.51 592.531L161.143 512.263L184.42 590.925C184.42 590.925 184.42 659.956 186.026 661.561C187.631 663.167 187.631 662.364 186.828 665.575C186.026 668.785 182.815 667.983 185.223 670.391C187.631 672.799 188.434 668.785 187.631 672.799L186.828 676.812L217.667 677.157C217.667 677.157 220.877 670.391 219.272 667.983C217.667 665.575 217.763 666.232 219.722 662.291C221.68 658.35 222.483 657.548 221.68 656.745C220.877 655.942 220.877 651.673 220.877 651.673C220.877 651.673 209.303 493.801 209.303 491.393C209.243 490.154 209.471 488.918 209.97 487.782V484.513L206.895 472.931L200.474 444.837Z" fill="#2F2E41"/>
<path d="M993.421 310.842C986.415 310.842 979.567 308.764 973.742 304.872C967.917 300.98 963.377 295.448 960.696 288.976C958.015 282.503 957.314 275.381 958.681 268.511C960.047 261.64 963.421 255.328 968.374 250.374C973.328 245.421 979.64 242.047 986.511 240.681C993.381 239.314 1000.5 240.015 1006.98 242.696C1013.45 245.377 1018.98 249.917 1022.87 255.742C1026.76 261.567 1028.84 268.415 1028.84 275.421C1028.84 284.815 1025.11 293.824 1018.47 300.467C1011.82 307.11 1002.81 310.842 993.421 310.842Z" fill="#E29704"/>
<path d="M1007.4 271.927H996.915V261.445C996.915 260.518 996.547 259.629 995.891 258.974C995.236 258.319 994.347 257.951 993.421 257.951C992.494 257.951 991.605 258.319 990.95 258.974C990.295 259.629 989.926 260.518 989.926 261.445V271.927H979.444C978.985 271.926 978.53 272.016 978.105 272.191C977.681 272.366 977.294 272.623 976.969 272.948C976.644 273.272 976.386 273.658 976.21 274.082C976.034 274.507 975.944 274.961 975.944 275.421C975.944 275.88 976.034 276.335 976.21 276.76C976.386 277.184 976.644 277.569 976.969 277.894C977.294 278.218 977.681 278.476 978.105 278.651C978.53 278.826 978.985 278.916 979.444 278.915H989.926V289.397C989.926 290.324 990.295 291.212 990.95 291.868C991.605 292.523 992.494 292.891 993.421 292.891C994.347 292.891 995.236 292.523 995.891 291.868C996.547 291.212 996.915 290.324 996.915 289.397V278.915H1007.4C1008.32 278.915 1009.21 278.547 1009.87 277.892C1010.52 277.236 1010.89 276.348 1010.89 275.421C1010.89 274.494 1010.52 273.605 1009.87 272.95C1009.21 272.295 1008.32 271.927 1007.4 271.927Z" fill="white"/>
<path d="M574.006 370.652H439.425C436.683 370.655 434.054 371.746 432.115 373.685C430.176 375.624 429.086 378.253 429.083 380.995V432.079H584.335V380.995C584.333 378.255 583.244 375.627 581.308 373.689C579.372 371.75 576.746 370.658 574.006 370.652Z" fill="#F9A826"/>
<path opacity="0.75" d="M574.001 514.191H439.42C436.68 514.188 434.052 513.098 432.114 511.16C430.176 509.222 429.086 506.594 429.083 503.853V380.99C429.086 378.249 430.176 375.621 432.114 373.683C434.052 371.745 436.68 370.655 439.42 370.652H574.001C576.742 370.655 579.369 371.745 581.308 373.683C583.246 375.621 584.336 378.249 584.339 380.99V503.853C584.336 506.594 583.246 509.222 581.308 511.16C579.37 513.098 576.742 514.188 574.001 514.191Z" fill="#F2DA00"/>
<path d="M479.071 428.889C488.336 428.889 495.847 421.378 495.847 412.114C495.847 402.849 488.336 395.338 479.071 395.338C469.807 395.338 462.296 402.849 462.296 412.114C462.296 421.378 469.807 428.889 479.071 428.889Z" fill="white"/>
<path d="M546.128 454.386H467.292C465.967 454.386 464.696 453.86 463.759 452.923C462.823 451.987 462.296 450.716 462.296 449.391C462.296 448.066 462.823 446.796 463.759 445.859C464.696 444.922 465.967 444.396 467.292 444.396H546.128C547.453 444.396 548.723 444.922 549.66 445.859C550.597 446.796 551.123 448.066 551.123 449.391C551.123 450.716 550.597 451.987 549.66 452.923C548.723 453.86 547.453 454.386 546.128 454.386Z" fill="white"/>
<path d="M505.334 474.125H467.292C465.967 474.125 464.696 473.599 463.759 472.662C462.822 471.725 462.296 470.455 462.296 469.13C462.296 467.805 462.822 466.534 463.759 465.597C464.696 464.661 465.967 464.134 467.292 464.134H505.334C506.659 464.134 507.93 464.661 508.867 465.597C509.804 466.534 510.33 467.805 510.33 469.13C510.33 470.455 509.804 471.725 508.867 472.662C507.93 473.599 506.659 474.125 505.334 474.125Z" fill="white"/>
<path d="M436.615 550.251C429.609 550.251 422.761 548.173 416.936 544.281C411.111 540.389 406.571 534.857 403.89 528.385C401.209 521.912 400.508 514.79 401.875 507.92C403.241 501.049 406.615 494.737 411.569 489.784C416.522 484.83 422.834 481.456 429.704 480.09C436.575 478.723 443.697 479.424 450.17 482.105C456.642 484.786 462.174 489.326 466.066 495.151C469.958 500.976 472.036 507.824 472.036 514.83C472.036 524.224 468.304 533.233 461.661 539.876C455.018 546.519 446.009 550.251 436.615 550.251Z" fill="#E29704"/>
<path d="M450.591 511.336H440.109V500.854C440.109 499.927 439.741 499.038 439.085 498.383C438.43 497.728 437.541 497.36 436.615 497.36C435.688 497.36 434.799 497.728 434.144 498.383C433.489 499.038 433.121 499.927 433.121 500.854V511.336H422.639C422.179 511.335 421.724 511.425 421.299 511.6C420.875 511.775 420.489 512.032 420.164 512.357C419.838 512.681 419.58 513.067 419.404 513.491C419.228 513.916 419.138 514.371 419.138 514.83C419.138 515.289 419.228 515.744 419.404 516.169C419.58 516.593 419.838 516.978 420.164 517.303C420.489 517.627 420.875 517.885 421.299 518.06C421.724 518.235 422.179 518.325 422.639 518.324H433.121V528.806C433.121 529.733 433.489 530.622 434.144 531.277C434.799 531.932 435.688 532.3 436.615 532.3C437.541 532.3 438.43 531.932 439.085 531.277C439.741 530.622 440.109 529.733 440.109 528.806V518.324H450.591C451.518 518.324 452.406 517.956 453.062 517.301C453.717 516.645 454.085 515.757 454.085 514.83C454.085 513.903 453.717 513.015 453.062 512.359C452.406 511.704 451.518 511.336 450.591 511.336Z" fill="white"/>
<path d="M420.219 292.546H285.638C282.897 292.542 280.27 291.452 278.332 289.514C276.394 287.576 275.303 284.948 275.3 282.208V159.344C275.303 156.603 276.394 153.976 278.332 152.038C280.27 150.1 282.897 149.01 285.638 149.007H420.219C422.959 149.01 425.587 150.1 427.525 152.038C429.463 153.976 430.553 156.603 430.557 159.344V282.208C430.553 284.948 429.463 287.576 427.525 289.514C425.587 291.452 422.96 292.542 420.219 292.546Z" fill="#F9A826"/>
<path d="M325.29 217.496C334.555 217.496 342.065 209.986 342.065 200.721C342.065 191.456 334.555 183.946 325.29 183.946C316.025 183.946 308.515 191.456 308.515 200.721C308.515 209.986 316.025 217.496 325.29 217.496Z" fill="#F9A826"/>
<path d="M392.346 237.867H313.51C312.185 237.867 310.915 237.341 309.978 236.404C309.041 235.467 308.515 234.197 308.515 232.872C308.515 231.547 309.041 230.277 309.978 229.34C310.915 228.403 312.185 227.877 313.51 227.877H392.346C393.671 227.877 394.942 228.403 395.879 229.34C396.816 230.277 397.342 231.547 397.342 232.872C397.342 234.197 396.816 235.467 395.879 236.404C394.942 237.341 393.671 237.867 392.346 237.867Z" fill="#F9A826"/>
<path d="M351.553 257.606H313.51C312.185 257.606 310.915 257.08 309.978 256.143C309.041 255.206 308.515 253.936 308.515 252.611C308.515 251.286 309.041 250.015 309.978 249.078C310.915 248.142 312.185 247.615 313.51 247.615H351.553C352.878 247.615 354.148 248.142 355.085 249.078C356.022 250.015 356.548 251.286 356.548 252.611C356.548 253.936 356.022 255.206 355.085 256.143C354.148 257.08 352.878 257.606 351.553 257.606Z" fill="#F9A826"/>
<path opacity="0.5" d="M420.219 292.546H285.638C282.897 292.542 280.27 291.452 278.332 289.514C276.394 287.576 275.303 284.948 275.3 282.208V159.344C275.303 156.603 276.394 153.976 278.332 152.038C280.27 150.1 282.897 149.01 285.638 149.007H420.219C422.959 149.01 425.587 150.1 427.525 152.038C429.463 153.976 430.553 156.603 430.557 159.344V282.208C430.553 284.948 429.463 287.576 427.525 289.514C425.587 291.452 422.96 292.542 420.219 292.546Z" fill="#F2DA00"/>
<path d="M325.29 217.496C334.555 217.496 342.065 209.986 342.065 200.721C342.065 191.456 334.555 183.946 325.29 183.946C316.025 183.946 308.515 191.456 308.515 200.721C308.515 209.986 316.025 217.496 325.29 217.496Z" fill="white"/>
<path d="M392.346 237.867H313.51C312.185 237.867 310.915 237.341 309.978 236.404C309.041 235.467 308.515 234.197 308.515 232.872C308.515 231.547 309.041 230.277 309.978 229.34C310.915 228.403 312.185 227.877 313.51 227.877H392.346C393.671 227.877 394.942 228.403 395.879 229.34C396.816 230.277 397.342 231.547 397.342 232.872C397.342 234.197 396.816 235.467 395.879 236.404C394.942 237.341 393.671 237.867 392.346 237.867Z" fill="white"/>
<path d="M351.553 257.606H313.51C312.185 257.606 310.915 257.08 309.978 256.143C309.041 255.206 308.515 253.936 308.515 252.611C308.515 251.286 309.041 250.015 309.978 249.078C310.915 248.142 312.185 247.615 313.51 247.615H351.553C352.878 247.615 354.148 248.142 355.085 249.078C356.022 250.015 356.548 251.286 356.548 252.611C356.548 253.936 356.022 255.206 355.085 256.143C354.148 257.08 352.878 257.606 351.553 257.606Z" fill="white"/>
<path d="M288.415 175.516C303.279 175.516 315.328 163.467 315.328 148.603C315.328 133.739 303.279 121.689 288.415 121.689C273.551 121.689 261.501 133.739 261.501 148.603C261.501 163.467 273.551 175.516 288.415 175.516Z" fill="#E29704"/>
<path d="M362.269 712.292C362.27 712.493 362.231 712.692 362.154 712.877C362.078 713.062 361.965 713.23 361.824 713.372C361.682 713.514 361.513 713.626 361.328 713.703C361.143 713.779 360.944 713.818 360.744 713.818H1.5251C1.12062 713.818 0.732701 713.657 0.446689 713.371C0.160678 713.085 0 712.697 0 712.292C0 711.888 0.160678 711.5 0.446689 711.214C0.732701 710.928 1.12062 710.767 1.5251 710.767H360.744C360.944 710.767 361.143 710.806 361.328 710.882C361.513 710.959 361.682 711.071 361.824 711.213C361.965 711.354 362.078 711.523 362.154 711.708C362.23 711.893 362.27 712.092 362.269 712.292Z" fill="#717171"/>
<path d="M282.662 219.891C283.769 222.985 283.615 226.389 282.234 229.371C280.854 232.352 278.357 234.671 275.282 235.828C274.602 236.082 273.9 236.276 273.186 236.406L266.078 279.928L249.404 264.533L258.71 225.564C258.366 222.28 259.328 218.993 261.388 216.412C263.448 213.832 266.44 212.166 269.719 211.774C272.477 211.458 275.261 212.09 277.613 213.565C279.965 215.04 281.746 217.271 282.662 219.891L282.662 219.891Z" fill="#FFB6B6"/>
<path d="M159.61 318.508C159.61 318.508 172.551 301.409 219.511 301.878L246.165 292.193L252.257 236.354L273.577 241.43L270.531 310.468L224.845 336.865L164.944 349.048L159.61 318.508Z" fill="#3F3D56"/>
<path d="M152.735 282.887C168.128 282.887 180.606 270.409 180.606 255.016C180.606 239.623 168.128 227.144 152.735 227.144C137.342 227.144 124.863 239.623 124.863 255.016C124.863 270.409 137.342 282.887 152.735 282.887Z" fill="#FFB6B6"/>
<path d="M105.562 466.344C105.512 466.344 105.463 466.338 105.415 466.324C104.901 466.181 104.494 466.068 106.351 450.01L108.356 437.318L106.399 426.111L103.108 422.82L108.397 417.531L112.836 404.922L105.156 393.541L96.3439 346.999C94.829 338.967 96.0062 330.661 99.6929 323.367C103.38 316.073 109.37 310.199 116.735 306.656L126.933 303.676L130.644 296.871C131.686 294.96 133.221 293.363 135.088 292.244C136.955 291.126 139.088 290.528 141.264 290.512L159.941 290.372C161.825 290.358 163.687 290.78 165.38 291.606C167.074 292.432 168.553 293.64 169.702 295.133L176.218 303.603L203.237 312.782L198.757 409.313C199.469 409.909 200.049 410.646 200.461 411.477C200.874 412.308 201.109 413.216 201.152 414.143C201.195 415.07 201.046 415.996 200.713 416.862C200.38 417.729 199.871 418.516 199.218 419.175C198.937 419.459 198.713 419.69 198.576 419.842C198.12 420.489 198.975 425.32 200.03 429.423L201.384 435.704C200.949 436.014 200.584 436.411 200.311 436.87C200.038 437.329 199.863 437.839 199.797 438.369C199.731 438.898 199.776 439.436 199.928 439.948C200.08 440.459 200.337 440.934 200.682 441.341L202.407 443.379C202.749 445.935 202.062 448.522 200.499 450.573C198.935 452.623 196.623 453.97 194.068 454.318C169.374 457.679 105.691 466.344 105.562 466.344Z" fill="#3F3D56"/>
<path d="M145.605 281.522C145.486 281.26 145.367 280.997 145.248 280.733C145.294 280.735 145.339 280.741 145.385 280.742L145.605 281.522Z" fill="#2F2E41"/>
<path d="M124.088 228.412C125.411 227.163 127.131 226.419 128.948 226.31C130.75 226.369 132.577 227.996 132.204 229.761C135.515 223.899 140.784 219.391 147.087 217.027C153.39 214.664 160.324 214.596 166.672 216.836C171.152 218.416 175.545 221.578 176.574 226.215C176.674 227.433 177.037 228.614 177.638 229.677C178.158 230.246 178.834 230.65 179.582 230.839C180.329 231.029 181.116 230.995 181.844 230.743L181.888 230.73C182.138 230.645 182.407 230.637 182.661 230.706C182.916 230.776 183.143 230.92 183.314 231.12C183.486 231.32 183.593 231.567 183.623 231.829C183.652 232.091 183.602 232.356 183.48 232.589L182.212 234.953C183.81 235.309 185.47 235.274 187.051 234.85C187.314 234.781 187.591 234.795 187.846 234.89C188.1 234.985 188.319 235.157 188.472 235.381C188.625 235.605 188.705 235.872 188.701 236.143C188.696 236.415 188.608 236.678 188.448 236.898C186.342 239.779 183.592 242.13 180.417 243.761C177.243 245.393 173.731 246.262 170.162 246.297C165.098 246.266 159.981 244.521 155.053 245.686C153.146 246.136 151.365 247.008 149.839 248.237C148.313 249.465 147.082 251.02 146.235 252.787C145.388 254.554 144.948 256.488 144.947 258.447C144.945 260.406 145.382 262.341 146.226 264.109C144.712 262.453 141.785 262.845 140.236 264.469C139.523 265.338 138.996 266.345 138.687 267.426C138.379 268.507 138.295 269.64 138.442 270.755C138.855 274.169 139.869 277.483 141.437 280.544C135.448 280.36 129.66 278.342 124.855 274.764C120.05 271.185 116.459 266.218 114.567 260.533C112.676 254.848 112.574 248.719 114.277 242.975C115.979 237.231 119.404 232.147 124.088 228.412L124.088 228.412Z" fill="#2F2E41"/>
<path d="M116.42 506.318C113.755 504.396 111.952 501.504 111.4 498.265C110.848 495.027 111.591 491.701 113.469 489.005C113.885 488.41 114.354 487.853 114.869 487.341L96.0608 447.454L118.523 450.689L132.94 488.071C135.084 490.581 136.155 493.835 135.92 497.128C135.685 500.422 134.163 503.49 131.684 505.671C129.59 507.494 126.939 508.552 124.165 508.669C121.391 508.787 118.66 507.958 116.42 506.318H116.42Z" fill="#FFB6B6"/>
<path d="M110.724 484.539L80.7961 417.276L80.4963 364.152L89.9303 335.456C91.2102 331.563 93.2575 327.966 95.9513 324.878C98.6451 321.789 101.931 319.272 105.614 317.475C109.297 315.678 113.303 314.638 117.395 314.416C121.487 314.193 125.582 314.793 129.439 316.181L129.646 316.256L129.733 316.459C130.082 317.273 137.995 336.844 114.525 377.107L109.801 404.656L126.375 467.806L110.724 484.539Z" fill="#3F3D56"/>
</g>
<defs>
<clipPath id="clip0_118_5204">
<rect width="1150" height="713.817" fill="white"/>
</clipPath>
</defs>
</svg>
