<svg width="71" height="71" viewBox="0 0 71 71" fill="none" xmlns="http://www.w3.org/2000/svg">
<g clip-path="url(#clip0_120_5319)">
<path d="M36.7917 14.8659H31.853V38.8537L49.4911 49.4365L52.3132 45.2034L36.7917 36.0316V14.8659ZM35.0279 4.98865C18.4697 4.98865 5.04321 18.4151 5.04321 34.9733C5.04321 51.5315 18.4364 64.958 35.0279 64.958C51.5861 64.958 65.0125 51.5315 65.0125 34.9733C65.0125 18.4151 51.5861 4.98865 35.0279 4.98865ZM35.0279 58.2947C22.1345 58.2947 11.7065 47.8667 11.7065 34.9733C11.7065 22.0799 22.1345 11.6519 35.0279 11.6519C47.9213 11.6519 58.3493 22.0799 58.3493 34.9733C58.3493 47.8667 47.9213 58.2947 35.0279 58.2947Z" fill="url(#paint0_linear_120_5319)"/>
</g>
<defs>
<linearGradient id="paint0_linear_120_5319" x1="5.04321" y1="35.3261" x2="65.0125" y2="35.3261" gradientUnits="userSpaceOnUse">
<stop stop-color="#F2DA00"/>
<stop offset="1" stop-color="#E29704"/>
</linearGradient>
<clipPath id="clip0_120_5319">
<rect width="70.5521" height="70.5521" fill="white" transform="translate(0.104492 0.0499878)"/>
</clipPath>
</defs>
</svg>
