<svg width="71" height="72" viewBox="0 0 71 72" fill="none" xmlns="http://www.w3.org/2000/svg">
<path d="M41.6796 14.613L37.0652 31.8343L48.3916 34.9329L28.4384 56.1911L33.037 39.0291L21.6353 35.9741L41.6796 14.613Z" fill="url(#paint0_linear_120_5316)"/>
<path d="M35.0275 5.38867C18.4693 5.38867 5.04285 18.8151 5.04285 35.3733C5.04285 51.9315 18.436 65.358 35.0275 65.358C51.5857 65.358 65.0122 51.9315 65.0122 35.3733C65.0122 18.8151 51.5857 5.38867 35.0275 5.38867ZM35.0275 58.6947C22.1341 58.6947 11.7061 48.2667 11.7061 35.3733C11.7061 22.4799 22.1341 12.0519 35.0275 12.0519C47.9209 12.0519 58.3489 22.4799 58.3489 35.3733C58.3489 48.2667 47.9209 58.6947 35.0275 58.6947Z" fill="url(#paint1_linear_120_5316)"/>
<defs>
<linearGradient id="paint0_linear_120_5316" x1="11.2519" y1="29.1184" x2="56.8587" y2="41.3387" gradientUnits="userSpaceOnUse">
<stop stop-color="#F2DA00"/>
<stop offset="1" stop-color="#E29704"/>
</linearGradient>
<linearGradient id="paint1_linear_120_5316" x1="5.04285" y1="35.7261" x2="65.0122" y2="35.7261" gradientUnits="userSpaceOnUse">
<stop stop-color="#F2DA00"/>
<stop offset="1" stop-color="#E29704"/>
</linearGradient>
</defs>
</svg>
