<svg width="75" height="75" viewBox="0 0 75 75" fill="none" xmlns="http://www.w3.org/2000/svg">
<path d="M61.4386 0H13.5632C12.1667 0 11.0361 1.13311 11.0361 2.5276V12.7151C11.0361 13.0077 11.0955 13.2848 11.188 13.546C11.1984 13.572 11.2028 13.6037 11.2138 13.6319C11.3133 13.8854 11.4563 14.1137 11.6252 14.3177C11.6423 14.338 11.6466 14.3617 11.662 14.382L23.0043 27.3188V72.4724C23.0043 73.8693 24.1361 75 25.5313 75H49.4704C50.864 75 51.9969 73.8693 51.9969 72.4724V27.3188L63.3392 14.382C63.3547 14.3617 63.36 14.338 63.3756 14.3177C63.5438 14.1126 63.689 13.8843 63.7868 13.6319C63.7989 13.6039 63.8033 13.572 63.8123 13.546C63.9046 13.2848 63.964 13.0066 63.964 12.7151V2.5276C63.9662 1.13311 62.8354 0 61.4386 0ZM40.0275 49.0211C40.0275 50.4145 38.8969 51.5487 37.501 51.5487C36.1043 51.5487 34.9735 50.4147 34.9735 49.0211V37.5005C34.9735 36.1063 36.1043 34.9729 37.501 34.9729C38.8969 34.9729 40.0275 36.1063 40.0275 37.5005V49.0211ZM58.911 10.1875H16.0908V5.05466H58.9111V10.1875H58.911Z" fill="url(#paint0_linear_434_5204)"/>
<defs>
<linearGradient id="paint0_linear_434_5204" x1="11" y1="38" x2="64" y2="38" gradientUnits="userSpaceOnUse">
<stop stop-color="#F2DA00"/>
<stop offset="1" stop-color="#E29704"/>
</linearGradient>
</defs>
</svg>
