<svg width="100" height="100" viewBox="0 0 100 100" fill="none" xmlns="http://www.w3.org/2000/svg">
<path d="M61.7826 25.6522H70.4783C71.4383 25.6522 72.2174 24.873 72.2174 23.913V12.1965C72.2174 11.2852 71.5165 10.527 70.6087 10.4626C67.8417 10.2661 62.4365 10 58.5496 10C47.8696 10 40.913 16.4 40.913 28.0313V39.5652H28.7391C27.7791 39.5652 27 40.3443 27 41.3043V53.4783C27 54.4383 27.7791 55.2174 28.7391 55.2174H40.913V88.2609C40.913 89.2209 41.6922 90 42.6522 90H54.8261C55.7861 90 56.5652 89.2209 56.5652 88.2609V55.2174H69.1252C70.0122 55.2174 70.7565 54.5513 70.8539 53.6696L72.207 41.4957C72.3217 40.4661 71.5148 39.5652 70.4783 39.5652H56.5652V30.8696C56.5652 27.9878 58.9009 25.6522 61.7826 25.6522Z" fill="url(#paint0_linear_499_5675)"/>
<defs>
<linearGradient id="paint0_linear_499_5675" x1="27" y1="50" x2="72" y2="50" gradientUnits="userSpaceOnUse">
<stop stop-color="#F2DA00"/>
<stop offset="0.875" stop-color="#E29704"/>
</linearGradient>
</defs>
</svg>
