<svg width="86" height="86" viewBox="0 0 86 86" fill="none" xmlns="http://www.w3.org/2000/svg">
<path d="M54.1329 19.5025C51.1372 19.3674 50.2345 19.339 42.6439 19.339C35.0533 19.339 34.1542 19.3674 31.1585 19.5025C23.447 19.8543 19.8543 23.5075 19.506 31.1549C19.3674 34.1542 19.3355 35.0533 19.3355 42.6439C19.3355 50.2345 19.3674 51.1336 19.5025 54.1329C19.8543 61.7662 23.4328 65.4335 31.1549 65.7854C34.1507 65.9204 35.0533 65.9524 42.6439 65.9524C50.2381 65.9524 51.1372 65.924 54.1329 65.7889C61.8444 65.4371 65.4335 61.7768 65.7854 54.1365C65.9204 51.1372 65.9488 50.2381 65.9488 42.6475C65.9488 35.0569 65.9204 34.1578 65.7854 31.162C65.4335 23.511 61.8372 19.8543 54.1329 19.5025ZM42.6439 57.2424C34.5807 57.2424 28.0455 50.7072 28.0455 42.6439C28.0455 34.5807 34.5842 28.0455 42.6439 28.0455C50.7036 28.0455 57.2424 34.5807 57.2424 42.6439C57.2424 50.7072 50.7072 57.2424 42.6439 57.2424ZM57.8216 30.8813C55.9382 30.8813 54.4101 29.3532 54.4101 27.4698C54.4101 25.5864 55.9382 24.0583 57.8216 24.0583C59.705 24.0583 61.2331 25.5864 61.2331 27.4698C61.2331 29.3532 59.705 30.8813 57.8216 30.8813ZM52.1215 42.6439C52.1215 47.8785 47.8785 52.1215 42.6439 52.1215C37.4094 52.1215 33.1663 47.8785 33.1663 42.6439C33.1663 37.4094 37.4094 33.1663 42.6439 33.1663C47.8785 33.1663 52.1215 37.4094 52.1215 42.6439ZM67.5195 0H17.7683C7.95665 0 0 7.95665 0 17.7683V67.5195C0 77.3312 7.95665 85.2878 17.7683 85.2878H67.5195C77.3348 85.2878 85.2878 77.3312 85.2878 67.5195V17.7683C85.2878 7.95665 77.3348 0 67.5195 0ZM70.9026 54.3639C70.4335 64.7015 64.6802 70.43 54.3674 70.9026C51.3326 71.0412 50.366 71.0732 42.6439 71.0732C34.9218 71.0732 33.9588 71.0412 30.924 70.9026C20.5899 70.43 14.8614 64.6908 14.3852 54.3639C14.2466 51.3326 14.2146 50.366 14.2146 42.6439C14.2146 34.9254 14.2466 33.9552 14.3852 30.924C14.8614 20.5899 20.597 14.8579 30.924 14.3888C33.9588 14.2466 34.9218 14.2146 42.6439 14.2146C50.366 14.2146 51.3326 14.2466 54.3674 14.3852C64.7015 14.8579 70.4407 20.6077 70.9026 30.9204C71.0412 33.9552 71.0732 34.9254 71.0732 42.6439C71.0732 50.366 71.0412 51.3326 70.9026 54.3639Z" fill="url(#paint0_linear_428_5224)"/>
<defs>
<linearGradient id="paint0_linear_428_5224" x1="0" y1="43" x2="85" y2="43" gradientUnits="userSpaceOnUse">
<stop stop-color="#F2DA00"/>
<stop offset="1" stop-color="#E29704"/>
</linearGradient>
</defs>
</svg>
