<svg width="700" height="645" viewBox="0 0 700 645" fill="none" xmlns="http://www.w3.org/2000/svg">
<g clip-path="url(#clip0_121_5325)">
<path d="M321.422 354.754C321.297 354.754 321.218 354.751 321.191 354.75L306.223 354.751V352.544H321.245C321.593 352.557 328.688 352.757 335.226 344.824C344.969 333.001 352.97 303.733 335.757 231.441C312.613 134.233 331.916 48.3563 341.29 15.9464C341.752 14.3429 341.834 12.654 341.531 11.0131C341.228 9.37227 340.548 7.82438 339.543 6.49175C338.539 5.15912 337.239 4.07827 335.745 3.33462C334.251 2.59096 332.605 2.20488 330.936 2.20686H107.409C105.71 2.20914 104.035 2.61208 102.52 3.38299C101.006 4.15389 99.6944 5.27104 98.6925 6.64375C94.7217 12.1059 89.2725 22.5993 85.8625 41.573L83.6907 41.1829C87.1744 21.797 92.8009 10.995 96.9075 5.34636C98.1144 3.69231 99.6943 2.34617 101.519 1.41724C103.344 0.488305 105.362 0.00274843 107.409 6.00487e-06H330.936C332.947 -0.00192889 334.931 0.46376 336.731 1.36028C338.531 2.2568 340.097 3.55959 341.307 5.16572C342.517 6.77185 343.337 8.63731 343.702 10.6147C344.067 12.5921 343.967 14.6273 343.41 16.5595C334.085 48.8013 314.881 134.233 337.905 230.93C355.359 304.239 346.968 334.141 336.856 346.317C330.185 354.348 322.836 354.754 321.422 354.754Z" fill="#3F3D56"/>
<path d="M281.147 395.029C281.022 395.029 280.943 395.026 280.916 395.025L265.948 395.026V392.819H280.97C281.319 392.83 288.413 393.032 294.951 385.099C304.694 373.276 312.695 344.008 295.482 271.716C272.338 174.508 291.641 88.6314 301.015 56.2214C301.477 54.618 301.559 52.9291 301.256 51.2882C300.953 49.6474 300.273 48.0995 299.268 46.7668C298.264 45.4342 296.964 44.3534 295.47 43.6097C293.976 42.866 292.33 42.48 290.661 42.4819H67.1342C65.4348 42.4842 63.7599 42.8872 62.2453 43.6581C60.7308 44.429 59.4194 45.5461 58.4175 46.9188C54.4467 52.381 48.9974 62.8744 45.5876 81.8481L43.4155 81.458C46.8994 62.0721 52.5259 51.27 56.6325 45.6214C57.8394 43.9674 59.4193 42.6213 61.244 41.6923C63.0687 40.7634 65.0867 40.2778 67.1342 40.2751H290.661C292.672 40.2732 294.656 40.7388 296.456 41.6354C298.256 42.5319 299.822 43.8347 301.032 45.4408C302.242 47.0469 303.062 48.9124 303.427 50.8898C303.792 52.8672 303.692 54.9024 303.135 56.8346C293.81 89.0764 274.606 174.508 297.629 271.205C315.084 344.514 306.693 374.416 296.58 386.592C289.91 394.623 282.561 395.029 281.147 395.029Z" fill="#3F3D56"/>
<path d="M240.872 435.305C240.747 435.305 240.668 435.301 240.64 435.3L20.5585 435.301C18.4396 435.304 16.3524 434.787 14.4796 433.796C12.6067 432.805 11.0052 431.37 9.81529 429.617C8.62538 427.864 7.88331 425.846 7.65399 423.739C7.42468 421.633 7.71513 419.502 8.49992 417.534C16.4852 397.583 27.237 349.718 9.52778 253.301C-11.3837 139.449 7.33763 98.3025 16.3573 85.8965C17.5642 84.2425 19.1441 82.8963 20.9688 81.9674C22.7936 81.0384 24.8116 80.5529 26.8592 80.5502H250.386C252.397 80.5482 254.381 81.0139 256.181 81.9105C257.981 82.807 259.547 84.1098 260.757 85.7159C261.967 87.322 262.787 89.1875 263.152 91.1649C263.517 93.1423 263.417 95.1775 262.86 97.1097C253.535 129.351 234.331 214.783 257.354 311.48C274.809 384.789 266.418 414.691 256.305 426.867C249.635 434.898 242.286 435.305 240.872 435.305ZM26.8592 82.757C25.1597 82.7593 23.4848 83.1622 21.9702 83.9331C20.4556 84.704 19.1441 85.8212 18.1422 87.1939C9.28991 99.3699 -9.05887 139.891 11.6982 252.902C28.6159 345.009 20.4109 393.714 10.5486 418.354C9.88393 419.98 9.63445 421.745 9.82266 423.491C10.0109 425.237 10.6309 426.909 11.6267 428.356C12.6141 429.816 13.9449 431.012 15.5021 431.838C17.0594 432.664 18.7956 433.096 20.5585 433.094H240.695C241.042 433.111 248.138 433.308 254.676 425.374C264.419 413.551 272.42 384.283 255.207 311.991C232.063 214.784 251.366 128.906 260.74 96.4965C261.202 94.8931 261.284 93.2042 260.981 91.5633C260.678 89.9224 259.997 88.3745 258.993 87.0419C257.989 85.7093 256.689 84.6284 255.195 83.8848C253.701 83.1411 252.055 82.755 250.386 82.757H26.8592Z" fill="#3F3D56"/>
<path d="M212.367 179.859H36.9217C34.5805 179.859 32.3352 178.929 30.6797 177.273C29.0243 175.618 28.0942 173.372 28.0942 171.031C28.0942 168.69 29.0243 166.445 30.6797 164.789C32.3352 163.134 34.5805 162.204 36.9217 162.204H212.367C214.708 162.204 216.953 163.134 218.608 164.789C220.264 166.445 221.194 168.69 221.194 171.031C221.194 173.372 220.264 175.618 218.608 177.273C216.953 178.929 214.708 179.859 212.367 179.859Z" fill="#F2DA00"/>
<path d="M212.367 217.375H36.9217C34.5805 217.375 32.3352 216.445 30.6797 214.79C29.0243 213.134 28.0942 210.889 28.0942 208.548C28.0942 206.206 29.0243 203.961 30.6797 202.306C32.3352 200.65 34.5805 199.72 36.9217 199.72H212.367C214.708 199.72 216.953 200.65 218.608 202.306C220.264 203.961 221.194 206.206 221.194 208.548C221.194 210.889 220.264 213.134 218.608 214.79C216.953 216.445 214.708 217.375 212.367 217.375Z" fill="#F2DA00"/>
<path d="M212.367 254.892H36.9217C34.5805 254.892 32.3352 253.962 30.6797 252.306C29.0243 250.651 28.0942 248.405 28.0942 246.064C28.0942 243.723 29.0243 241.478 30.6797 239.822C32.3352 238.167 34.5805 237.237 36.9217 237.237H212.367C214.708 237.237 216.953 238.167 218.608 239.822C220.264 241.478 221.194 243.723 221.194 246.064C221.194 248.405 220.264 250.651 218.608 252.306C216.953 253.962 214.708 254.892 212.367 254.892Z" fill="#CCCCCC"/>
<path d="M225.608 292.408H50.1629C47.8217 292.408 45.5764 291.478 43.9209 289.823C42.2655 288.167 41.3354 285.922 41.3354 283.581C41.3354 281.24 42.2655 278.994 43.9209 277.339C45.5764 275.683 47.8217 274.753 50.1629 274.753H225.608C227.949 274.753 230.194 275.683 231.85 277.339C233.505 278.994 234.435 281.24 234.435 283.581C234.435 285.922 233.505 288.167 231.85 289.823C230.194 291.478 227.949 292.408 225.608 292.408Z" fill="#CCCCCC"/>
<path d="M225.608 329.925H50.1629C47.8217 329.925 45.5764 328.995 43.9209 327.339C42.2655 325.684 41.3354 323.438 41.3354 321.097C41.3354 318.756 42.2655 316.511 43.9209 314.855C45.5764 313.2 47.8217 312.27 50.1629 312.27H225.608C227.949 312.27 230.194 313.2 231.85 314.855C233.505 316.511 234.435 318.756 234.435 321.097C234.435 323.438 233.505 325.684 231.85 327.339C230.194 328.995 227.949 329.925 225.608 329.925Z" fill="#CCCCCC"/>
<path d="M119.679 142.342H36.9217C34.5805 142.342 32.3352 141.412 30.6797 139.757C29.0243 138.101 28.0942 135.856 28.0942 133.515C28.0942 131.173 29.0243 128.928 30.6797 127.273C32.3352 125.617 34.5805 124.687 36.9217 124.687H119.679C122.02 124.687 124.265 125.617 125.921 127.273C127.576 128.928 128.506 131.173 128.506 133.515C128.506 135.856 127.576 138.101 125.921 139.757C124.265 141.412 122.02 142.342 119.679 142.342Z" fill="#F2DA00"/>
<path d="M108.993 390.416C110.774 382.874 119.142 380.402 125.984 380.679C130.306 380.97 134.594 381.649 138.796 382.706C143.192 383.69 147.545 384.854 151.877 386.089C159.82 388.354 167.681 391.094 175.754 392.865C182.476 394.339 189.78 395.204 196.483 393.169C202.927 391.212 208.393 386.409 210.146 379.768C211.798 373.51 209.53 366.667 203.466 363.807C197.936 361.199 190.95 362.526 188.209 368.424C185.119 375.074 188.207 382.326 193.1 387.138C195.882 389.75 198.928 392.064 202.19 394.042C205.501 396.299 209.186 397.949 213.074 398.917C219.457 400.281 227.061 398.272 230.353 392.173C231.085 390.793 231.525 389.276 231.646 387.719C231.841 385.598 228.529 385.611 228.336 387.719C227.778 393.791 220.666 396.635 215.348 395.969C211.758 395.374 208.33 394.044 205.279 392.061C202.334 390.344 199.544 388.375 196.939 386.177C192.428 382.273 188.2 375.85 191.23 369.758C193.696 364.798 200.127 364.848 204.038 368.046C208.774 371.92 207.93 378.951 204.806 383.552C201.347 388.645 195.077 390.781 189.166 391.011C182.743 391.261 176.373 389.787 170.235 388.044C162.607 385.878 155.056 383.454 147.391 381.415C143.04 380.257 138.656 379.212 134.226 378.399C130.038 377.476 125.736 377.178 121.46 377.516C114.553 378.313 107.502 382.334 105.801 389.536C105.312 391.608 108.503 392.492 108.993 390.416L108.993 390.416Z" fill="#3F3D56"/>
<path d="M230.622 391.201C230.203 390.852 229.897 390.388 229.742 389.865C229.587 389.343 229.59 388.787 229.751 388.267C229.912 387.746 230.223 387.285 230.645 386.941C231.068 386.598 231.582 386.387 232.124 386.335C238.143 385.754 244.217 386.376 249.992 388.166L308.822 406.335C309.583 406.57 310.291 406.953 310.904 407.462C311.518 407.97 312.025 408.595 312.397 409.3C312.769 410.004 312.999 410.775 313.073 411.569C313.147 412.362 313.065 413.163 312.829 413.924C312.594 414.686 312.211 415.394 311.703 416.007C311.194 416.621 310.569 417.128 309.865 417.5C309.16 417.872 308.389 418.102 307.595 418.176C306.802 418.25 306.001 418.167 305.24 417.932L246.41 399.763C240.631 397.985 235.264 395.074 230.622 391.201Z" fill="#3F3D56"/>
<path d="M471.772 466.675C470.174 466.004 468.742 464.992 467.578 463.708C466.413 462.425 465.545 460.902 465.032 459.246C464.52 457.591 464.377 455.843 464.614 454.126C464.85 452.41 465.46 450.766 466.401 449.31L456.317 396.576L482.017 394.572L483.569 446.154C485.909 447.896 487.529 450.436 488.122 453.293C488.715 456.149 488.239 459.124 486.785 461.654C485.331 464.183 483 466.091 480.233 467.017C477.466 467.942 474.455 467.82 471.772 466.675Z" fill="#FFB8B8"/>
<path d="M454.731 439.458L428.554 317.549C427.479 312.542 428.437 307.313 431.218 303.012C433.998 298.711 438.373 295.691 443.38 294.616C448.388 293.541 453.617 294.499 457.917 297.28C462.218 300.06 465.238 304.435 466.313 309.442L492.49 431.351C492.765 432.638 492.518 433.982 491.803 435.088C491.089 436.193 489.965 436.97 488.678 437.248L460.628 443.271C459.99 443.408 459.332 443.418 458.691 443.301C458.049 443.183 457.437 442.94 456.889 442.586C456.342 442.232 455.869 441.774 455.499 441.237C455.128 440.7 454.867 440.096 454.731 439.458Z" fill="#3F3D56"/>
<path d="M411.766 631.231H398.239L391.802 579.052L411.769 579.053L411.766 631.231Z" fill="#FFB8B8"/>
<path d="M388.575 627.365H414.665V643.792H372.149C372.149 641.634 372.574 639.498 373.399 637.505C374.225 635.512 375.435 633.702 376.96 632.176C378.486 630.651 380.296 629.441 382.289 628.615C384.282 627.79 386.418 627.365 388.575 627.365Z" fill="#2F2E41"/>
<path d="M457.006 630.127H443.479L437.043 577.948L457.009 577.95L457.006 630.127Z" fill="#FFB8B8"/>
<path d="M433.816 626.262H459.905V642.688H417.39C417.39 640.531 417.815 638.395 418.64 636.402C419.466 634.409 420.676 632.598 422.201 631.073C423.726 629.548 425.537 628.338 427.53 627.512C429.523 626.687 431.659 626.262 433.816 626.262Z" fill="#2F2E41"/>
<path d="M395.558 621.498C395.051 621.081 394.632 620.568 394.326 619.988C394.02 619.408 393.832 618.772 393.775 618.118L378.048 445.124C377.987 444.452 378.063 443.776 378.273 443.135C378.482 442.494 378.819 441.902 379.265 441.396C379.71 440.889 380.254 440.479 380.863 440.189C381.472 439.9 382.133 439.738 382.807 439.712L461.68 436.755C462.362 436.729 463.043 436.845 463.679 437.094C464.314 437.344 464.892 437.722 465.375 438.205C465.858 438.687 466.237 439.265 466.487 439.9C466.737 440.536 466.853 441.216 466.828 441.899L460.523 614.228C460.477 615.435 459.994 616.583 459.163 617.459C458.333 618.335 457.213 618.88 456.011 618.991L440.107 620.437C439.448 620.497 438.783 620.425 438.152 620.224C437.521 620.023 436.936 619.698 436.433 619.268C435.929 618.838 435.517 618.312 435.22 617.72C434.923 617.128 434.747 616.483 434.703 615.822L427.405 506.344C427.4 506.133 427.353 505.926 427.266 505.734C427.18 505.542 427.057 505.369 426.903 505.225C426.75 505.082 426.569 504.97 426.372 504.897C426.174 504.824 425.964 504.791 425.754 504.8H425.747C425.536 504.791 425.326 504.825 425.128 504.899C424.931 504.974 424.75 505.087 424.597 505.232C424.443 505.377 424.32 505.551 424.235 505.744C424.15 505.937 424.104 506.146 424.101 506.357L417.569 616.573C417.504 617.753 417.018 618.871 416.199 619.723C415.38 620.576 414.283 621.107 413.107 621.22L399.214 622.61C398.561 622.677 397.902 622.613 397.274 622.422C396.646 622.231 396.063 621.917 395.558 621.498H395.558Z" fill="#2F2E41"/>
<path d="M425.897 268.71C440.865 268.71 452.999 256.577 452.999 241.609C452.999 226.641 440.865 214.508 425.897 214.508C410.93 214.508 398.796 226.641 398.796 241.609C398.796 256.577 410.93 268.71 425.897 268.71Z" fill="#FFB8B8"/>
<path d="M373.707 446.295C373.225 445.747 372.87 445.099 372.669 444.397C372.468 443.694 372.426 442.956 372.546 442.236C377.549 411.824 374.729 367.121 371.482 334.975C370.635 326.448 372.049 317.848 375.582 310.041C379.116 302.234 384.644 295.496 391.61 290.505L405.763 278.374C406.704 277.577 407.904 277.152 409.137 277.18L444.299 278.184C445.567 278.219 446.773 278.74 447.668 279.638L453.101 291.67L453.157 291.711C459.632 296.47 464.826 302.76 468.276 310.017C471.726 317.275 473.323 325.274 472.925 333.3L467.75 440.262C467.684 441.506 467.155 442.68 466.267 443.554C465.38 444.427 464.198 444.938 462.953 444.985L377.606 447.984C377.551 447.985 377.496 447.986 377.441 447.986C376.734 447.987 376.035 447.837 375.391 447.545C374.747 447.253 374.173 446.827 373.707 446.295Z" fill="#3F3D56"/>
<path d="M271.336 401.661C271.293 399.928 271.631 398.207 272.326 396.62C273.02 395.032 274.054 393.616 275.355 392.471C276.656 391.326 278.192 390.48 279.855 389.994C281.518 389.507 283.268 389.39 284.981 389.653L328.969 358.869L341.316 381.498L294.887 404.025C294.256 406.873 292.601 409.391 290.237 411.101C287.874 412.811 284.964 413.595 282.061 413.304C279.158 413.012 276.463 411.666 274.486 409.52C272.509 407.374 271.389 404.578 271.336 401.661L271.336 401.661Z" fill="#FFB8B8"/>
<path d="M308.354 407.012C307.709 406.914 307.09 406.69 306.532 406.352C305.974 406.014 305.489 405.569 305.104 405.042L288.129 381.914C287.351 380.852 287.026 379.524 287.226 378.223C287.426 376.922 288.133 375.753 289.193 374.972L389.71 301.194C393.838 298.163 399.002 296.897 404.064 297.674C406.57 298.058 408.977 298.933 411.145 300.247C413.314 301.562 415.202 303.29 416.703 305.335C418.203 307.379 419.286 309.699 419.89 312.162C420.494 314.625 420.607 317.182 420.223 319.689C419.838 322.195 418.964 324.602 417.649 326.77C416.335 328.939 414.606 330.827 412.562 332.328L312.045 406.106C311.197 406.732 310.172 407.07 309.118 407.07C308.862 407.07 308.607 407.05 308.354 407.012Z" fill="#3F3D56"/>
<path d="M427.285 265.735C430.879 261.328 430.485 254.616 427.601 249.715C424.716 244.815 419.819 241.44 414.781 238.804C409.742 236.167 404.39 234.094 399.648 230.955C394.906 227.816 395.113 214.528 393.851 208.984L396.862 209.987C395.704 208.506 395.333 204.131 394.176 202.65C397.579 202.987 400.195 206.217 403.598 206.553L401.634 201.283C413.302 200.564 420.556 208.672 432.225 207.952C438.006 207.596 444.284 207.37 449.036 210.681C453.166 213.558 455.257 218.538 456.629 223.381C459.574 233.778 460.032 245.426 454.945 254.96C449.858 264.495 438.132 270.92 427.888 267.477L427.285 265.735Z" fill="#2F2E41"/>
<path d="M278.491 644.401H698.897C699.189 644.401 699.47 644.285 699.677 644.078C699.884 643.871 700 643.59 700 643.298C700 643.005 699.884 642.724 699.677 642.518C699.47 642.311 699.189 642.194 698.897 642.194H278.491C278.198 642.194 277.918 642.311 277.711 642.518C277.504 642.724 277.388 643.005 277.388 643.298C277.388 643.59 277.504 643.871 277.711 644.078C277.918 644.285 278.198 644.401 278.491 644.401Z" fill="#3F3D56"/>
<path d="M507.049 558.986C506.096 530.547 519.109 502.289 544.425 492.599C538.392 521.664 543.513 554.36 558.593 583.064C564.466 594.244 572.089 606.227 569.996 617.63C568.693 624.726 563.651 630.224 557.598 633.711C551.545 637.197 544.492 638.93 537.526 640.629L536.293 641.841C520.749 615.886 508.002 587.426 507.049 558.986Z" fill="#717171"/>
<path d="M544.774 493.131C532.083 510.863 525.609 533.601 527.013 556.986C527.218 562.163 528.203 567.279 529.936 572.162C531.846 577.06 534.881 581.44 538.796 584.948C542.416 588.322 546.454 591.405 549.306 595.492C550.714 597.486 551.705 599.745 552.221 602.131C552.736 604.518 552.765 606.984 552.305 609.382C551.242 615.065 548.124 619.735 544.899 624.173C541.319 629.101 537.514 634.15 536.676 640.617C536.575 641.4 535.329 641.024 535.431 640.242C536.888 628.992 546.638 622.45 550.184 612.279C551.839 607.534 551.987 602.054 548.968 597.125C546.328 592.815 542.166 589.633 538.476 586.245C534.606 582.86 531.507 578.686 529.387 574.003C527.42 569.194 526.243 564.098 525.901 558.913C524.987 547.728 525.896 536.469 528.594 525.575C531.491 513.583 536.653 502.254 543.802 492.2C544.24 491.587 545.21 492.523 544.774 493.131L544.774 493.131Z" fill="#717171"/>
<path d="M526.155 549.352C522.076 548.41 518.392 546.219 515.616 543.086C512.84 539.952 511.11 536.031 510.667 531.868C510.604 531.059 511.858 531.099 511.921 531.91C512.328 535.786 513.939 539.437 516.529 542.35C519.119 545.263 522.556 547.291 526.358 548.149C526.438 548.161 526.515 548.189 526.584 548.231C526.653 548.274 526.713 548.329 526.76 548.395C526.807 548.46 526.841 548.535 526.86 548.614C526.878 548.692 526.88 548.774 526.867 548.854C526.853 548.933 526.824 549.01 526.781 549.078C526.738 549.147 526.681 549.206 526.615 549.252C526.549 549.298 526.474 549.331 526.395 549.348C526.316 549.366 526.234 549.367 526.155 549.352V549.352Z" fill="#717171"/>
<path d="M536.767 583.449C539.908 581.27 542.552 578.45 544.524 575.175C546.497 571.9 547.753 568.244 548.211 564.449C548.315 563.666 549.561 564.042 549.456 564.824C548.972 568.772 547.656 572.573 545.596 575.976C543.536 579.379 540.778 582.306 537.504 584.566C536.878 584.992 536.145 583.873 536.767 583.449Z" fill="#717171"/>
<path d="M633.933 541.904C633.555 542.187 633.178 542.471 632.802 542.766C627.76 546.603 623.087 550.903 618.846 555.61C618.511 555.968 618.179 556.336 617.857 556.704C607.697 568.315 600.088 581.929 595.522 596.666C593.65 602.675 592.271 608.827 591.398 615.06C590.175 623.753 589.562 633.373 585.568 640.534C585.162 641.284 584.704 642.005 584.197 642.691L538.095 643.474C537.982 643.422 537.87 643.381 537.756 643.33L535.929 643.446C535.951 643.115 535.982 642.774 536.004 642.443C536.016 642.25 536.039 642.058 536.051 641.866C536.062 641.738 536.074 641.609 536.077 641.492C536.08 641.449 536.084 641.407 536.09 641.375C536.092 641.257 536.108 641.15 536.112 641.044C536.277 639.132 536.452 637.219 536.648 635.307C536.646 635.296 536.646 635.296 536.655 635.285C538.162 620.722 540.928 606.329 545.875 593.125C546.024 592.728 546.17 592.32 546.34 591.923C548.584 586.03 551.364 580.356 554.644 574.972C556.436 572.058 558.395 569.25 560.51 566.563C565.987 559.642 572.671 553.768 580.238 549.226C595.391 540.116 614.005 536.408 632.52 541.501C632.993 541.632 633.457 541.762 633.933 541.904Z" fill="#717171"/>
<path d="M633.921 542.497C611.918 547.439 592.36 559.728 579.369 577.266C576.422 581.04 574.169 585.307 572.715 589.869C571.421 594.619 571.437 599.631 572.761 604.373C573.905 608.979 575.596 613.632 575.628 618.28C575.655 620.555 575.143 622.804 574.134 624.843C573.125 626.882 571.648 628.653 569.824 630.012C565.426 633.421 559.829 634.859 554.28 636.067C548.118 637.407 541.683 638.698 537.008 642.803C536.441 643.3 535.57 642.275 536.136 641.779C544.27 634.638 556.864 635.893 566.187 630.791C570.537 628.41 574.003 624.591 574.335 619.241C574.626 614.562 572.886 609.763 571.688 605.104C570.335 600.471 570.136 595.577 571.109 590.849C572.307 586.206 574.379 581.833 577.213 577.965C583.371 569.275 591.051 561.771 599.882 555.815C610.105 548.861 621.558 543.916 633.629 541.242C634.389 541.071 634.677 542.328 633.921 542.497Z" fill="#717171"/>
<path d="M583.256 571.298C577.065 565.034 575.779 555.666 580.215 549.415C580.652 548.799 581.735 549.59 581.298 550.207C577.143 556.063 578.381 564.708 584.169 570.563C584.778 571.179 583.862 571.911 583.256 571.298V571.298Z" fill="#717171"/>
<path d="M571.88 602.072C575.752 602.497 579.669 602.13 583.395 600.995C587.121 599.859 590.577 597.979 593.554 595.467C594.122 594.972 594.994 595.997 594.426 596.491C591.322 599.099 587.72 601.048 583.839 602.221C579.959 603.394 575.88 603.767 571.852 603.316C571.039 603.239 571.072 601.996 571.88 602.072L571.88 602.072Z" fill="#717171"/>
<path d="M610.409 550.588C611.331 551.969 612.546 553.13 613.968 553.988C615.39 554.846 616.983 555.38 618.635 555.551C619.447 555.617 619.413 556.861 618.607 556.795C616.782 556.598 615.023 556.007 613.449 555.062C611.876 554.117 610.528 552.841 609.497 551.323C609.386 551.202 609.325 551.043 609.329 550.879C609.333 550.715 609.4 550.559 609.517 550.443C609.656 550.349 609.826 550.311 609.992 550.338C610.157 550.365 610.307 550.454 610.409 550.588V550.588Z" fill="#717171"/>
</g>
<defs>
<clipPath id="clip0_121_5325">
<rect width="700" height="644.787" fill="white"/>
</clipPath>
</defs>
</svg>
