<svg width="29" height="29" viewBox="0 0 29 29" fill="none" xmlns="http://www.w3.org/2000/svg">
<path d="M23.6175 26.985L1.13153 4.49901C0.831472 4.19895 0.721077 3.73381 0.824635 3.2059C0.928194 2.678 1.23722 2.13058 1.68373 1.68406C2.13025 1.23755 2.67767 0.928523 3.20557 0.824965C3.73348 0.721406 4.19862 0.831801 4.49868 1.13186L26.9847 23.6179C27.2847 23.9179 27.3951 24.3831 27.2916 24.911C27.188 25.4389 26.879 25.9863 26.4325 26.4328C25.986 26.8793 25.4385 27.1883 24.9106 27.2919C24.3827 27.3955 23.9176 27.2851 23.6175 26.985Z" fill="white"/>
<path d="M26.9845 4.49832L4.49852 26.9843C4.19846 27.2844 3.73332 27.3948 3.20541 27.2912C2.67751 27.1876 2.13009 26.8786 1.68357 26.4321C1.23706 25.9856 0.928034 25.4382 0.824476 24.9103C0.720918 24.3824 0.831313 23.9172 1.13137 23.6172L23.6174 1.13117C23.9174 0.831109 24.3826 0.720715 24.9105 0.824273C25.4384 0.927831 25.9858 1.23686 26.4323 1.68337C26.8788 2.12988 27.1879 2.6773 27.2914 3.20521C27.395 3.73311 27.2846 4.19826 26.9845 4.49832Z" fill="white"/>
</svg>
