<svg width="71" height="71" viewBox="0 0 71 71" fill="none" xmlns="http://www.w3.org/2000/svg">
<path d="M29.5806 29.5807L20.46 50.6282L41.5075 41.5076L50.6281 20.4601L29.5806 29.5807ZM35.5428 38.815C33.7351 38.815 32.2708 37.3507 32.2708 35.543C32.2708 33.7353 33.7351 32.2709 35.5428 32.2709C37.3505 32.2709 38.8149 33.7353 38.8149 35.543C38.8149 37.3507 37.3505 38.815 35.5428 38.815Z" fill="url(#paint0_linear_590_6359)"/>
<path d="M34.9231 4.93866C18.3649 4.93866 4.93848 18.3651 4.93848 34.9233C4.93848 51.4815 18.3316 64.908 34.9231 64.908C51.4813 64.908 64.9078 51.4815 64.9078 34.9233C64.9078 18.3651 51.4813 4.93866 34.9231 4.93866ZM34.9231 58.2447C22.0297 58.2447 11.6017 47.8167 11.6017 34.9233C11.6017 22.0299 22.0297 11.6019 34.9231 11.6019C47.8165 11.6019 58.2445 22.0299 58.2445 34.9233C58.2445 47.8167 47.8165 58.2447 34.9231 58.2447Z" fill="url(#paint1_linear_590_6359)"/>
<defs>
<linearGradient id="paint0_linear_590_6359" x1="20.46" y1="35.895" x2="50.6281" y2="35.895" gradientUnits="userSpaceOnUse">
<stop stop-color="#F2DA00"/>
<stop offset="1" stop-color="#E29704"/>
</linearGradient>
<linearGradient id="paint1_linear_590_6359" x1="4.93848" y1="35.2761" x2="64.9078" y2="35.2761" gradientUnits="userSpaceOnUse">
<stop stop-color="#F2DA00"/>
<stop offset="1" stop-color="#E29704"/>
</linearGradient>
</defs>
</svg>
