<svg width="274" height="156" viewBox="0 0 274 156" fill="none" xmlns="http://www.w3.org/2000/svg">
<path d="M70.0009 28.8364C69.1469 29.4057 68.8907 29.9181 67.6666 33.4481C66.1293 37.8889 66.1009 38.7145 67.4104 40.1663C68.8053 41.732 71.9936 41.5327 72.9045 39.7962C73.0753 39.4831 73.5023 38.3444 73.8724 37.3196L74.4987 35.4408L131.319 35.3554C162.605 35.3269 188.168 35.4123 188.168 35.5262C188.168 36.8072 180.254 64.705 174.874 82.4685L168.099 104.758H105.186L104.418 102.68C102.966 98.8371 99.2936 94.9086 95.5074 93.0867C88.6753 89.8415 80.5337 91.0371 75.1534 96.1327C72.8476 98.2962 71.3958 100.374 70.4848 102.823L69.8016 104.616L63.0834 104.701C59.3826 104.73 56.3651 104.701 56.3651 104.616C56.3651 104.531 57.7031 100.061 59.3542 94.7378C62.571 84.3189 62.5994 84.0911 61.3184 82.5539C59.8666 80.8459 57.4184 80.8459 56.0235 82.5254C55.568 83.0378 54.1447 87.3079 51.5542 95.7626C47.7396 108.146 47.7111 108.231 48.1381 109.398C48.3658 110.025 48.9067 110.822 49.3337 111.135C50.1023 111.704 50.5578 111.733 59.6958 111.875L69.2323 112.017L69.7731 114.095C70.5702 117.284 72.1074 119.96 74.5841 122.408C82.2418 130.066 94.6534 129.468 101.628 121.098C103.08 119.362 104.873 115.69 105.357 113.498L105.699 111.875H203.54V112.473C203.54 112.786 203.882 114.039 204.28 115.234C206.131 120.785 210.202 124.885 215.838 126.906C217.66 127.56 218.343 127.646 221.617 127.646C224.891 127.646 225.574 127.56 227.396 126.906C231.495 125.425 235.082 122.579 237.188 119.134C238.242 117.398 239.694 113.526 239.694 112.473C239.694 111.875 239.807 111.875 246.981 111.875C254.81 111.875 255.664 111.733 256.575 110.366C256.774 110.025 258.596 104.132 260.588 97.2714C263.891 85.8845 264.175 84.7174 263.891 83.8349C263.72 83.294 263.207 82.5539 262.809 82.2123C262.382 81.8422 258.311 79.4225 253.785 76.8035L245.529 72.0495L236.875 57.0189C232.121 48.7634 227.908 41.5612 227.51 41.0203C226.2 39.2554 226.428 39.2838 209.803 39.2838C201.519 39.2838 194.715 39.1984 194.715 39.0561C194.715 38.9422 195.114 37.4335 195.569 35.7254C196.708 31.5692 196.68 30.7437 195.456 29.3773L194.488 28.324L70.9688 28.1816L70.0009 28.8364ZM222.841 47.1977C223.154 47.6247 227.054 54.3714 231.58 62.1999C236.078 70.0283 240.092 76.7466 240.519 77.1451C240.918 77.5437 244.59 79.7641 248.661 82.0984C252.732 84.4327 256.119 86.397 256.176 86.4254C256.233 86.4824 255.066 90.6101 253.614 95.6203L250.967 104.758H245.159C239.38 104.758 239.352 104.758 239.181 104.132C239.096 103.762 238.498 102.452 237.872 101.2C235.651 96.7305 230.983 93.0298 226.029 91.7773C223.638 91.151 219.596 91.151 217.205 91.7773C212.251 93.0298 207.554 96.759 205.334 101.2C204.707 102.452 204.138 103.762 204.053 104.132L203.882 104.758H190.445C177.749 104.758 177.037 104.73 177.18 104.246C177.265 103.99 179.799 94.6524 182.759 83.5502C187.912 64.3634 192.751 47.5393 193.349 46.7707C193.577 46.486 196.964 46.4006 207.981 46.4006H222.3L222.841 47.1977ZM92.0914 99.4349C100.632 103.392 100.745 115.32 92.2907 119.476C90.2695 120.501 89.9563 120.558 87.5651 120.558C83.9498 120.529 82.1848 119.789 79.6797 117.312C77.2031 114.807 76.4629 113.042 76.4345 109.455C76.4345 107.178 76.5483 106.694 77.3169 105.043C78.3987 102.766 79.5374 101.399 81.4162 100.204C83.5228 98.8371 84.9177 98.4955 87.8213 98.5809C89.9279 98.6378 90.668 98.7802 92.0914 99.4349ZM225.318 99.0364C227.453 99.7765 229.445 101.314 230.669 103.107C232.178 105.328 232.662 106.808 232.662 109.598C232.691 111.733 232.605 112.245 231.808 113.925C229.559 118.736 224.805 121.326 219.852 120.501C216.066 119.846 213.134 117.568 211.426 113.925C210.629 112.245 210.543 111.733 210.572 109.598C210.572 106.808 211.056 105.328 212.564 103.107C213.76 101.342 215.781 99.805 217.831 99.0648C219.88 98.3247 223.268 98.3247 225.318 99.0364Z" fill="url(#paint0_linear_440_5225)"/>
<path d="M46.2877 57.816C45.4053 58.5276 44.6936 59.7802 44.6936 60.6911C44.6936 61.7444 45.6615 63.2532 46.7147 63.8225C47.6257 64.3065 49.2768 64.3349 80.9892 64.3349C112.702 64.3349 114.353 64.3065 115.264 63.8225C116.317 63.2532 117.285 61.7444 117.285 60.6911C117.285 59.7802 116.573 58.5276 115.691 57.816L114.922 57.2182H47.0564L46.2877 57.816Z" fill="url(#paint1_linear_440_5225)"/>
<path d="M28.0403 71.1671C26.1899 71.9072 25.3929 74.4977 26.4461 76.2057C27.6418 78.113 25.6206 78.0276 58.3863 77.9422L88.0206 77.8568L88.9885 76.8036C89.7855 75.9211 89.9563 75.5225 89.9563 74.5262C89.9279 73.0459 89.4724 72.1634 88.3622 71.4233C87.5651 70.9109 86.7396 70.8824 58.0731 70.9109C41.8753 70.9109 28.3534 71.0247 28.0403 71.1671Z" fill="url(#paint2_linear_440_5225)"/>
<path d="M10.9315 44.9488C9.7359 45.4897 8.82495 46.8561 8.82495 48.1087C8.82495 49.1619 9.70743 50.6707 10.6468 51.1831C11.4724 51.6386 14.6038 51.6671 55.6534 51.6671C96.7031 51.6671 99.8344 51.6386 100.66 51.1831C101.599 50.6707 102.482 49.1619 102.482 48.1087C102.482 46.8561 101.571 45.4897 100.375 44.9488C99.2651 44.4364 97.4432 44.4079 55.6534 44.4079C13.8636 44.4079 12.0417 44.4364 10.9315 44.9488Z" fill="url(#paint3_linear_440_5225)"/>
<path d="M16.9181 137.928C14.2707 140.317 12.911 143.275 13.7738 144.769C14.4992 146.026 17.7674 146.539 20.4932 145.78C22.8921 145.12 30.821 140.587 134.505 80.7255C238.189 20.8636 246.079 16.2632 247.85 14.5159C249.87 12.5347 251.06 9.44775 250.334 8.19117C249.471 6.69685 246.229 6.39511 242.837 7.49338C239.68 8.50108 235.058 11.124 129.505 72.0653C23.9516 133.007 19.3694 135.697 16.9181 137.928Z" fill="#FF0000"/>
<defs>
<linearGradient id="paint0_linear_440_5225" x1="8.99975" y1="77.9993" x2="264" y2="77.9993" gradientUnits="userSpaceOnUse">
<stop stop-color="#F2DA00"/>
<stop offset="1" stop-color="#E29704"/>
</linearGradient>
<linearGradient id="paint1_linear_440_5225" x1="8.99975" y1="77.9993" x2="264" y2="77.9993" gradientUnits="userSpaceOnUse">
<stop stop-color="#F2DA00"/>
<stop offset="1" stop-color="#E29704"/>
</linearGradient>
<linearGradient id="paint2_linear_440_5225" x1="8.99975" y1="77.9993" x2="264" y2="77.9993" gradientUnits="userSpaceOnUse">
<stop stop-color="#F2DA00"/>
<stop offset="1" stop-color="#E29704"/>
</linearGradient>
<linearGradient id="paint3_linear_440_5225" x1="8.99975" y1="77.9993" x2="264" y2="77.9993" gradientUnits="userSpaceOnUse">
<stop stop-color="#F2DA00"/>
<stop offset="1" stop-color="#E29704"/>
</linearGradient>
</defs>
</svg>
