<svg width="35" height="25" viewBox="0 0 35 25" fill="none" xmlns="http://www.w3.org/2000/svg">
<g clip-path="url(#clip0_437_5204)">
<path d="M33.4 4.76187H1.6C1.17565 4.76187 0.768686 4.51102 0.468628 4.06451C0.16857 3.618 0 3.0124 0 2.38094C0 1.74947 0.16857 1.14387 0.468628 0.697358C0.768686 0.250846 1.17565 0 1.6 0H33.4C33.8243 0 34.2313 0.250846 34.5314 0.697358C34.8314 1.14387 35 1.74947 35 2.38094C35 3.0124 34.8314 3.618 34.5314 4.06451C34.2313 4.51102 33.8243 4.76187 33.4 4.76187Z" fill="#565656" fill-opacity="0.95"/>
<path d="M33.4 14.88H1.6C1.17565 14.88 0.768686 14.6292 0.468628 14.1827C0.16857 13.7362 0 13.1306 0 12.4991C0 11.8676 0.16857 11.262 0.468628 10.8155C0.768686 10.369 1.17565 10.1182 1.6 10.1182H33.4C33.8243 10.1182 34.2313 10.369 34.5314 10.8155C34.8314 11.262 35 11.8676 35 12.4991C35 13.1306 34.8314 13.7362 34.5314 14.1827C34.2313 14.6292 33.8243 14.88 33.4 14.88Z" fill="#565656" fill-opacity="0.95"/>
<path d="M33.4 25.0001H1.6C1.17565 25.0001 0.768686 24.7493 0.468628 24.3028C0.16857 23.8563 0 23.2507 0 22.6192C0 21.9877 0.16857 21.3821 0.468628 20.9356C0.768686 20.4891 1.17565 20.2383 1.6 20.2383H33.4C33.8243 20.2383 34.2313 20.4891 34.5314 20.9356C34.8314 21.3821 35 21.9877 35 22.6192C35 23.2507 34.8314 23.8563 34.5314 24.3028C34.2313 24.7493 33.8243 25.0001 33.4 25.0001Z" fill="#565656" fill-opacity="0.95"/>
</g>
<defs>
<clipPath id="clip0_437_5204">
<rect width="35" height="25" fill="white"/>
</clipPath>
</defs>
</svg>
